<?xml version="1.0" encoding="utf-8"?>
<!-- Generator: Adobe Illustrator 21.0.0, SVG Export Plug-In . SVG Version: 6.00 Build 0)  -->
<svg version="1.1" baseProfile="tiny" id="Слой_1"
	 xmlns="http://www.w3.org/2000/svg" xmlns:xlink="http://www.w3.org/1999/xlink" x="0px" y="0px" viewBox="0 0 500 500"
	 overflow="auto" xml:space="preserve">
<g id="XMLID_3_">
	<rect id="XMLID_2335_" x="-0.8" y="-0.9" display="none" fill="#F8F7F7" width="501.6" height="501.8"/>
	<g id="XMLID_2326_">
		<path id="XMLID_2334_" fill="#CDCCCC" d="M396,389.6c2.9,1.2,6.3,0.3,8.3-2.2c5.6-7.1,12.2-17.1,17.4-30.1c4.9-12,7-23.1,8-31.7
			c0.4-3.1-1.4-6.1-4.4-7.3l-18-7.5c-4.6,26.3-15.9,50.3-32.1,70.1C382.2,383.9,389.1,386.8,396,389.6z"/>
		<line id="XMLID_2333_" fill="#E4E2E2" x1="282.8" y1="131.4" x2="282.8" y2="131.4"/>
		<path id="XMLID_2332_" fill="#CDCCCC" d="M285.5,129.8l1.2,4.1c22.7,4.7,43.7,14.3,61.5,27.8c2.6-5.9,5.2-11.8,7.7-17.8
			c1.3-2.9,0.4-6.3-2-8.3c-7-5.8-16.9-12.5-29.7-18c-4.2-1.8-8.3-3.2-12.2-4.4L285.5,129.8L285.5,129.8z"/>
		<path id="XMLID_2331_" fill="#CDCCCC" d="M432.5,250.6c-1-9-3.4-20.8-8.8-33.6c-5-12-11.2-21.3-16.6-28.2c-2-2.5-5.3-3.4-8.2-2.2
			l-18.5,7.6c15,20.7,25,45.2,28.2,71.8c6.5-2.7,13.1-5.4,19.6-8C431.1,256.8,432.9,253.8,432.5,250.6z"/>
		<path id="XMLID_2330_" fill="#D8D8D8" d="M348.3,161.6c-17.9-13.4-38.8-23.1-61.5-27.8l2.2,7.4l5.2,17.2
			c54.1,16.5,93.4,66.6,93.4,125.9c0,72.7-59.2,131.7-132.3,131.7S122.9,357,122.9,284.3c0-59.2,39.2-109.2,93.3-125.8l4.2-14.1
			l3.2-10.6c-70.1,14.5-122.8,76.4-122.8,150.5c0,84.9,69.2,153.7,154.5,153.7c48.5,0,91.7-22.2,120-57
			c16.2-19.9,27.5-43.9,32.1-70.1c1.5-8.6,2.3-17.5,2.3-26.6c0-6.2-0.4-12.3-1.1-18.3c-3.2-26.6-13.2-51.1-28.2-71.8
			C371.4,181.9,360.5,170.9,348.3,161.6z"/>
		<path id="XMLID_2329_" fill="#DADBD9" d="M261.6,152.8l-6.5-4.1h0l-6.5,4.1c2.2-0.1,4.3-0.2,6.5-0.2
			C257.4,152.7,259.5,152.7,261.6,152.8z"/>
		<path id="XMLID_2328_" fill="#DADBD9" d="M298.5,173.4c0,0.4-0.3,0.8-0.6,1c-0.3,0.3-0.7,0.4-1.1,0.3c-0.1,0-0.2,0-0.3-0.1
			c-0.2-0.1-0.4-0.2-0.6-0.3l-34.3-21.5c-2.1-0.1-4.3-0.2-6.4-0.2c-2.2,0-4.4,0.1-6.5,0.2l-34.3,21.5c-0.2,0.2-0.5,0.4-0.9,0.4
			c-0.4,0.1-0.8-0.1-1.1-0.3c-0.4-0.2-0.6-0.6-0.6-1c0-0.1,0-0.2,0-0.3c0-0.2,0.1-0.4,0.2-0.6l4.2-14c-54,16.6-93.3,66.6-93.3,125.8
			c0,72.7,59.2,131.7,132.3,131.7S387.5,357,387.5,284.3c0-59.2-39.3-109.3-93.4-125.9l4.2,14C298.5,172.7,298.6,173.1,298.5,173.4z
			"/>
		<path id="XMLID_2327_" fill="#E5E5E4" d="M298.5,173.4c0,0.4-0.3,0.8-0.6,1c-0.3,0.3-0.7,0.4-1.1,0.3c-0.1,0-0.2,0-0.3-0.1
			c-0.2-0.1-0.4-0.2-0.6-0.3l-34.3-21.5c-2.1-0.1-4.3-0.2-6.4-0.2c-2.2,0-4.4,0.1-6.5,0.2l-34.3,21.5c-0.2,0.2-0.5,0.4-0.9,0.4
			c-0.4,0.1-0.8-0.1-1.1-0.3c-0.4-0.2-0.6-0.6-0.6-1c0-0.1,0-0.2,0-0.3c0-0.2,0.1-0.4,0.2-0.6l4.2-14c-54,16.6-93.3,66.6-93.3,125.8
			c0,72.7,59.2,131.7,132.3,131.7S387.5,357,387.5,284.3c0-59.2-39.3-109.3-93.4-125.9l4.2,14C298.5,172.7,298.6,173.1,298.5,173.4z
			"/>
	</g>
	<ellipse id="XMLID_2323_" fill="#035C9C" cx="255.2" cy="284.3" rx="112.2" ry="111.6"/>
	<path id="XMLID_2320_" fill="#0D64A1" d="M149,320.4c-3.9-11.3-6-23.5-6-36.1c0-61.7,50.2-111.6,112.2-111.6
		c36.1,0,68.3,17,88.8,43.4"/>
	<path id="XMLID_858_" fill="none" d="M369.9,236.1c17.9,69.3-24,140.1-93.7,158.1s-140.6-23.6-158.5-92.9s24-140.1,93.7-158.1
		S351.9,166.8,369.9,236.1z"/>
	<g id="XMLID_2318_" display="none">
		
			<text transform="matrix(0.7845 0.6195 -0.6197 0.7849 321.6127 164.5319)" display="inline" fill="#E6E6E6" font-family="'MyriadPro-Regular'" font-size="12.6215px">D</text>
		
			<text transform="matrix(0.7486 0.6624 -0.6627 0.749 328.1193 169.7041)" display="inline" fill="#E6E6E6" font-family="'MyriadPro-Regular'" font-size="12.6215px">e</text>
		
			<text transform="matrix(0.7195 0.6939 -0.6942 0.7199 332.7797 173.8427)" display="inline" fill="#E6E6E6" font-family="'MyriadPro-Regular'" font-size="12.6215px">s</text>
		
			<text transform="matrix(0.6981 0.7154 -0.7157 0.6986 336.3231 177.2828)" display="inline" fill="#E6E6E6" font-family="'MyriadPro-Regular'" font-size="12.6215px">i</text>
		
			<text transform="matrix(0.6705 0.7414 -0.7417 0.6709 338.3445 179.2948)" display="inline" fill="#E6E6E6" font-family="'MyriadPro-Regular'" font-size="12.6215px">g</text>
		
			<text transform="matrix(0.6302 0.7759 -0.7762 0.6306 342.9501 184.3807)" display="inline" fill="#E6E6E6" font-family="'MyriadPro-Regular'" font-size="12.6215px">n</text>
		
			<text transform="matrix(0.5897 0.8071 -0.8074 0.5901 347.298 189.7451)" display="inline" fill="#E6E6E6" font-family="'MyriadPro-Regular'" font-size="12.6215px">e</text>
		
			<text transform="matrix(0.5475 0.8363 -0.8366 0.5478 350.9652 194.7398)" display="inline" fill="#E6E6E6" font-family="'MyriadPro-Regular'" font-size="12.6215px">d</text>
		
			<text transform="matrix(0.5156 0.8564 -0.8567 0.5159 354.7919 200.6597)" display="inline" fill="#E6E6E6" font-family="'MyriadPro-Regular'" font-size="12.6215px"> </text>
		
			<text transform="matrix(0.4828 0.8753 -0.8756 0.4831 356.1709 202.8651)" display="inline" fill="#E6E6E6" font-family="'MyriadPro-Regular'" font-size="12.6215px">b</text>
		
			<text transform="matrix(0.4389 0.8981 -0.8984 0.4393 359.5222 208.9613)" display="inline" fill="#E6E6E6" font-family="'MyriadPro-Regular'" font-size="12.6215px">y</text>
		
			<text transform="matrix(0.409 0.9121 -0.9124 0.4093 362.0818 214.2597)" display="inline" fill="#E6E6E6" font-family="'MyriadPro-Regular'" font-size="12.6215px"> </text>
		
			<text transform="matrix(0.3752 0.9266 -0.9269 0.3755 363.1759 216.5983)" display="inline" fill="#E6E6E6" font-family="'MyriadPro-Regular'" font-size="12.6215px">Z</text>
		
			<text transform="matrix(0.3288 0.944 -0.9443 0.3291 365.7022 222.8434)" display="inline" fill="#E6E6E6" font-family="'MyriadPro-Regular'" font-size="12.6215px">e</text>
		
			<text transform="matrix(0.2956 0.9549 -0.9552 0.2959 367.7222 228.7271)" display="inline" fill="#E6E6E6" font-family="'MyriadPro-Regular'" font-size="12.6215px">l</text>
		
			<text transform="matrix(0.2659 0.9636 -0.9639 0.2661 368.6002 231.5019)" display="inline" fill="#E6E6E6" font-family="'MyriadPro-Regular'" font-size="12.6215px">e</text>
		
			<text transform="matrix(0.2136 0.9766 -0.9769 0.2138 370.2527 237.4939)" display="inline" fill="#E6E6E6" font-family="'MyriadPro-Regular'" font-size="12.6215px">n</text>
		
			<text transform="matrix(0.1692 0.9853 -0.9855 0.1694 371.7081 244.2429)" display="inline" fill="#E6E6E6" font-family="'MyriadPro-Regular'" font-size="12.6215px">s</text>
		
			<text transform="matrix(0.1282 0.9914 -0.9917 0.1284 372.5486 249.07)" display="inline" fill="#E6E6E6" font-family="'MyriadPro-Regular'" font-size="12.6215px">k</text>
		
			<text transform="matrix(9.286886e-02 0.9954 -0.9956 9.307182e-02 373.2981 255.0918)" display="inline" fill="#E6E6E6" font-family="'MyriadPro-Regular'" font-size="12.6215px">i</text>
		
			<text transform="matrix(5.908178e-02 0.9979 -0.9982 5.927050e-02 373.5914 257.9401)" display="inline" fill="#E6E6E6" font-family="'MyriadPro-Regular'" font-size="12.6215px">y</text>
		
			<text transform="matrix(2.611608e-02 0.9994 -0.9996 2.629072e-02 373.912 263.7994)" display="inline" fill="#E6E6E6" font-family="'MyriadPro-Regular'" font-size="12.6215px"> </text>
		
			<text transform="matrix(-1.379294e-02 0.9996 -0.9999 -1.363557e-02 374.0316 266.3911)" display="inline" fill="#E6E6E6" font-family="'MyriadPro-Regular'" font-size="12.6215px">A</text>
		
			<text transform="matrix(-5.466427e-02 0.9982 -0.9985 -5.452487e-02 373.8809 274.0034)" display="inline" fill="#E6E6E6" font-family="'MyriadPro-Regular'" font-size="12.6215px">l</text>
		
			<text transform="matrix(-9.023677e-02 0.9956 -0.9959 -9.011323e-02 373.7533 276.9032)" display="inline" fill="#E6E6E6" font-family="'MyriadPro-Regular'" font-size="12.6215px">e</text>
		
			<text transform="matrix(-0.1362 0.9904 -0.9906 -0.1361 373.1924 283.0591)" display="inline" fill="#E6E6E6" font-family="'MyriadPro-Regular'" font-size="12.6215px">x</text>
		
			<text transform="matrix(-0.1811 0.9832 -0.9834 -0.181 372.4174 288.7307)" display="inline" fill="#E6E6E6" font-family="'MyriadPro-Regular'" font-size="12.6215px">a</text>
		
			<text transform="matrix(-0.23 0.9729 -0.9731 -0.2299 371.3475 294.6148)" display="inline" fill="#E6E6E6" font-family="'MyriadPro-Regular'" font-size="12.6215px">n</text>
		
			<text transform="matrix(-0.2819 0.9592 -0.9594 -0.2818 369.7703 301.311)" display="inline" fill="#E6E6E6" font-family="'MyriadPro-Regular'" font-size="12.6215px">d</text>
		
			<text transform="matrix(-0.3303 0.9436 -0.9438 -0.3303 367.7901 308.0247)" display="inline" fill="#E6E6E6" font-family="'MyriadPro-Regular'" font-size="12.6215px">e</text>
		
			<text transform="matrix(-0.3674 0.9298 -0.9299 -0.3675 365.7064 313.9128)" display="inline" fill="#E6E6E6" font-family="'MyriadPro-Regular'" font-size="12.6215px">r</text>
	</g>
	<g id="XMLID_2310_">
		<path fill="#0FAD8A" d="M255.2,396.1c40.4,0,75.8-21.1,95.7-52.9H159.6C179.5,374.9,214.9,396.1,255.2,396.1z"/>
	</g>
	<g id="XMLID_2272_">
		<g id="XMLID_2273_">
			<path id="XMLID_2307_" fill="#FAB61F" d="M206.1,117.9l-5.6-3.5c-19.5,6.3-37.5,15.8-53.4,27.9c0.8,1.6,1.5,3.2,2.2,4.7
				C166.1,134,185.2,124.1,206.1,117.9z"/>
			<path id="XMLID_2304_" fill="#FFD241" d="M205.8,117.1c-20.9,6.2-40.2,16.2-57,29.1c0.7,1.5,1.3,2.8,1.8,4.1
				c17.6-13.7,38-24.1,60.1-30.1L205.8,117.1z"/>
			<path id="XMLID_2301_" fill="#FAB61F" d="M210.7,120.2c-22.2,6-42.5,16.4-60.1,30.1c0.3,0.6,0.5,1.2,0.7,1.7
				c0.3,0.7,0.6,1.4,0.8,2c18.3-14.5,39.7-25.2,63.1-31L210.7,120.2z"/>
			<path id="XMLID_2298_" fill="#FFD241" d="M215.3,123.1c-23.4,5.8-44.8,16.5-63.1,31c0.7,1.7,1.2,3.1,1.6,4.3
				c19.1-15.4,41.9-26.6,66.7-32.1L215.3,123.1z"/>
			<path id="XMLID_2295_" fill="#FAB61F" d="M225.4,129.4L225.4,129.4l-4.9-3.1c-24.9,5.5-47.6,16.7-66.7,32.1
				c0.7,1.9,1,3.2,1.2,4.4c19.9-16.5,44-28.1,70.5-33.2L225.4,129.4z"/>
			<path id="XMLID_2292_" fill="#FFD241" d="M223.9,134.6l1.5-5.1c-26.4,5.1-50.5,16.8-70.5,33.2c0,0.1,0,0.2,0.1,0.3
				c0.3,1.4,0.4,2.7,0.5,4c0.5,0,1,0.1,1.5,0.1C175.9,151.3,198.7,139.9,223.9,134.6z"/>
			<path id="XMLID_2289_" fill="#FAB61F" d="M162.8,168.3c17.2-13.7,37.4-23.7,59.6-28.7l1.5-5c-25.1,5.3-48,16.7-66.9,32.6
				C158.7,167.3,160.7,167.7,162.8,168.3z"/>
			<path id="XMLID_2286_" fill="#FFD241" d="M163.5,168.4c1.1,0.3,2.3,0.7,4.2,1.6c15.5-11.9,33.6-20.8,53.3-25.6l1.5-4.9
				c-22.1,5.1-42.4,15-59.6,28.7C163,168.3,163.3,168.4,163.5,168.4z"/>
			<path id="XMLID_2283_" fill="#FAB61F" d="M172.7,172.5c13.8-10.2,29.5-17.9,46.6-22.5l1.7-5.6c-19.6,4.8-37.7,13.7-53.3,25.6
				C168.9,170.6,170.6,171.4,172.7,172.5z"/>
			<path id="XMLID_2280_" fill="#FAB61F" d="M180.1,177.4c11.2-7.4,23.5-13.3,36.7-17.3l2-6.4c-16,4.5-30.9,11.5-44.1,20.6
				C176.3,175.2,178.2,176.3,180.1,177.4z"/>
			<path id="XMLID_2277_" fill="#F5D545" d="M173.5,173.5c0.9,0.5,1.9,1.1,3,1.7c12.5-9,26.5-15.9,41.7-20.3l1.6-5.2
				c-17.4,4.7-33.5,12.6-47.6,23C172.6,173,173,173.3,173.5,173.5z"/>
			<path id="XMLID_2274_" fill="#FFD241" d="M173.2,173.2c0.9,0.5,1.9,1.1,3,1.7c12.5-9,26.5-15.9,41.7-20.3l1.6-5.2
				c-17.4,4.7-33.5,12.6-47.6,23C172.2,172.7,172.7,173,173.2,173.2z"/>
		</g>
	</g>
	<g id="XMLID_2260_">
		<path id="XMLID_2269_" fill="#FFD241" d="M173.4,173.6c3.8,2.1,8.8,5,14.6,8.9c-4.3,3.2-8.1,5.6-11,7.4c-4,2.4-6.6,4-10.4,5.6
			c-4.1,1.7-7.6,2.7-10.1,3.2c-8.5,1-14.4-1.3-17.1-2.6c-4-1.9-8-5-9-5.8c-2.2-1.7-3.9-3.4-5.2-4.6c1.1-2.2,2.6-4.5,4.6-6.8
			c7.5-8.9,16.9-10.9,21.2-11.6c2.9-0.1,7,0,11.8,1.4C165,169.4,167.4,170.3,173.4,173.6z"/>
		<path id="XMLID_2261_" fill="#FAB61F" d="M152.4,199.9c-4.8,0-9.4-1-13.3-2.9c-1.9-0.9-5-2.7-9.1-5.9c-1.8-1.4-3.6-3-5.3-4.6
			l-0.5-0.5l0.3-0.6c1.3-2.6,2.9-4.9,4.7-7c7-8.3,15.7-11,21.8-11.9c4.2-0.2,8.2,0.3,12.2,1.5c2.4,0.7,5,1.8,10.7,4.9h0
			c4.9,2.7,9.9,5.7,14.7,8.9l1.1,0.8l-1.1,0.8c-3.6,2.6-7.3,5.1-11,7.4c-3.8,2.3-6.6,4-10.5,5.7c-3.3,1.4-6.8,2.5-10.3,3.3
			C155.3,199.8,153.9,199.9,152.4,199.9z M126.6,185.6c1.5,1.4,3,2.8,4.6,4c4,3.2,7,4.9,8.8,5.7c4.8,2.3,10.5,3.2,16.5,2.5
			c3.3-0.7,6.6-1.8,9.9-3.1c3.8-1.6,6.5-3.3,10.2-5.6c3.3-2,6.6-4.2,9.8-6.5c-4.4-2.9-8.9-5.6-13.4-8.1h0c-6.2-3.4-8.5-4.2-10.3-4.8
			c-3.7-1.1-7.6-1.6-11.5-1.4c-5.7,0.8-13.9,3.4-20.5,11.2C129.1,181.3,127.8,183.4,126.6,185.6z"/>
	</g>
	<g id="XMLID_2248_">
		<path id="XMLID_2257_" fill="#FFD241" d="M150.8,152.4c-1.7-4-4-9.3-7.3-15.5c-3.6,4-6.4,7.4-8.5,10.1c-2.8,3.7-4.7,6.1-6.7,9.7
			c-2.2,3.9-3.5,7.3-4.3,9.7c-1.9,8.4-0.3,14.4,0.7,17.3c1.5,4.2,4.2,8.5,4.8,9.5c1.5,2.4,2.9,4.3,4,5.6c2.3-0.9,4.8-2.1,7.3-3.8
			c9.6-6.5,12.7-15.6,13.8-19.8c0.4-2.8,0.7-7-0.2-11.8C154,161.3,153.4,158.7,150.8,152.4z"/>
		<path id="XMLID_2249_" fill="#FAB61F" d="M133.2,200l-0.4-0.5c-1.5-1.8-2.8-3.8-4-5.7c-2.8-4.5-4.2-7.8-4.9-9.7
			c-1.9-5.4-2.1-11.5-0.7-17.8c1.1-3.5,2.6-6.8,4.4-10c2.1-3.7,4-6.3,6.8-9.8c2.7-3.5,5.5-6.9,8.6-10.2l0.9-1l0.6,1.2
			c2.7,5.1,5.1,10.4,7.3,15.6l0,0c2.5,6,3.3,8.8,3.7,11.2c0.7,4,0.8,8.1,0.2,12.2c-1.5,6-5.2,14.4-14.2,20.5
			c-2.3,1.5-4.8,2.9-7.5,3.9L133.2,200z M143.3,138.6c-2.6,2.9-5.2,6-7.5,9.1c-2.7,3.5-4.6,6-6.6,9.6c-1.7,3.1-3.1,6.3-4.2,9.6
			c-1.3,5.8-1.1,11.6,0.7,16.6c0.7,1.9,2,5,4.7,9.4c1.1,1.7,2.2,3.4,3.5,5c2.3-1,4.5-2.1,6.5-3.4c8.5-5.7,12-13.6,13.4-19.3
			c0.6-3.8,0.5-7.6-0.2-11.4c-0.3-1.9-0.9-4.3-3.6-10.8l0,0C147.9,148,145.7,143.3,143.3,138.6z"/>
	</g>
	<g id="XMLID_2027_">
		<path id="XMLID_2245_" fill="#FFD241" d="M158.5,186c4,1.6,9.4,3.9,15.6,7c-3.9,3.7-7.3,6.6-10,8.7c-3.6,2.9-6.1,4.8-9.6,6.9
			c-3.8,2.2-7.2,3.6-9.6,4.5c-8.3,2.1-14.4,0.5-17.3-0.4c-4.2-1.4-8.5-4-9.6-4.7c-2.4-1.4-4.3-2.8-5.7-3.9c0.9-2.3,2-4.8,3.7-7.4
			c6.3-9.7,15.4-13,19.6-14.1c2.8-0.5,6.9-0.8,11.8,0C149.6,182.8,152.2,183.4,158.5,186z"/>
		<path id="XMLID_2028_" fill="#FAB61F" d="M136.7,214.9c-3.3,0-6.4-0.5-9.3-1.5c-2-0.7-5.3-2-9.8-4.8c-2-1.2-3.9-2.5-5.8-4
			l-0.6-0.4l0.2-0.7c1-2.7,2.3-5.2,3.8-7.5c5.9-9.1,14.2-12.9,20.1-14.5c4.1-0.7,8.2-0.7,12.2-0.1c2.4,0.4,5.2,1.1,11.2,3.5
			c5.2,2.1,10.5,4.4,15.7,7l1.2,0.6l-1,0.9c-3.2,3.1-6.6,6-10,8.7c-3.5,2.8-6,4.8-9.7,6.9c-3.1,1.8-6.4,3.4-9.8,4.5
			C142.4,214.6,139.5,214.9,136.7,214.9z M113.5,203.7c1.6,1.2,3.3,2.4,5.1,3.4c4.4,2.6,7.6,4,9.4,4.6c5.1,1.7,10.8,1.8,16.7,0.4
			c3.2-1.1,6.4-2.6,9.4-4.4c3.5-2.1,6-4,9.5-6.8c3-2.4,6-5,8.9-7.7c-4.7-2.3-9.6-4.5-14.3-6.4c-6.6-2.6-9-3.1-10.8-3.4
			c-3.8-0.6-7.7-0.6-11.5,0c-5.5,1.5-13.4,5.1-18.9,13.7C115.6,199.2,114.4,201.4,113.5,203.7z"/>
	</g>
	<g id="XMLID_2015_">
		<path id="XMLID_2024_" fill="#FFD241" d="M133.9,167.7c-2.1-3.8-5-8.8-8.8-14.7c-3.2,4.3-5.6,8.1-7.4,10.9
			c-2.4,4-4.1,6.6-5.7,10.3c-1.7,4.1-2.7,7.6-3.3,10.1c-1,8.5,1.2,14.4,2.5,17.1c1.9,4,5,8,5.8,9c1.7,2.2,3.3,4,4.5,5.2
			c2.2-1.1,4.6-2.6,6.9-4.5c8.9-7.5,11-16.8,11.6-21.2c0.1-2.9,0-7-1.4-11.8C138.1,176.2,137.2,173.7,133.9,167.7z"/>
		<path id="XMLID_2016_" fill="#FAB61F" d="M121.4,216.9l-0.5-0.5c-1.6-1.7-3.2-3.5-4.6-5.3c-3.3-4.2-5-7.3-5.9-9.2
			c-2.4-5.1-3.3-11.2-2.6-17.6c0.8-3.6,1.9-7,3.3-10.4c1.7-3.9,3.4-6.6,5.7-10.5c2.3-3.7,4.8-7.4,7.5-11l0.8-1.1l0.7,1.1
			c3.2,4.8,6.2,9.8,8.9,14.7l0,0c3.1,5.7,4.2,8.4,4.9,10.7c1.1,3.9,1.6,8,1.4,12.1c-0.9,6.2-3.7,14.9-12,21.8
			c-2.1,1.8-4.5,3.3-7,4.7L121.4,216.9z M125,154.7c-2.3,3.2-4.5,6.5-6.6,9.8c-2.3,3.7-4,6.5-5.6,10.2c-1.4,3.2-2.5,6.6-3.2,9.9
			c-0.7,5.9,0.1,11.7,2.4,16.5c0.9,1.8,2.5,4.8,5.7,8.8c1.2,1.6,2.6,3.1,4,4.6c2.2-1.2,4.2-2.6,6.1-4.1c7.8-6.6,10.5-14.8,11.3-20.6
			c0.2-3.8-0.3-7.7-1.4-11.4c-0.5-1.8-1.3-4.2-4.7-10.4l0,0C130.6,163.7,127.9,159.1,125,154.7z"/>
	</g>
	<g id="XMLID_2003_">
		<path id="XMLID_2012_" fill="#FFD241" d="M146.4,199.6c4.2,1.1,9.8,2.7,16.3,5.1c-3.4,4.1-6.5,7.4-8.9,9.8c-3.3,3.3-5.4,5.5-8.7,8
			c-3.5,2.7-6.7,4.4-9.1,5.6c-8,3-14.2,2.3-17.2,1.7c-4.3-0.9-8.9-3-10.1-3.5c-2.5-1.1-4.6-2.3-6.1-3.2c0.6-2.4,1.5-5.1,2.8-7.7
			c5.1-10.4,13.7-14.7,17.8-16.3c2.7-0.8,6.8-1.7,11.8-1.5C137.2,197.5,139.8,197.8,146.4,199.6z"/>
		<path id="XMLID_2004_" fill="#FAB61F" d="M124.5,231.2c-2,0-3.9-0.2-5.7-0.6c-2-0.4-5.5-1.4-10.3-3.6c-2.1-1-4.2-2-6.2-3.2
			l-0.6-0.4l0.2-0.7c0.7-2.8,1.6-5.5,2.8-7.9c4.8-9.7,12.6-14.5,18.3-16.8c4-1.2,8.1-1.7,12.2-1.5c2.5,0.1,5.3,0.5,11.6,2.2h0
			c5.4,1.4,11,3.2,16.4,5.1l1.3,0.5l-0.9,1c-2.9,3.4-5.9,6.8-8.9,9.9c-3.1,3.2-5.4,5.5-8.8,8c-2.9,2.2-6,4.1-9.2,5.7
			C132.5,230.4,128.4,231.2,124.5,231.2z M103.8,222.5c1.8,1,3.6,2,5.4,2.8c4.7,2.1,8,3,9.9,3.4c5.2,1.1,11,0.5,16.7-1.6
			c3-1.5,6-3.3,8.8-5.4c3.3-2.5,5.5-4.7,8.6-7.9c2.7-2.8,5.4-5.7,7.9-8.7c-5-1.8-10-3.3-15-4.6l0,0c-6.8-1.8-9.3-2-11.2-2.1
			c-3.9-0.2-7.7,0.3-11.5,1.4c-5.3,2.1-12.7,6.7-17.2,15.9C105.3,217.8,104.4,220.1,103.8,222.5z"/>
	</g>
	<g id="XMLID_1991_">
		<path id="XMLID_2000_" fill="#FFD241" d="M119.2,184.8c-2.6-3.5-6.1-8.1-10.7-13.4c-2.6,4.7-4.5,8.8-5.9,11.8
			c-1.9,4.2-3.1,7.1-4.2,11c-1.2,4.3-1.7,7.9-1.9,10.5c0.1,8.6,3.1,14.1,4.7,16.6c2.4,3.7,6,7.2,6.9,8.1c2,2,3.8,3.5,5.2,4.5
			c2-1.4,4.2-3.2,6.2-5.4c7.8-8.6,8.7-18.2,8.7-22.5c-0.3-2.8-0.9-6.9-2.9-11.5C124.5,192.7,123.3,190.3,119.2,184.8z"/>
		<path id="XMLID_1992_" fill="#FAB61F" d="M113.4,235.2l-0.6-0.4c-1.9-1.4-3.6-3-5.3-4.6c-3.8-3.7-5.9-6.6-7.1-8.3
			c-3.1-4.8-4.8-10.7-4.9-17.1c0.3-3.7,0.9-7.2,1.9-10.7c1.1-4.1,2.5-7,4.3-11.1c1.8-4,3.8-8,5.9-11.9l0.7-1.2l0.9,1
			c3.8,4.4,7.4,8.9,10.8,13.4l0,0c3.9,5.3,5.3,7.7,6.2,10c1.6,3.7,2.7,7.7,3,11.8c-0.1,6.2-1.7,15.2-9,23.2c-1.8,2-4,3.9-6.3,5.6
			L113.4,235.2z M108.7,173.1c-1.9,3.5-3.6,7-5.2,10.6c-1.8,4-3.1,6.9-4.2,10.9c-0.9,3.4-1.6,6.8-1.8,10.3c0.1,6,1.7,11.5,4.6,16
			c1.1,1.7,3.1,4.4,6.8,8c1.4,1.4,3,2.8,4.6,4c2-1.5,3.9-3.1,5.5-4.9c6.9-7.6,8.4-16.1,8.5-21.9c-0.3-3.8-1.3-7.5-2.9-11.1
			c-0.8-1.8-1.9-3.9-6-9.6l0,0C115.4,181.2,112.2,177.1,108.7,173.1z"/>
	</g>
	<g id="XMLID_1979_">
		<path id="XMLID_1988_" fill="#FFD241" d="M135.5,214.6c4.3,0.4,10.1,1.1,17,2.3c-2.7,4.6-5.2,8.4-7.1,11.1
			c-2.7,3.8-4.5,6.3-7.3,9.3c-3,3.2-5.9,5.5-8,7c-7.4,4.3-13.7,4.6-16.7,4.5c-4.4-0.2-9.3-1.5-10.5-1.8c-2.7-0.7-4.9-1.5-6.6-2.1
			c0.2-2.5,0.6-5.2,1.5-8.1c3.3-11.1,11.1-16.8,14.8-19.1c2.6-1.2,6.4-2.8,11.4-3.4C126.1,214.1,128.7,214,135.5,214.6z"/>
		<path id="XMLID_1980_" fill="#FAB61F" d="M114.4,249.8c-0.3,0-0.7,0-1,0c-2.1-0.1-5.6-0.5-10.7-1.8c-2.2-0.6-4.5-1.3-6.7-2.2
			l-0.7-0.3l0-0.7c0.2-2.9,0.7-5.7,1.5-8.3c3.1-10.4,10-16.4,15.2-19.6c3.8-1.8,7.7-3,11.7-3.5c2.4-0.3,5.3-0.4,11.8,0.2l0,0
			c5.6,0.5,11.3,1.3,17,2.3l1.3,0.2l-0.7,1.2c-2.3,3.9-4.7,7.6-7.2,11.2c-2.6,3.7-4.4,6.3-7.3,9.4c-2.5,2.6-5.2,5-8.1,7.1
			C125.3,248.2,119.8,249.8,114.4,249.8z M97.3,244.2c1.9,0.7,3.9,1.3,5.8,1.8c5,1.3,8.4,1.7,10.3,1.7c5.3,0.2,10.9-1.3,16.2-4.3
			c2.7-2,5.4-4.3,7.8-6.8c2.8-3,4.6-5.6,7.2-9.2c2.2-3.2,4.4-6.5,6.4-9.9c-5.2-0.9-10.4-1.6-15.5-2.1l0,0c-7-0.7-9.5-0.5-11.4-0.2
			c-3.8,0.5-7.6,1.6-11.1,3.3c-4.9,3-11.4,8.7-14.3,18.5C98,239.3,97.5,241.8,97.3,244.2z"/>
	</g>
	<g id="XMLID_1967_">
		<path id="XMLID_1976_" fill="#FFD241" d="M107,204.2c-3-3.1-7.1-7.2-12.4-11.8c-1.9,5-3.3,9.3-4.2,12.5c-1.3,4.5-2.2,7.4-2.7,11.5
			c-0.6,4.4-0.6,8-0.4,10.6c1.3,8.5,5,13.5,6.9,15.8c2.9,3.4,6.9,6.4,8,7.1c2.2,1.7,4.3,2.9,5.8,3.8c1.8-1.7,3.7-3.7,5.4-6.2
			c6.6-9.6,6.1-19.2,5.6-23.5c-0.6-2.8-1.9-6.7-4.5-11C113.3,211.3,111.7,209.2,107,204.2z"/>
		<path id="XMLID_1968_" fill="#FAB61F" d="M108,255l-0.6-0.4c-2-1.2-4-2.5-5.9-3.9c-4.3-3.2-6.8-5.7-8.1-7.3
			c-3.7-4.3-6.2-9.9-7.2-16.3c-0.2-3.7-0.1-7.3,0.4-10.9c0.6-4.2,1.5-7.3,2.7-11.6c1.2-4.2,2.7-8.4,4.3-12.6l0.5-1.3l1,0.9
			c4.4,3.8,8.6,7.8,12.5,11.8c4.5,4.7,6.2,7,7.5,9.1c2.1,3.5,3.7,7.3,4.6,11.3c0.8,6.2,0.4,15.3-5.7,24.2c-1.6,2.3-3.4,4.4-5.5,6.4
			L108,255z M95,194.1c-1.4,3.7-2.6,7.5-3.7,11.2c-1.2,4.2-2.1,7.3-2.7,11.3c-0.5,3.5-0.6,7-0.4,10.4c0.9,5.9,3.2,11.2,6.7,15.2
			c1.3,1.5,3.7,3.9,7.8,7c1.6,1.2,3.3,2.3,5.1,3.4c1.8-1.7,3.4-3.6,4.8-5.6c5.8-8.4,6.2-17.1,5.4-22.8c-0.8-3.7-2.3-7.3-4.3-10.6
			c-1-1.6-2.4-3.7-7.3-8.7l0,0C102.7,201.2,98.9,197.6,95,194.1z"/>
	</g>
	<g id="XMLID_1955_">
		<path id="XMLID_1964_" fill="#FFD241" d="M127.7,231c4.3-0.1,10.1-0.1,17.1,0.4c-2.2,4.9-4.2,8.9-5.8,11.9
			c-2.2,4.1-3.7,6.8-6.2,10c-2.7,3.5-5.2,6.1-7.2,7.8c-6.9,5.1-13.1,6.1-16.1,6.3c-4.4,0.3-9.4-0.4-10.7-0.6
			c-2.8-0.4-5.1-0.9-6.8-1.4c-0.1-2.5,0-5.3,0.5-8.2c2.1-11.4,9.1-17.9,12.6-20.6c2.4-1.5,6.1-3.5,10.9-4.6
			C118.2,231.5,120.8,231.1,127.7,231z"/>
		<path id="XMLID_1956_" fill="#FAB61F" d="M107.1,268.5c-2.1,0-4.8-0.2-8.4-0.7c-2.3-0.3-4.6-0.8-6.9-1.4l-0.7-0.2l0-0.7
			c-0.1-2.9,0.1-5.7,0.6-8.4c1.9-10.7,8.1-17.4,12.9-21.2c3.5-2.2,7.3-3.8,11.3-4.8c2.4-0.6,5.2-1,11.7-1.1l0,0
			c5.6-0.1,11.4,0,17.2,0.4l1.3,0.1l-0.5,1.2c-1.8,4.1-3.8,8.1-5.9,11.9c-2.1,3.9-3.7,6.8-6.2,10.2c-2.2,2.9-4.6,5.6-7.3,8
			c-5.2,3.9-10.9,6.1-16.6,6.6C109,268.4,108.1,268.5,107.1,268.5z M93.1,264.8c2,0.5,4,0.9,6,1.2c5.1,0.7,8.5,0.7,10.5,0.6
			c5.3-0.4,10.7-2.5,15.6-6.1c2.5-2.3,4.9-4.8,7-7.7c2.5-3.3,4-6.1,6.1-9.9c1.9-3.4,3.6-6.9,5.2-10.6c-5.3-0.3-10.5-0.4-15.7-0.3
			l0,0c-7,0.1-9.5,0.6-11.3,1.1c-3.8,0.9-7.3,2.4-10.6,4.5c-4.5,3.5-10.3,9.9-12.2,20C93.2,259.8,93,262.3,93.1,264.8z"/>
	</g>
	<g id="XMLID_1943_">
		<path id="XMLID_1952_" fill="#FFD241" d="M97.8,223.8c-3.4-2.7-8-6.2-13.9-10.1c-1.3,5.2-2,9.6-2.6,13c-0.7,4.6-1.2,7.7-1.2,11.7
			c0,4.4,0.5,8,1,10.6c2.4,8.3,6.7,12.8,9,14.8c3.3,2.9,7.7,5.4,8.8,6c2.4,1.4,4.6,2.3,6.2,3c1.6-1.9,3.2-4.2,4.5-6.9
			c5.3-10.3,3.6-19.8,2.5-24c-1-2.7-2.7-6.4-5.9-10.3C105,230,103.2,228.1,97.8,223.8z"/>
		<path id="XMLID_1944_" fill="#FAB61F" d="M105.5,274l-0.6-0.3c-2.2-0.9-4.3-1.9-6.3-3.1c-4.6-2.6-7.5-4.8-9-6.1
			c-4.3-3.8-7.5-9-9.2-15.2c-0.7-3.6-1-7.2-1-10.9c0-4.2,0.5-7.4,1.2-11.9c0.7-4.3,1.5-8.7,2.6-13.1l0.3-1.3l1.1,0.7
			c4.8,3.2,9.5,6.6,13.9,10.1h0c5.1,4.1,7.1,6.1,8.7,8c2.6,3.2,4.6,6.7,6,10.6c1.6,6,2.4,15.1-2.5,24.8c-1.2,2.4-2.8,4.8-4.7,7
			L105.5,274z M84.6,215.3c-0.9,3.9-1.6,7.8-2.2,11.6c-0.7,4.4-1.1,7.5-1.2,11.6c0,3.5,0.3,7,0.9,10.4c1.7,5.7,4.7,10.7,8.7,14.2
			c1.5,1.3,4.2,3.4,8.7,5.9c1.8,1,3.6,1.9,5.5,2.7c1.6-2,2.9-4,4-6.1c4.7-9.1,3.9-17.7,2.4-23.4c-1.3-3.6-3.2-6.9-5.7-9.9
			c-1.2-1.5-2.9-3.3-8.4-7.7h0C93.2,221.4,89,218.3,84.6,215.3z"/>
	</g>
	<g id="XMLID_1931_">
		<path id="XMLID_1940_" fill="#FFD241" d="M121.7,247.9c4.3-0.7,10-1.4,17-1.9c-1.5,5.2-3,9.4-4.2,12.5c-1.7,4.3-2.8,7.2-4.8,10.8
			c-2.2,3.9-4.4,6.8-6.1,8.7c-6.2,6-12.2,7.8-15.1,8.4c-4.3,0.9-9.4,0.9-10.7,0.8c-2.8,0-5.2-0.3-6.9-0.5c-0.4-2.4-0.7-5.2-0.5-8.2
			c0.6-11.6,6.7-19,9.8-22.1c2.2-1.8,5.6-4.2,10.2-6C112.4,249.7,114.9,248.9,121.7,247.9z"/>
		<path id="XMLID_1932_" fill="#FAB61F" d="M98.8,288.2c-0.3,0-0.6,0-0.9,0c-2.3,0-4.7-0.2-7-0.5l-0.7-0.1l-0.1-0.7
			c-0.5-2.8-0.7-5.7-0.6-8.4c0.5-10.8,5.7-18.3,10-22.7c3.2-2.7,6.7-4.8,10.5-6.2c1.9-0.7,4.3-1.5,11.5-2.6h0
			c5.6-0.9,11.3-1.5,17.1-1.9l1.3-0.1l-0.4,1.3c-1.3,4.3-2.7,8.5-4.2,12.6c-1.6,4.2-2.8,7.2-4.8,10.9c-1.8,3.2-3.9,6.2-6.2,8.9
			c-4.7,4.5-10,7.5-15.6,8.7C106.8,287.7,103.6,288.2,98.8,288.2z M91.8,285.9c2,0.2,4.1,0.4,6.1,0.4c5.1,0.1,8.5-0.4,10.5-0.8
			c5.2-1.1,10.3-3.9,14.6-8.1c2.2-2.6,4.2-5.4,5.9-8.5c2-3.6,3.1-6.5,4.7-10.6c1.4-3.6,2.7-7.4,3.8-11.2c-5.3,0.4-10.5,1-15.6,1.7h0
			c-7,1.1-9.3,1.8-11.1,2.5c-3.6,1.4-7,3.4-9.9,5.9c-4,4.1-8.9,11.2-9.4,21.4C91.3,281,91.4,283.4,91.8,285.9z"/>
	</g>
	<g id="XMLID_1919_">
		<path id="XMLID_1928_" fill="#FFD241" d="M91.1,244.3c-3.7-2.2-8.8-5-15.1-8.1c-0.5,5.3-0.7,9.8-0.8,13.2
			c-0.1,4.6-0.1,7.7,0.4,11.8c0.6,4.4,1.6,7.9,2.4,10.4c3.5,7.9,8.4,11.7,10.9,13.4c3.7,2.5,8.4,4.3,9.6,4.7c2.6,1,4.9,1.7,6.6,2.1
			c1.3-2.1,2.6-4.6,3.6-7.4c3.8-11,0.8-20.1-0.8-24.1c-1.3-2.5-3.6-6-7.2-9.4C99,249.4,97,247.8,91.1,244.3z"/>
		<path id="XMLID_1920_" fill="#FAB61F" d="M105.5,292.9l-0.7-0.2c-2.3-0.6-4.5-1.3-6.7-2.2c-4.9-1.9-8-3.7-9.8-4.8
			c-4.7-3.2-8.6-7.9-11.2-13.8c-1.2-3.5-2-7-2.5-10.6c-0.6-4.2-0.5-7.4-0.4-11.9c0.1-4.4,0.3-8.8,0.8-13.3l0.1-1.3l1.2,0.6
			c5.2,2.5,10.3,5.2,15.2,8.1l0,0c5.6,3.3,7.9,5,9.7,6.7c3,2.8,5.5,6,7.4,9.6c2.4,5.7,4.5,14.7,0.9,24.9c-0.9,2.6-2.1,5.2-3.7,7.6
			L105.5,292.9z M76.8,237.7c-0.4,3.9-0.6,7.9-0.6,11.8c-0.1,4.4-0.1,7.6,0.4,11.6c0.5,3.5,1.3,6.9,2.4,10.2
			c2.4,5.4,6.1,9.9,10.5,12.9c1.6,1.1,4.6,2.8,9.4,4.7c1.9,0.7,3.8,1.4,5.8,1.9c1.3-2.1,2.3-4.4,3.1-6.6c3.4-9.7,1.4-18.1-0.8-23.5
			c-1.8-3.3-4.2-6.4-7-9.1c-1.4-1.3-3.3-2.9-9.3-6.5l0,0C86.2,242.5,81.5,240,76.8,237.7z"/>
	</g>
	<g id="XMLID_1907_">
		<path id="XMLID_1916_" fill="#FFD241" d="M118.1,265.8c4.1-1.2,9.7-2.8,16.6-4.2c-0.8,5.3-1.7,9.7-2.4,13c-1,4.5-1.8,7.5-3.2,11.3
			c-1.6,4.1-3.4,7.3-4.8,9.5c-5.3,6.8-11,9.4-13.8,10.4c-4.2,1.5-9.2,2.1-10.4,2.3c-2.8,0.4-5.2,0.5-6.9,0.5
			c-0.8-2.4-1.4-5.1-1.7-8.1c-1.1-11.5,4-19.7,6.6-23.2c1.9-2.1,4.9-5,9.3-7.4C109.1,268.9,111.5,267.8,118.1,265.8z"/>
		<path id="XMLID_1908_" fill="#FAB61F" d="M92.4,309.5l-0.2-0.7c-0.9-2.7-1.5-5.5-1.7-8.3c-1-10.8,3.1-18.9,6.8-23.9
			c2.8-3.1,6-5.7,9.6-7.6c2.2-1.2,4.7-2.3,11-4.2c5.4-1.6,11-3,16.7-4.2l1.3-0.3l-0.2,1.3c-0.6,4.4-1.5,8.8-2.5,13.1
			c-1,4.4-1.7,7.5-3.3,11.5c-1.3,3.4-3,6.6-4.9,9.6c-4,5.1-8.9,8.8-14.3,10.8c-1.9,0.7-5.4,1.7-10.6,2.4c-2.3,0.3-4.7,0.5-7,0.5
			L92.4,309.5z M133.5,262.8c-5.2,1.1-10.3,2.4-15.2,3.9l0,0c-6.8,2-9,3.1-10.6,4c-3.4,1.9-6.4,4.3-9,7.2
			c-3.4,4.6-7.3,12.3-6.4,22.5c0.2,2.4,0.7,4.8,1.4,7.2c2-0.1,4.1-0.2,6.1-0.5c5.1-0.7,8.4-1.6,10.2-2.3c5-1.8,9.6-5.3,13.4-10.1
			c1.8-2.8,3.4-6,4.7-9.2c1.5-3.8,2.2-6.9,3.2-11.2C132.2,270.6,132.9,266.7,133.5,262.8z"/>
	</g>
	<g id="XMLID_1895_">
		<path id="XMLID_1904_" fill="#FFD241" d="M87,267c-4-1.6-9.5-3.6-16.2-5.6c0.3,5.4,0.8,9.8,1.3,13.2c0.6,4.6,1.1,7.7,2.2,11.6
			c1.2,4.2,2.8,7.6,4,9.9c4.7,7.2,10.1,10.3,12.8,11.6c4,1.9,8.9,2.9,10.2,3.2c2.7,0.6,5.1,0.9,6.8,1.1c1-2.3,1.8-4.9,2.4-7.9
			c2.1-11.4-2.3-20-4.5-23.7c-1.7-2.3-4.5-5.4-8.6-8.2C95.6,270.8,93.4,269.5,87,267z"/>
		<path id="XMLID_1896_" fill="#FAB61F" d="M108.8,312.8l-0.7-0.1c-2.3-0.2-4.7-0.6-6.9-1.1c-5.2-1.1-8.5-2.4-10.4-3.3
			c-5.2-2.4-9.7-6.5-13.2-11.9c-1.7-3.2-3-6.6-4.1-10.1c-1.2-4.1-1.6-7.3-2.3-11.7c-0.6-4.3-1-8.8-1.3-13.2l-0.1-1.4l1.3,0.4
			c5.6,1.7,11,3.6,16.2,5.7l0,0c6.7,2.7,8.9,4,10.6,5.2c3.4,2.3,6.3,5.1,8.8,8.4c3.3,5.3,6.7,13.8,4.7,24.5
			c-0.5,2.7-1.3,5.4-2.4,8.1L108.8,312.8z M71.9,262.7c0.3,4,0.7,7.9,1.2,11.7c0.6,4.4,1.1,7.5,2.2,11.4c1,3.4,2.3,6.6,3.9,9.7
			c3.2,5,7.5,8.9,12.4,11.1c1.8,0.8,5,2.1,10,3.1c2,0.4,4,0.8,6,1c0.9-2.3,1.6-4.7,2-7c1.8-10.1-1.4-18.1-4.4-23.1
			c-2.3-3-5.1-5.7-8.3-7.9c-1.6-1.1-3.7-2.3-10.2-5C81.9,266,76.9,264.2,71.9,262.7z"/>
	</g>
	<g id="XMLID_1883_">
		<path id="XMLID_1892_" fill="#FFD241" d="M117,282.6c4-1.7,9.4-3.8,16-6c-0.2,5.4-0.6,9.8-1,13.2c-0.5,4.6-0.9,7.7-2,11.6
			c-1.2,4.3-2.6,7.6-3.7,10c-4.5,7.3-9.9,10.5-12.6,11.8c-4,2-8.9,3.1-10.1,3.4c-2.7,0.7-5.1,1-6.8,1.2c-1-2.3-1.9-4.9-2.6-7.8
			c-2.3-11.4,1.8-20,4-23.8c1.7-2.3,4.3-5.5,8.4-8.4C108.4,286.6,110.6,285.3,117,282.6z"/>
		<path id="XMLID_1884_" fill="#FAB61F" d="M96.2,328.9l-0.3-0.6c-1.2-2.6-2.1-5.3-2.6-8c-2.2-10.6,1-19.2,4.1-24.5
			c2.4-3.4,5.3-6.3,8.7-8.7c1.6-1.2,3.8-2.6,10.5-5.4h0c5.2-2.2,10.6-4.2,16.1-6l1.3-0.4l0,1.4c-0.2,4.5-0.5,8.9-1,13.3
			c-0.5,4.5-0.9,7.7-2,11.7c-0.9,3.5-2.2,6.9-3.8,10.1c-3.4,5.5-7.9,9.8-13,12.3c-1.9,0.9-5.2,2.3-10.3,3.5c-2.2,0.5-4.6,1-6.9,1.3
			L96.2,328.9z M117.3,283.4c-6.5,2.8-8.6,4.1-10.1,5.2c-3.2,2.2-5.9,5-8.2,8.1c-2.9,4.9-5.9,13-3.9,23.1c0.5,2.3,1.2,4.7,2.2,7
			c2-0.3,4-0.7,6-1.1c5-1.2,8.2-2.5,9.9-3.4c4.8-2.4,9-6.3,12.2-11.5c1.5-3,2.7-6.3,3.6-9.7c1.1-3.9,1.4-7.1,2-11.5
			c0.5-3.8,0.8-7.8,0.9-11.7C127,279.6,122,281.4,117.3,283.4L117.3,283.4z"/>
	</g>
	<g id="XMLID_1871_">
		<path id="XMLID_1880_" fill="#FFD241" d="M86.2,287.5c-4.2-1.1-9.8-2.5-16.7-3.8c0.9,5.3,1.9,9.7,2.8,12.9c1.2,4.5,2,7.5,3.5,11.2
			c1.7,4.1,3.6,7.2,5.1,9.4c5.4,6.6,11.2,9.1,14,10c4.2,1.4,9.2,1.9,10.5,2c2.8,0.3,5.2,0.3,6.9,0.3c0.7-2.4,1.3-5.1,1.5-8.1
			c0.8-11.6-4.5-19.6-7.2-23.1c-2-2.1-5-4.8-9.5-7.1C95.2,290.4,92.8,289.3,86.2,287.5z"/>
		<path id="XMLID_1872_" fill="#FAB61F" d="M111.7,330.6c-2.1,0-4.3-0.1-6.4-0.3c-5.3-0.5-8.7-1.4-10.7-2.1
			c-5.4-1.8-10.4-5.4-14.5-10.3c-2-3-3.8-6.2-5.2-9.6c-1.6-3.9-2.5-7-3.6-11.4c-1.1-4.2-2-8.6-2.8-13l-0.2-1.3l1.3,0.2
			c5.7,1,11.4,2.3,16.8,3.8l0,0c6.3,1.7,8.9,2.8,11.1,3.9c3.6,1.9,6.9,4.4,9.7,7.3c3.8,4.9,8.2,12.9,7.5,23.8
			c-0.2,2.7-0.7,5.5-1.5,8.3l-0.2,0.7l-0.7,0C112.1,330.6,111.9,330.6,111.7,330.6z M70.7,284.9c0.7,3.9,1.5,7.8,2.5,11.5
			c1.1,4.3,1.9,7.3,3.5,11.1c1.4,3.2,3,6.3,5,9.2c3.8,4.6,8.5,8,13.6,9.7c1.9,0.6,5.2,1.5,10.3,2c2,0.2,4,0.3,6.1,0.3
			c0.7-2.4,1.1-4.8,1.2-7.2c0.7-10.2-3.4-17.8-7-22.4c-2.6-2.7-5.7-5.1-9.1-6.9c-1.7-0.9-3.9-1.9-10.7-3.8
			C81,287.1,75.9,285.9,70.7,284.9z"/>
	</g>
	<g id="XMLID_1859_">
		<path id="XMLID_1868_" fill="#FFD241" d="M118.1,300c3.7-2.2,8.8-5,15.1-8c0.5,5.3,0.7,9.8,0.7,13.2c0,4.6,0.1,7.7-0.5,11.8
			c-0.6,4.4-1.6,7.9-2.4,10.3c-3.5,7.8-8.4,11.7-11,13.3c-3.7,2.4-8.4,4.2-9.6,4.7c-2.6,1-4.9,1.7-6.6,2.1c-1.3-2.1-2.6-4.6-3.5-7.4
			c-3.7-11-0.7-20.1,1-24.1c1.4-2.5,3.6-6,7.3-9.4C110.1,305.1,112.2,303.4,118.1,300z"/>
		<path id="XMLID_1860_" fill="#FAB61F" d="M103.4,348.5l-0.4-0.6c-1.5-2.5-2.7-5-3.6-7.6c-3.5-10.3-1.4-19.2,1-24.8
			c2-3.7,4.5-6.9,7.5-9.7c1.8-1.7,4.1-3.4,9.7-6.7c4.8-2.8,10-5.5,15.2-8l1.2-0.6l0.1,1.3c0.4,4.5,0.6,8.9,0.7,13.3
			c0,4.5,0.1,7.7-0.5,11.9c-0.5,3.6-1.3,7.1-2.5,10.5c-2.7,5.9-6.6,10.7-11.3,13.8c-1.7,1.1-4.8,2.9-9.8,4.8
			c-2.2,0.8-4.4,1.5-6.7,2.1L103.4,348.5z M132.4,293.4c-4.8,2.3-9.4,4.8-13.8,7.4l0,0c-6.1,3.6-8,5.1-9.4,6.4
			c-2.8,2.6-5.2,5.7-7.1,9.1c-2.2,5.3-4.2,13.7-0.9,23.4c0.8,2.3,1.8,4.5,3.1,6.6c2-0.5,3.9-1.2,5.8-1.9c4.8-1.8,7.8-3.5,9.4-4.6
			c4.5-2.9,8.1-7.4,10.6-12.9c1.1-3.2,1.9-6.6,2.4-10.1c0.6-4,0.5-7.2,0.5-11.6C132.9,301.3,132.7,297.4,132.4,293.4z"/>
	</g>
	<g id="XMLID_1847_">
		<path id="XMLID_1856_" fill="#FFD241" d="M87.9,309.2c-4.3-0.5-10.1-1-17.1-1.3c1.7,5.1,3.3,9.3,4.6,12.4c1.8,4.3,3,7.1,5.2,10.6
			c2.3,3.8,4.6,6.6,6.4,8.5c6.4,5.8,12.4,7.3,15.4,7.8c4.4,0.8,9.4,0.5,10.7,0.5c2.8-0.1,5.2-0.4,6.9-0.7c0.3-2.4,0.5-5.2,0.3-8.2
			c-0.9-11.6-7.4-18.7-10.5-21.7c-2.3-1.8-5.7-4-10.4-5.7C97.2,310.7,94.7,310,87.9,309.2z"/>
		<path id="XMLID_1848_" fill="#FAB61F" d="M109.8,348.7c-3.5,0-6-0.3-7.6-0.6c-5.6-1-11.1-3.8-15.8-8.1c-2.5-2.7-4.7-5.6-6.5-8.7
			c-2.2-3.6-3.5-6.6-5.2-10.7c-1.7-4-3.3-8.2-4.7-12.5l-0.4-1.3l1.4,0c5.8,0.2,11.6,0.6,17.2,1.3h0c7.2,0.9,9.7,1.6,11.6,2.2
			c3.9,1.3,7.4,3.3,10.7,5.8c4.5,4.3,10,11.6,10.9,22.4c0.2,2.7,0.1,5.6-0.3,8.4l-0.1,0.7l-0.7,0.1c-2.3,0.4-4.7,0.6-7,0.7
			C111.9,348.7,110.8,348.7,109.8,348.7z M72.2,308.9c1.3,3.8,2.7,7.5,4.2,11c1.7,4.1,3,7,5.1,10.5c1.8,3,3.9,5.8,6.3,8.4
			c4.4,4,9.6,6.6,14.8,7.6c1.9,0.3,5.3,0.7,10.5,0.5c2-0.1,4.1-0.3,6.1-0.6c0.3-2.5,0.4-4.9,0.2-7.3c-0.8-10.2-6-17.1-10.2-21.1
			c-3-2.3-6.4-4.2-10.1-5.5c-1.8-0.6-4.2-1.3-11.2-2.1C82.7,309.5,77.4,309.1,72.2,308.9z"/>
	</g>
	<g id="XMLID_1835_">
		<path id="XMLID_1844_" fill="#FFD241" d="M121.1,316.6c3.5-2.6,8.2-5.9,14.2-9.6c1.1,5.3,1.7,9.7,2.1,13.1
			c0.6,4.6,0.9,7.7,0.8,11.8c-0.1,4.4-0.7,8-1.3,10.6c-2.7,8.2-7.1,12.5-9.4,14.5c-3.4,2.8-7.9,5.1-9,5.7c-2.5,1.3-4.7,2.2-6.3,2.8
			c-1.5-2-3-4.3-4.3-7c-4.9-10.5-2.9-19.9-1.7-24.1c1.1-2.6,2.9-6.3,6.2-10.1C113.7,322.6,115.6,320.7,121.1,316.6z"/>
		<path id="XMLID_1836_" fill="#FAB61F" d="M111.8,366.5l-0.4-0.6c-1.8-2.3-3.3-4.7-4.4-7.2c-4.6-9.8-3.5-18.9-1.7-24.8
			c1.6-3.9,3.7-7.4,6.4-10.4c1.6-1.9,3.7-3.8,8.9-7.7l0,0c4.5-3.4,9.3-6.6,14.2-9.6l1.2-0.7l0.3,1.3c0.9,4.4,1.6,8.8,2.1,13.1
			c0.5,4.5,0.9,7.7,0.8,11.9c-0.1,3.6-0.5,7.2-1.3,10.7c-2,6.2-5.4,11.3-9.7,15c-1.6,1.3-4.5,3.4-9.2,5.8c-2.1,1.1-4.2,2-6.4,2.8
			L111.8,366.5z M121.6,317.4c-5.7,4.2-7.4,6-8.6,7.4c-2.5,2.9-4.6,6.2-6,9.8c-1.6,5.5-2.7,14.1,1.7,23.3c1,2.2,2.3,4.3,3.8,6.3
			c1.9-0.7,3.8-1.6,5.6-2.5c4.6-2.3,7.3-4.3,8.9-5.6c4.1-3.4,7.3-8.3,9.1-14c0.7-3.3,1.2-6.8,1.3-10.3c0.1-4.1-0.3-7.2-0.8-11.6
			c-0.5-3.8-1.1-7.7-1.8-11.6C130.1,311.4,125.8,314.3,121.6,317.4L121.6,317.4z"/>
	</g>
	<g id="XMLID_1823_">
		<path id="XMLID_1832_" fill="#FFD241" d="M92.3,329.2c-4.3-0.1-10.1,0-17.1,0.5c2.2,4.9,4.3,8.9,5.9,11.8c2.3,4.1,3.8,6.8,6.2,10
			c2.7,3.5,5.3,6.1,7.2,7.8c6.9,5.1,13.1,6,16.1,6.2c4.4,0.3,9.4-0.5,10.7-0.7c2.8-0.4,5.1-1,6.8-1.4c0.1-2.5,0-5.3-0.6-8.2
			c-2.2-11.4-9.3-17.9-12.7-20.5c-2.4-1.5-6.1-3.4-10.9-4.6C101.7,329.7,99.1,329.3,92.3,329.2z"/>
		<path id="XMLID_1824_" fill="#FAB61F" d="M112.8,366.6c-0.9,0-1.6,0-2.2-0.1c-5.7-0.4-11.4-2.6-16.6-6.4c-2.7-2.4-5.2-5.1-7.4-8
			c-2.6-3.4-4.1-6.2-6.3-10.1c-2.1-3.8-4.1-7.8-6-11.9l-0.6-1.2l1.3-0.1c5.8-0.4,11.6-0.6,17.2-0.5l0,0c7.2,0.1,9.8,0.6,11.7,1
			c4,0.9,7.7,2.5,11.2,4.7c4.9,3.8,11.2,10.5,13.2,21.1c0.5,2.7,0.7,5.5,0.6,8.4l0,0.7l-0.7,0.2c-2.3,0.6-4.6,1.1-6.9,1.4
			C117.7,366.4,114.9,366.6,112.8,366.6z M76.6,330.6c1.7,3.6,3.4,7.1,5.3,10.5c2.1,3.9,3.7,6.6,6.2,9.9c2.1,2.8,4.5,5.4,7.1,7.7
			c4.8,3.5,10.2,5.6,15.5,6c2,0.1,5.4,0.1,10.5-0.6c2-0.3,4-0.7,6-1.2c0-2.5-0.2-5-0.6-7.3c-1.9-10.1-7.8-16.4-12.4-19.9
			c-3.2-2-6.8-3.5-10.6-4.4c-1.9-0.4-4.3-0.9-11.3-1C87.1,330.1,81.9,330.2,76.6,330.6z"/>
	</g>
	<g id="XMLID_1810_">
		<path id="XMLID_1819_" fill="#FFD241" d="M126.6,335c3-3.1,7.2-7.1,12.6-11.6c1.9,5,3.2,9.3,4.1,12.6c1.2,4.5,2.1,7.5,2.6,11.5
			c0.6,4.4,0.5,8,0.3,10.6c-1.4,8.5-5.1,13.5-7.1,15.7c-2.9,3.3-7,6.3-8.1,7c-2.3,1.6-4.3,2.9-5.8,3.7c-1.8-1.7-3.7-3.8-5.3-6.3
			c-6.5-9.6-5.9-19.2-5.3-23.6c0.7-2.8,1.9-6.7,4.6-10.9C120.2,342,121.8,339.9,126.6,335z"/>
		<path id="XMLID_1811_" fill="#FAB61F" d="M125,385.8l-0.5-0.5c-2.1-2-3.9-4.1-5.5-6.4c-6-9-6.3-18.1-5.5-24.2
			c1-4.1,2.6-7.8,4.7-11.3c1.3-2.1,3.1-4.3,7.6-9v0c3.9-4,8.2-7.9,12.6-11.7l1-0.9l0.5,1.3c1.6,4.2,2.9,8.5,4.1,12.7
			c1.2,4.3,2.1,7.4,2.6,11.6c0.5,3.6,0.6,7.2,0.3,10.8c-1,6.4-3.6,12-7.4,16.3c-1.4,1.5-3.9,4-8.2,7.2c-1.9,1.4-3.9,2.6-5.9,3.8
			L125,385.8z M138.7,325c-4,3.5-7.9,7-11.5,10.7v0c-5,5-6.4,7-7.4,8.6c-2.1,3.3-3.6,6.9-4.5,10.6c-0.8,5.7-0.5,14.3,5.2,22.8
			c1.3,2,2.9,3.9,4.7,5.6c1.8-1,3.5-2.1,5.1-3.3c4.2-3,6.6-5.4,7.9-6.9c3.5-4,5.9-9.3,6.9-15.3c0.2-3.4,0.1-6.9-0.3-10.4
			c-0.5-4.1-1.4-7.1-2.5-11.4C141.3,332.5,140.1,328.7,138.7,325z"/>
	</g>
	<g id="XMLID_1798_">
		<path id="XMLID_1807_" fill="#FFD241" d="M100.1,350.7c-4.3,0.4-10.1,1.2-16.9,2.5c2.7,4.6,5.3,8.3,7.2,11.1
			c2.7,3.8,4.5,6.3,7.3,9.2c3.1,3.2,6,5.4,8.1,6.9c7.5,4.2,13.7,4.4,16.7,4.3c4.4-0.2,9.3-1.5,10.5-1.9c2.7-0.7,4.9-1.6,6.6-2.2
			c-0.2-2.5-0.6-5.2-1.5-8.1c-3.4-11.1-11.3-16.7-15-18.9c-2.6-1.2-6.4-2.7-11.4-3.3C109.6,350.1,107,350,100.1,350.7z"/>
		<path id="XMLID_1799_" fill="#FAB61F" d="M121.3,385.7c-5.3,0-10.8-1.5-15.9-4.5c-3-2.1-5.8-4.5-8.3-7.1c-2.9-3-4.8-5.7-7.4-9.3
			c-2.5-3.5-5-7.3-7.3-11.1l-0.7-1.2l1.3-0.3c5.7-1.1,11.4-1.9,17-2.5c6.5-0.7,9.3-0.6,11.8-0.3c4,0.5,8,1.6,11.7,3.3
			c5.3,3.2,12.3,9.1,15.5,19.5c0.8,2.6,1.3,5.4,1.6,8.3l0.1,0.7l-0.7,0.3c-2.2,0.9-4.4,1.6-6.6,2.2c-5.1,1.4-8.7,1.8-10.7,1.9
			C122.2,385.7,121.8,385.7,121.3,385.7z M84.7,353.9c2.1,3.4,4.2,6.7,6.5,9.8c2.6,3.6,4.4,6.2,7.3,9.1c2.4,2.5,5.1,4.8,7.9,6.8
			c5.2,2.9,10.8,4.4,16.1,4.1c2-0.1,5.4-0.5,10.3-1.8c1.9-0.5,3.9-1.2,5.8-1.9c-0.2-2.5-0.7-4.9-1.4-7.2c-3-9.8-9.6-15.4-14.6-18.4
			c-3.4-1.6-7.2-2.7-11-3.1c-1.9-0.2-4.3-0.4-11.4,0.3l0,0C95.1,352.2,89.9,352.9,84.7,353.9z"/>
	</g>
	<g id="XMLID_1786_">
		<path id="XMLID_1795_" fill="#FFD241" d="M135,352.3c2.5-3.5,6-8.2,10.5-13.5c2.7,4.7,4.6,8.7,6,11.8c1.9,4.2,3.2,7,4.4,10.9
			c1.3,4.2,1.8,7.9,2,10.4c0,8.6-2.9,14.1-4.5,16.7c-2.4,3.8-5.9,7.3-6.8,8.2c-2,2-3.8,3.5-5.1,4.6c-2-1.4-4.2-3.1-6.3-5.3
			c-7.9-8.5-8.9-18-9-22.4c0.2-2.8,0.8-6.9,2.8-11.5C129.9,360.3,131.1,357.9,135,352.3z"/>
		<path id="XMLID_1787_" fill="#FAB61F" d="M141.6,402.7l-0.6-0.4c-2.4-1.6-4.5-3.5-6.4-5.5c-7.4-7.9-9.1-16.9-9.3-23
			c0.3-4.2,1.3-8.2,2.9-11.9c1-2.3,2.3-4.7,6.1-10.1l0,0c3.3-4.6,6.8-9.2,10.6-13.6l0.9-1l0.7,1.2c2.2,3.9,4.3,7.9,6.1,11.8
			c1.9,4.1,3.2,7,4.4,11.1c1,3.5,1.7,7.1,2.1,10.6c0,6.5-1.6,12.4-4.6,17.3c-1.1,1.7-3.2,4.6-6.9,8.4c-1.6,1.6-3.4,3.2-5.2,4.7
			L141.6,402.7z M135.8,352.9c-4.1,5.7-5.2,8-5.9,9.7c-1.5,3.6-2.4,7.3-2.7,11.2c0.1,5.7,1.8,14.2,8.8,21.7c1.6,1.7,3.5,3.3,5.5,4.8
			c1.6-1.3,3.1-2.7,4.5-4.1c3.6-3.6,5.6-6.4,6.7-8.1c2.9-4.5,4.4-10.1,4.4-16.2c-0.3-3.3-1-6.8-2-10.2c-1.2-3.9-2.5-6.8-4.3-10.8
			c-1.6-3.5-3.4-7-5.3-10.5C142,344.5,138.8,348.7,135.8,352.9L135.8,352.9z"/>
	</g>
	<g id="XMLID_1774_">
		<path id="XMLID_1783_" fill="#FFD241" d="M111.4,372.2c-4.2,1.2-9.7,2.8-16.3,5.3c3.5,4.1,6.6,7.3,9,9.7c3.3,3.3,5.5,5.4,8.8,7.9
			c3.6,2.6,6.8,4.4,9.1,5.5c8.1,2.9,14.3,2.1,17.2,1.5c4.3-0.9,8.9-3.1,10.1-3.6c2.5-1.2,4.6-2.4,6.1-3.3c-0.6-2.4-1.5-5-2.9-7.7
			c-5.2-10.3-13.9-14.6-18-16.1c-2.7-0.8-6.8-1.6-11.8-1.3C120.6,370,118,370.3,111.4,372.2z"/>
		<path id="XMLID_1775_" fill="#FAB61F" d="M133.3,403.5c-3.8,0-7.7-0.7-11.6-2.1c-3.3-1.6-6.4-3.4-9.4-5.6
			c-3.4-2.5-5.7-4.8-8.9-7.9c-3.1-3.1-6.1-6.4-9-9.8l-0.9-1l1.3-0.5c5.4-2,10.9-3.8,16.4-5.3c7-1.9,9.5-2.2,11.6-2.3
			c4.1-0.2,8.1,0.2,12.1,1.4c5.8,2.3,13.6,7,18.5,16.6c1.2,2.4,2.2,5.1,2.9,7.9l0.2,0.7l-0.6,0.4c-2,1.2-4.1,2.3-6.2,3.3
			c-4.8,2.2-8.2,3.2-10.3,3.7C137.4,403.3,135.4,403.5,133.3,403.5z M96.7,377.9c2.6,3,5.3,5.9,8,8.6c3.1,3.1,5.4,5.3,8.7,7.8
			c2.8,2.1,5.8,3.9,9,5.4c5.6,2,11.4,2.5,16.6,1.4c1.9-0.4,5.2-1.4,9.9-3.5c1.8-0.8,3.6-1.8,5.4-2.8c-0.7-2.4-1.5-4.7-2.6-6.8
			c-4.6-9.1-12.1-13.6-17.5-15.7c-3.7-1-7.5-1.5-11.4-1.3c-1.9,0.1-4.4,0.4-11.1,2.2l0,0C106.7,374.4,101.7,376.1,96.7,377.9z"/>
	</g>
	<g id="XMLID_1762_">
		<path id="XMLID_1771_" fill="#FFD241" d="M126.2,392.9c-4,1.7-9.2,4.2-15.4,7.5c4,3.6,7.5,6.3,10.3,8.3c3.7,2.8,6.2,4.6,9.8,6.5
			c3.9,2.1,7.3,3.4,9.8,4.1c8.4,1.8,14.4,0.1,17.2-1c4.2-1.5,8.4-4.3,9.5-5c2.3-1.5,4.2-3,5.6-4.1c-0.9-2.3-2.2-4.8-3.9-7.2
			c-6.6-9.5-15.8-12.5-20-13.5c-2.8-0.4-7-0.6-11.8,0.4C135.1,389.5,132.5,390.1,126.2,392.9z"/>
		<path id="XMLID_1763_" fill="#FAB61F" d="M147.9,421.1c-2.4,0-4.9-0.3-7.4-0.8c-3.5-1.1-6.8-2.5-10-4.2c-3.7-2-6.3-3.9-9.9-6.6
			c-3.5-2.6-7-5.4-10.3-8.4l-1-0.9l1.2-0.6c5.1-2.8,10.3-5.3,15.5-7.6c6-2.6,8.7-3.4,11.1-3.9c4-0.8,8.1-0.9,12.1-0.4
			c6.1,1.4,14.5,5,20.7,13.9c1.6,2.3,2.9,4.7,4,7.4l0.3,0.6l-0.5,0.4c-1.8,1.5-3.7,2.9-5.7,4.1c-4.4,2.9-7.7,4.4-9.6,5.1
			C155,420.5,151.5,421.1,147.9,421.1z M112.5,400.6c3,2.6,6.1,5.1,9.2,7.4c3.5,2.6,6.1,4.5,9.7,6.5c3.1,1.7,6.3,3,9.6,4.1
			c5.8,1.2,11.6,0.9,16.6-1c1.9-0.7,5-2.1,9.3-4.9c1.7-1.1,3.3-2.3,4.9-3.6c-1-2.3-2.2-4.4-3.5-6.4c-5.9-8.4-13.8-11.7-19.5-13.1
			c-3.8-0.5-7.6-0.4-11.4,0.4c-1.9,0.4-4.3,1-10.7,3.8l0,0C121.9,395.8,117.2,398.1,112.5,400.6z"/>
	</g>
	<g id="XMLID_1750_">
		<path id="XMLID_1759_" fill="#FFD241" d="M146.9,369.7c2-3.8,4.9-8.9,8.7-14.8c3.2,4.3,5.7,8,7.5,10.9c2.5,3.9,4.1,6.5,5.8,10.3
			c1.8,4,2.8,7.6,3.4,10.1c1.1,8.5-1,14.4-2.3,17.1c-1.9,4-4.9,8-5.7,9c-1.7,2.2-3.3,4-4.5,5.2c-2.2-1.1-4.6-2.6-6.9-4.5
			c-9-7.4-11.2-16.7-11.9-21c-0.2-2.9-0.1-7,1.3-11.8C142.8,378.2,143.7,375.8,146.9,369.7z"/>
		<path id="XMLID_1751_" fill="#FAB61F" d="M160,418.7l-0.6-0.3c-2.6-1.3-5-2.8-7.1-4.6c-8.4-6.9-11.3-15.6-12.2-21.6
			c-0.2-4.2,0.2-8.3,1.3-12.2c0.7-2.4,1.7-5,4.7-10.8l0,0c2.6-5,5.6-10,8.7-14.8l0.7-1.1l0.8,1.1c2.7,3.6,5.2,7.3,7.6,10.9
			c2.4,3.8,4.1,6.5,5.8,10.4c1.5,3.3,2.6,6.8,3.4,10.3c0.9,6.4,0,12.5-2.4,17.7c-0.9,1.9-2.6,5-5.8,9.2c-1.4,1.8-2.9,3.6-4.6,5.3
			L160,418.7z M147.8,370.1c-3.3,6.2-4.1,8.6-4.6,10.4c-1,3.7-1.5,7.6-1.2,11.5c0.9,5.6,3.6,13.8,11.5,20.4c1.8,1.5,3.9,2.9,6.1,4
			c1.4-1.5,2.7-3.1,3.9-4.7c3.1-4.1,4.8-7.1,5.6-8.9c2.2-4.8,3-10.6,2.2-16.6c-0.8-3.3-1.9-6.6-3.3-9.8c-1.7-3.7-3.4-6.4-5.7-10.2
			c-2.1-3.3-4.3-6.5-6.7-9.7C152.8,361.1,150.2,365.6,147.8,370.1L147.8,370.1z"/>
	</g>
	<g id="XMLID_1607_">
		<path id="XMLID_1738_" fill="#E3473E" d="M287.7,320.1h59.6l-7.2-31.4c-0.7-3-2.8-5.6-5.7-6.7c-8-3.3-17.8-6.5-29-8.8
			c-7.3-1.5-14.1-2.4-20.4-2.9l2.7,16.6l0.1,0v0.8l1.1,7l-1.1,0.2V320.1z"/>
		<path id="XMLID_1735_" fill="#E3473E" d="M268.2,306.7l7.8,11.8c0,0-16.4,0.4-16.6,0.4c-0.2,0-12.9-1.6-12.9-1.6L268.2,306.7z"/>
		<g id="XMLID_1731_">
			<path id="XMLID_1734_" fill="#D5463A" d="M318.7,291.8h-1.6c-0.2,0-0.4-0.2-0.4-0.4v-11.6c0-0.2,0.2-0.4,0.4-0.4h1.6
				c0.2,0,0.4,0.2,0.4,0.4v11.6C319.1,291.7,319,291.8,318.7,291.8z"/>
			<path id="XMLID_1733_" fill="#D5463A" d="M325.4,293.8h-1.6c-0.2,0-0.4-0.2-0.4-0.4v-11.6c0-0.2,0.2-0.4,0.4-0.4h1.6
				c0.2,0,0.4,0.2,0.4,0.4v11.6C325.8,293.6,325.6,293.8,325.4,293.8z"/>
			<path id="XMLID_1732_" fill="#D5463A" d="M331.6,296.4h-1.6c-0.2,0-0.4-0.2-0.4-0.4v-11.6c0-0.2,0.2-0.4,0.4-0.4h1.6
				c0.2,0,0.4,0.2,0.4,0.4V296C332,296.2,331.8,296.4,331.6,296.4z"/>
		</g>
		<g id="XMLID_1713_">
			<g id="XMLID_108_">
				<path fill="#E3473E" d="M283.4,296.1l-4.3-26.3c-4-0.1-7.7-0.1-11,0c-23.9,0-47.7,0-71.6,0v50.2h88.3c0-5.2,0-16.1,0-24.2
					L283.4,296.1z M268.8,316.9h-55.6v-46.1h53.9l1.7,5.9V316.9z"/>
			</g>
			<polygon id="XMLID_104_" fill="#C8473D" points="213.1,275.6 218.7,321.4 273.9,314.6 269,274.7 266.5,269 			"/>
		</g>
		<path id="XMLID_1710_" fill="#1E2F3A" d="M289.2,297.2l-2.5-15.5l-5.5-34.3c-0.1-0.6,0.3-1.2,1-1.3l2.5-0.4c1.3-0.2,2.2-1.5,2-2.8
			l-0.6-3.7c-0.2-1.3-1.5-2.2-2.8-2l-7.9,1.3c-0.2,0-0.3,0.1-0.5,0.2c-0.4,0.1-1.5,0.5-2.3,1.7c-0.9,1.3-0.8,2.7-0.7,3l6.1,37.9
			l4.3,26.9l0.4-0.1c0,0,0,0,0,0c0,7.5,0,16.1,0,20.5c0,1.9,0,3.1,0,3.1h6v-3.1v-25.8v-4.5C289,298.2,289.3,297.7,289.2,297.2z"/>
		<path id="XMLID_1707_" fill="#C8473D" d="M346.4,320.5h-18.1c-0.9,0-1.7-0.6-1.9-1.5l-0.8-3.3c-0.3-1.2,0.6-2.4,1.9-2.4h18.2
			c0.9,0,1.7,0.6,1.9,1.5l0.8,3.3C348.6,319.3,347.7,320.5,346.4,320.5z"/>
		<g id="XMLID_1700_">
			<polygon id="XMLID_1704_" fill="#ECECEE" points="260.9,220.5 268.8,276.7 193.6,276.7 204.8,221.7 			"/>
			<path id="XMLID_1701_" fill="#25303A" d="M269.3,277.1H193l11.3-55.9l57-1.3L269.3,277.1z M194.2,276.2h74.1l-7.7-55.2l-55.4,1.2
				L194.2,276.2z"/>
		</g>
		<path id="XMLID_1697_" fill="#1E2F3A" d="M249.7,227.1v9.9c0,2.3,1.9,4.2,4.2,4.2l0,0c2.3,0,4.2-1.9,4.2-4.2v-9.9
			c0-2.3-1.9-4.2-4.2-4.2l0,0C251.6,222.8,249.7,224.7,249.7,227.1z"/>
		<path id="XMLID_1694_" fill="#E3473E" d="M202.3,218.9h62.5c1.6,0,2.6,2.4,1.9,4.4l-0.7,1.8c-0.4,1-1.1,1.6-1.9,1.6h-61.9
			c-1.2,0-2.1-1.3-2.1-3v-1.8C200.2,220.3,201.2,218.9,202.3,218.9z"/>
		<g id="XMLID_1669_">
			<g id="XMLID_1685_">
				<rect id="XMLID_96_" x="244.1" y="327.5" fill="#11181C" width="21.5" height="7"/>
				<rect id="XMLID_88_" x="244.1" y="319.6" fill="#11181C" width="21.5" height="7"/>
				<rect id="XMLID_83_" x="244.1" y="311.6" fill="#11181C" width="21.5" height="7"/>
			</g>
			<g id="XMLID_1670_">
				<polygon id="XMLID_81_" fill="#828588" points="265.6,319.6 265.6,326.6 244.1,326.6 244.1,319.6 243.1,319.6 243.1,326.6 
					243.1,327.5 244.1,327.5 265.6,327.5 266.5,327.5 266.5,326.6 266.5,319.6 				"/>
				<g id="XMLID_1_">
					<polygon id="XMLID_80_" fill="#828588" points="265.6,327.5 265.6,334.5 244.1,334.5 244.1,327.5 243.1,327.5 243.1,335.5 
						266.5,335.5 266.5,327.5 					"/>
					<path id="XMLID_77_" fill="#828588" d="M243.1,310.7v7.9v0.9h0.9h21.5h0.9v-0.9v-7.9H243.1z M265.6,318.6h-21.5v-7h21.5V318.6z
						"/>
				</g>
			</g>
		</g>
		<g id="XMLID_1656_">
			<ellipse id="XMLID_1666_" fill="#21292E" cx="204.3" cy="318.6" rx="38.8" ry="38.8"/>
			<ellipse id="XMLID_1663_" fill="#DEDFE0" cx="204.3" cy="318.6" rx="22.7" ry="22.7"/>
			<ellipse id="XMLID_1660_" fill="#21292E" cx="204.3" cy="318.6" rx="8.9" ry="8.9"/>
			<path id="XMLID_1657_" fill="#E3473E" d="M204.3,279.8c14.4,0,27,7.9,33.7,19.5c0.8,1.5,3.1,0.9,3.1-0.8v-5c0-0.3-0.1-0.7-0.3-1
				c-8.1-11.3-21.4-18.7-36.4-18.7c-15.8,0-29.7,8.2-37.7,20.6c-0.5,0.8-0.3,1.9,0.6,2.4l2.4,1.3c0.7,0.4,1.7,0.2,2.1-0.5
				C178.7,286.8,190.7,279.8,204.3,279.8z"/>
		</g>
		<g id="XMLID_1646_">
			<ellipse id="XMLID_1653_" fill="#21292E" cx="298.7" cy="324.4" rx="32.2" ry="32.2"/>
			<ellipse id="XMLID_1650_" fill="#DEDFE0" cx="298.7" cy="324.4" rx="18.8" ry="18.8"/>
			<ellipse id="XMLID_1647_" fill="#21292E" cx="298.7" cy="324.4" rx="7.4" ry="7.4"/>
		</g>
		<rect id="XMLID_1608_" x="224.3" y="226.7" fill="#4B5760" width="1" height="50.3"/>
	</g>
	<g id="XMLID_1582_">
		<polygon id="XMLID_1600_" fill="#DC4B41" points="353.9,417.3 326.3,359.3 316.6,359.3 342.4,417.3 		"/>
		<path id="XMLID_1597_" fill="#FCE4C3" d="M256,359.3v58h86.4l-25.8-58l-1.3-3c-22.9-4.4-40.1-7.2-46.8-8.2c-1.9-0.3-5.7-0.8-9,1.4
			c-1.8,1.2-2.9,3-3.5,4.3v0.9V359.3z"/>
		<polygon id="XMLID_1592_" fill="#DC4B41" points="168.9,417.3 194.8,359.3 185.7,359.3 185.1,359.3 157.5,417.3 		"/>
		<path id="XMLID_1589_" fill="#FCE4C3" d="M255.3,417.3v-58v-5.5c-0.6-1.4-1.7-3.1-3.5-4.3c-0.5-0.4-1.1-0.6-1.6-0.9
			c-2.8-1.2-5.7-0.8-7.3-0.5c-6.7,1-23.8,3.8-46.8,8.2l-1.3,3l-25.8,58H255.3z"/>
		<polygon id="XMLID_1584_" fill="#F3C291" points="255.3,359.9 255.3,417.9 256,419.9 256,361.9 256,355.3 256,354.4 256,353.9 
			255.3,353.9 255.3,353.9 255.3,354.4 		"/>
	</g>
	<g id="XMLID_661_">
		<g id="XMLID_664_">
			<path id="XMLID_1579_" fill="#C8473D" d="M356.9,407.4c-1.9-2.8-1.9-6.6,2.8-7.6C355,400.8,355,404.6,356.9,407.4
				c2,4,6.8,2.4,8.8-0.9l-4-1.5l2.4-4.8c-1.6-0.6-3.8-0.9-5.4-0.4c1.6-0.5,3.7-0.2,5.4,0.4l29.1-57.5
				c-13.5,10.4-34.6,24.3-63.1,34.5l0,0h0v57.9H356c12.4-6.3,24.7-12.5,37.1-18.8l-27.3-10C363.7,409.8,358.9,411.4,356.9,407.4z"/>
			<path id="XMLID_1570_" fill="#C8473D" d="M118.1,342.7c13.5,10.4,34.6,24.3,63.1,34.5l0,0h0v57.9h-25.8
				c-12.4-6.3-24.7-12.5-37.1-18.8l31.3-11.4L118.1,342.7z"/>
			<path id="XMLID_671_" fill="#973838" d="M356,377.3h-25.8h0v10.6C340.8,384.3,349.5,380.4,356,377.3z"/>
			<path id="XMLID_668_" fill="#973838" d="M181.2,387.9v-10.6h0h-25.8C161.9,380.4,170.6,384.3,181.2,387.9z"/>
			<path id="XMLID_665_" fill="#E3473E" d="M356,402.4c0-8.4,0-16.7,0-25.1c-6.5,3.1-15.2,7-25.8,10.6
				c-19.5,6.7-45.4,12.7-76.2,12.4c-29.2-0.2-53.9-6-72.7-12.4c-10.6-3.6-19.3-7.5-25.8-10.6c0,19.3,0,38.6,0,57.9
				c0,2.6,0,5.1,0,7.7c18.3,8.8,54.1,23.2,101.2,23c46.1-0.2,81.2-14.2,99.4-23c0-2.6,0-5.1,0-7.7c0-9.9,0-19.7,0-29.6l0,0
				L356,402.4L356,402.4z"/>
		</g>
		<g id="XMLID_662_">
			<path fill="#FFFFFF" d="M202.7,418.4h-14v24.4H181v-30.2h21.8V418.4z"/>
			<path fill="#FFFFFF" d="M231.1,418.4h-9.4v24.4h-7.8v-24.4h-9.4v-5.8h26.7V418.4z"/>
			<path fill="#FFFFFF" d="M267.4,442.8h-7.8v-20.2l-5.6,13.1h-5.4l-5.6-13.1v20.2h-7.3v-30.2h9l6.8,15.2l6.8-15.2h9V442.8z"/>
			<path fill="#FFFFFF" d="M303.1,442.8h-8l-2.1-6.1h-11.2l-2.1,6.1h-7.9l11.2-30.2h9L303.1,442.8z M291,431.1l-3.7-10.8l-3.7,10.8
				H291z"/>
			<path fill="#FFFFFF" d="M334,412.5l-11,24.2c-0.6,1.4-1.4,2.5-2.2,3.4s-1.7,1.5-2.6,1.9c-0.9,0.4-1.7,0.7-2.6,0.8
				s-1.7,0.2-2.6,0.2c-0.9,0-2.1,0-3.4-0.1c-1.3,0-2.2-0.1-2.6-0.1v-6.6h0.5c0.3,0.1,0.8,0.2,1.5,0.3c0.7,0.1,1.4,0.1,2.1,0.1
				c1.3,0,2.4-0.1,3.3-0.4c0.8-0.3,1.3-0.6,1.5-1l-12.3-22.6h8.5l7.5,14.3l6.2-14.3H334z"/>
		</g>
	</g>
	<g id="XMLID_6_">
		<path id="XMLID_204_" fill="#25303A" d="M212,172.5c-0.1,0.2-0.2,0.4-0.2,0.6c0,0.1,0,0.2,0,0.3c0,0.4,0.3,0.8,0.6,1
			c0.3,0.3,0.7,0.4,1.1,0.3c0.3,0,0.6-0.2,0.9-0.4l40.8-25.6h0l40.8,25.6c0.2,0.2,0.4,0.2,0.6,0.3c0.1,0,0.2,0.1,0.3,0.1
			c0.4,0.1,0.8-0.1,1.1-0.3c0.3-0.2,0.5-0.6,0.6-1c0.1-0.3,0-0.7-0.2-1l-9.4-31.2l-3.5-11.5l0,0l26.7-16.8l38.2-23.9
			c0.7-0.4,0.9-1.3,0.5-2l-0.1-0.2c-0.3-0.5-0.9-0.8-1.5-0.7h-76.9l0,0l-15.6-51.9c-0.2-0.6-0.7-1-1.3-1v0c-0.8-0.2-1.6,0.2-1.8,1
			L238,86.3l0,0h-76.9c-0.6-0.1-1.2,0.1-1.5,0.7l-0.1,0.2c-0.4,0.7-0.2,1.6,0.5,2l36.8,23.1l0.9,0.6l27.2,17l0,0l-4.4,14.7
			L212,172.5z M227.5,131.4l22.3,14c0,0,0,0,0,0h-26.5c0,0,0,0,0,0L227.5,131.4C227.5,131.4,227.5,131.4,227.5,131.4z M229.9,127.4
			l1.3-1.1l23.9-21.5h0l14.6,13.1l10.3,9.3l0.2,0.2H280H271h-9.9h-22.4h-7.1 M267.7,89.4l-12.6,11.4l0,0l-12.6-11.4c0,0,0,0,0,0
			L267.7,89.4L267.7,89.4z M243.6,86.3l11.4-7.7h0l11.4,7.7c0,0,0,0,0,0L243.6,86.3C243.6,86.3,243.6,86.3,243.6,86.3z M216,169.7
			l6.4-21.2l0,0h27.4c0,0,0,0,0,0L216,169.7C216,169.7,216,169.7,216,169.7z M231.8,130.5L231.8,130.5l39.7,0h7.1l0,0l-6.2,3.9
			l-17.1,10.7h0L231.8,130.5z M294.4,169.7l-33.8-21.2c0,0,0,0,0,0H288l0,0L294.4,169.7C294.4,169.7,294.4,169.7,294.4,169.7z
			 M285.5,140.5l1.5,4.9l0,0h-26.5c0,0,0,0,0,0L274,137l8.8-5.5c0,0,0,0,0,0L285.5,140.5z M321.4,89.4h22.7c0,0,0,0,0,0l-33,20.7
			c0,0,0,0,0,0L321.3,90C321.4,89.8,321.4,89.6,321.4,89.4z M318.1,89.4l-10.6,21.1c0,0,0,0,0,0l-31.3-21.1c0,0,0,0,0,0L318.1,89.4
			C318.1,89.4,318.1,89.4,318.1,89.4z M300.9,109.8l5.1,3.5l0,0l-21.5,13.5c0,0,0,0,0,0l-1.8-5.9L274,91.6c0,0,0,0,0,0L300.9,109.8z
			 M280.4,123.4C280.4,123.4,280.4,123.4,280.4,123.4l-11.3-10.2l-11.7-10.5l0.1-0.1l13.1-11.8c0,0,0,0,0,0L280.4,123.4z M268.5,84
			l-10.7-7.2v0l7.1-4.8c0,0,0,0,0,0L268.5,84C268.5,84,268.5,84,268.5,84z M255.2,39.9l8.8,29l0,0l-8.9,6h0l-8.6-5.8l0,0L255.2,39.9
			C255.2,39.9,255.2,39.9,255.2,39.9z M245.4,72.1l6.8,4.6v0l-10.3,7c0,0,0,0,0,0L245.4,72.1C245.4,72.1,245.4,72.1,245.4,72.1z
			 M239.7,91L239.7,91l12.9,11.6l0.1,0.1L230,123.2c0,0,0,0,0,0l6-19.8L239.7,91z M234.3,89.4L234.3,89.4L203,110.5l-0.2-0.4
			l-10.4-20.7l0,0H234.3z M166.2,89.4H189l0,0l10.5,20.9c0,0,0,0,0,0L166.2,89.4C166.2,89.4,166.2,89.4,166.2,89.4z M204.3,113.3
			C204.3,113.3,204.3,113.3,204.3,113.3l6-4l3-2l23-15.5c0,0,0,0,0,0l-3.7,12.2l-4.5,15l-2.4,7.9c0,0,0,0,0,0L204.3,113.3z"/>
		<path id="XMLID_203_" fill="#25303A" d="M159.3,109.2V86.8c0-0.3,0.2-0.5,0.5-0.5h2.1c0.3,0,0.5,0.2,0.5,0.5v22.5
			c0,0.3-0.2,0.5-0.5,0.5h-2.1C159.5,109.8,159.3,109.5,159.3,109.2z"/>
		<path id="XMLID_201_" fill="#25303A" d="M156,97.6h9.7c0.3,0,0.5,0.2,0.5,0.5v2.1c0,0.3-0.2,0.5-0.5,0.5H156
			c-0.3,0-0.5-0.2-0.5-0.5v-2.1C155.5,97.8,155.7,97.6,156,97.6z"/>
		<path id="XMLID_22_" fill="#25303A" d="M156,102.1h9.7c0.3,0,0.5,0.2,0.5,0.5v2.1c0,0.3-0.2,0.5-0.5,0.5H156
			c-0.3,0-0.5-0.2-0.5-0.5v-2.1C155.5,102.3,155.7,102.1,156,102.1z"/>
		<path id="XMLID_17_" fill="#25303A" d="M156,106.7h9.7c0.3,0,0.5,0.2,0.5,0.5v2.1c0,0.3-0.2,0.5-0.5,0.5H156
			c-0.3,0-0.5-0.2-0.5-0.5v-2.1C155.5,106.9,155.7,106.7,156,106.7z"/>
		<path id="XMLID_13_" fill="#25303A" d="M348,109.2V86.8c0-0.3,0.2-0.5,0.5-0.5h2.1c0.3,0,0.5,0.2,0.5,0.5v22.5
			c0,0.3-0.2,0.5-0.5,0.5h-2.1C348.2,109.8,348,109.5,348,109.2z"/>
		<path id="XMLID_9_" fill="#25303A" d="M344.7,97.6h9.7c0.3,0,0.5,0.2,0.5,0.5v2.1c0,0.3-0.2,0.5-0.5,0.5h-9.7
			c-0.3,0-0.5-0.2-0.5-0.5v-2.1C344.1,97.8,344.4,97.6,344.7,97.6z"/>
		<path id="XMLID_8_" fill="#25303A" d="M344.7,102.1h9.7c0.3,0,0.5,0.2,0.5,0.5v2.1c0,0.3-0.2,0.5-0.5,0.5h-9.7
			c-0.3,0-0.5-0.2-0.5-0.5v-2.1C344.1,102.3,344.4,102.1,344.7,102.1z"/>
		<path id="XMLID_7_" fill="#25303A" d="M344.7,106.7h9.7c0.3,0,0.5,0.2,0.5,0.5v2.1c0,0.3-0.2,0.5-0.5,0.5h-9.7
			c-0.3,0-0.5-0.2-0.5-0.5v-2.1C344.1,106.9,344.4,106.7,344.7,106.7z"/>
	</g>
</g>
</svg>
