<svg xmlns="http://www.w3.org/2000/svg" viewBox="0 0 182.93 138.5"><defs><style>.cls-1{fill:#e3473e;}.cls-2{fill:#d5463a;}.cls-3{fill:#c8473d;}.cls-4{fill:#1e2f3a;}.cls-5{fill:#ececee;}.cls-6{fill:#25303a;}.cls-7{fill:#11181c;}.cls-8{fill:#828588;}.cls-9{fill:#21292e;}.cls-10{fill:#dedfe0;}.cls-11{fill:#4b5760;}</style></defs><title>Ресурс 2</title><g id="Слой_2" data-name="Слой 2"><g id="Слой_1-2" data-name="Слой 1"><g id="_Группа_" data-name="&lt;Группа&gt;"><g id="_Группа_2" data-name="&lt;Группа&gt;"><path id="_Контур_" data-name="&lt;Контур&gt;" class="cls-1" d="M122.2,101.2h59.6l-7.2-31.4a9.42,9.42,0,0,0-5.7-6.7,161.91,161.91,0,0,0-29-8.8,166.51,166.51,0,0,0-20.4-2.9L122.2,68h.1v.8l1.1,7-1.1.2v25.2Z"/><path id="_Контур_2" data-name="&lt;Контур&gt;" class="cls-1" d="M102.7,87.8l7.8,11.8-16.6.4c-.2,0-12.9-1.6-12.9-1.6Z"/><g id="_Группа_3" data-name="&lt;Группа&gt;"><path id="_Контур_3" data-name="&lt;Контур&gt;" class="cls-2" d="M153.2,72.9h-1.6a.43.43,0,0,1-.4-.4V60.9a.43.43,0,0,1,.4-.4h1.6a.43.43,0,0,1,.4.4V72.5C153.6,72.8,153.5,72.9,153.2,72.9Z"/><path id="_Контур_4" data-name="&lt;Контур&gt;" class="cls-2" d="M159.9,74.9h-1.6a.43.43,0,0,1-.4-.4V62.9a.43.43,0,0,1,.4-.4h1.6a.43.43,0,0,1,.4.4V74.5A.43.43,0,0,1,159.9,74.9Z"/><path id="_Контур_5" data-name="&lt;Контур&gt;" class="cls-2" d="M166.1,77.5h-1.6a.43.43,0,0,1-.4-.4V65.5a.43.43,0,0,1,.4-.4h1.6a.43.43,0,0,1,.4.4V77.1A.43.43,0,0,1,166.1,77.5Z"/></g><g id="_Группа_4" data-name="&lt;Группа&gt;"><g id="_Группа_5" data-name="&lt;Группа&gt;"><path class="cls-1" d="M117.9,77.2l-4.3-26.3c-4-.1-7.7-.1-11,0H31v50.2h88.3V76.9ZM103.3,98H47.7V51.9h53.9l1.7,5.9Z"/></g><polygon id="_Контур_6" data-name="&lt;Контур&gt;" class="cls-3" points="47.6 56.7 53.2 102.5 108.4 95.7 103.5 55.8 101 50.1 47.6 56.7"/></g><path id="_Контур_7" data-name="&lt;Контур&gt;" class="cls-4" d="M123.7,78.3l-2.5-15.5-5.5-34.3a1.13,1.13,0,0,1,1-1.3l2.5-.4a2.47,2.47,0,0,0,2-2.8l-.6-3.7a2.47,2.47,0,0,0-2.8-2l-7.9,1.3c-.2,0-.3.1-.5.2a4.3,4.3,0,0,0-3,4.7l6.1,37.9,4.3,26.9.4-.1h0v23.6h6V79.4A1,1,0,0,0,123.7,78.3Z"/><path id="_Контур_8" data-name="&lt;Контур&gt;" class="cls-3" d="M180.9,101.6H162.8a1.93,1.93,0,0,1-1.9-1.5l-.8-3.3a1.94,1.94,0,0,1,1.9-2.4h18.2a1.93,1.93,0,0,1,1.9,1.5l.8,3.3A2.05,2.05,0,0,1,180.9,101.6Z"/><g id="_Группа_6" data-name="&lt;Группа&gt;"><polygon id="_Контур_9" data-name="&lt;Контур&gt;" class="cls-5" points="95.4 1.6 103.3 57.8 28.1 57.8 39.3 2.8 95.4 1.6"/><path id="_Составной_контур_" data-name="&lt;Составной контур&gt;" class="cls-6" d="M103.8,58.2H27.5L38.8,2.3,95.8,1Zm-75.1-.9h74.1L95.1,2.1,39.7,3.3Z"/></g><path id="_Контур_10" data-name="&lt;Контур&gt;" class="cls-4" d="M84.2,8.2v9.9a4.23,4.23,0,0,0,4.2,4.2h0a4.23,4.23,0,0,0,4.2-4.2V8.2A4.23,4.23,0,0,0,88.4,4h0A4.1,4.1,0,0,0,84.2,8.2Z"/><path id="_Контур_11" data-name="&lt;Контур&gt;" class="cls-1" d="M36.8,0H99.3c1.6,0,2.6,2.4,1.9,4.4l-.7,1.8a2.19,2.19,0,0,1-1.9,1.6H36.7c-1.2,0-2.1-1.3-2.1-3V3C34.7,1.4,35.7,0,36.8,0Z"/><g id="_Группа_7" data-name="&lt;Группа&gt;"><g id="_Группа_8" data-name="&lt;Группа&gt;"><rect id="_Контур_12" data-name="&lt;Контур&gt;" class="cls-7" x="78.6" y="108.6" width="21.5" height="7"/><rect id="_Контур_13" data-name="&lt;Контур&gt;" class="cls-7" x="78.6" y="100.7" width="21.5" height="7"/><rect id="_Контур_14" data-name="&lt;Контур&gt;" class="cls-7" x="78.6" y="92.7" width="21.5" height="7"/></g><g id="_Группа_9" data-name="&lt;Группа&gt;"><polygon id="_Контур_15" data-name="&lt;Контур&gt;" class="cls-8" points="100.1 100.7 100.1 107.7 78.6 107.7 78.6 100.7 77.6 100.7 77.6 107.7 77.6 108.6 78.6 108.6 100.1 108.6 101 108.6 101 107.7 101 100.7 100.1 100.7"/><g id="_Группа_10" data-name="&lt;Группа&gt;"><polygon id="_Контур_16" data-name="&lt;Контур&gt;" class="cls-8" points="100.1 108.6 100.1 115.6 78.6 115.6 78.6 108.6 77.6 108.6 77.6 116.6 101 116.6 101 108.6 100.1 108.6"/><path id="_Составной_контур_2" data-name="&lt;Составной контур&gt;" class="cls-8" d="M77.6,91.8v8.8h23.3V91.8Zm22.5,7.9H78.6v-7h21.5Z"/></g></g></g><g id="_Группа_11" data-name="&lt;Группа&gt;"><circle id="_Контур_17" data-name="&lt;Контур&gt;" class="cls-9" cx="38.8" cy="99.7" r="38.8"/><circle id="_Контур_18" data-name="&lt;Контур&gt;" class="cls-10" cx="38.8" cy="99.7" r="22.7"/><circle id="_Контур_19" data-name="&lt;Контур&gt;" class="cls-9" cx="38.8" cy="99.7" r="8.9"/><path id="_Контур_20" data-name="&lt;Контур&gt;" class="cls-1" d="M38.8,60.9A39,39,0,0,1,72.5,80.4a1.65,1.65,0,0,0,3.1-.8v-5a1.93,1.93,0,0,0-.3-1A44.79,44.79,0,0,0,1.2,75.5a1.69,1.69,0,0,0,.6,2.4l2.4,1.3a1.58,1.58,0,0,0,2.1-.5A38.44,38.44,0,0,1,38.8,60.9Z"/></g><g id="_Группа_12" data-name="&lt;Группа&gt;"><circle id="_Контур_21" data-name="&lt;Контур&gt;" class="cls-9" cx="133.2" cy="105.5" r="32.2"/><circle id="_Контур_22" data-name="&lt;Контур&gt;" class="cls-10" cx="133.2" cy="105.5" r="18.8"/><circle id="_Контур_23" data-name="&lt;Контур&gt;" class="cls-9" cx="133.2" cy="105.5" r="7.4"/></g><rect id="_Контур_24" data-name="&lt;Контур&gt;" class="cls-11" x="58.8" y="7.8" width="1" height="50.3"/></g></g></g></g></svg>