<svg xmlns="http://www.w3.org/2000/svg" version="1.2" baseProfile="tiny" viewBox="0 0 263 165" overflow="scroll">
  <path fill="#1E3E8C" d="M0 0h263v165H0z"/>
  <path fill="#F2F2F2" d="M181.7 99.3l-3.2-1.3c.2-1.9.4-3.9.4-5.9 0-1.1 0-2.3-.1-3.5 1.2-.5 2.5-1 3.7-1.5 1.9-.8 3-2.7 2.8-4.8-.4-3.5-1.3-6.9-2.7-10.1-1.3-3-2.9-5.8-5-8.5-1.3-1.6-3.4-2.2-5.3-1.4l-3.4 1.4c-2-2.5-4.3-4.8-6.7-6.8.5-1.1.9-2.1 1.3-3.1.5-1.1.5-2.3.1-3.4V36.3c0-1.3-1-2.3-2.3-2.3h-21.6l-3.8-13c-.1-.2-.4-1.2-1.5-1.7-1.4-.7-2.8-.1-2.9 0 0 0-.1 0-.1.1-.5.3-.7.6-.8.7-.2.3-.4.6-.5 1l-3.8 12.8h-21.6c-1.3 0-2.3 1-2.3 2.3v9.5l-2.7 3c-.7.8-1.5 1.6-2.2 2.6l-.8-1.2-2.4 3.3c-.7.9-1.4 1.9-2.1 3l-.8-.9-2 3.5c-.6 1.1-1.1 2.2-1.6 3.2l-1-.9-1.5 3.9c-.5 1.2-.8 2.2-1.1 3.1l-1-.7-.9 3.9c-.3 1.2-.5 2.3-.7 3.3l-1.4-.7-.3 4.1c-.1 1.2-.2 2.4-.2 3.9l-1.7-.4.3 4.1c.1 1.1.2 2 .3 2.9l-1.2-.2.6 3.9c.2 1.3.5 2.4.7 3.4h-1.4l1.1 3.7c.3.9.6 1.8 1 2.7l-1.5.1 1.9 3.7c.5 1.1 1.1 2.2 1.6 3.2l-1.2.3 2 3.4c.7 1.1 1.4 2.2 2.2 3.3l.1.2.1.1-1.5.6 2.7 3c.9 1.1 1.8 2 2.7 2.9l.2.2.1.1-1.4.7 3.1 2.8c.3.3.6.5.9.8l-3.3 1.2 14.3 7.3v2.2l1.5.7c9.1 4.4 19.3 6.7 29.3 6.7h.3c10 0 20-2.4 29-6.7l1.5-.7v-2.2l14.3-7.2-11.6-4.3 1.1-2.1c1.3.6 2.6 1.1 4 1.6 1.9.8 4.1.2 5.3-1.4 2.2-2.8 4-5.8 5.3-9.1 1.2-3 2-6.1 2.4-9.5 0-2.1-1.2-4-3.1-4.8z"/>
  <path fill="#CECCCC" d="M172.5 121.7c.8.3 1.8.1 2.3-.6 1.6-2 3.4-4.8 4.9-8.5 1.4-3.4 2-6.5 2.2-8.9.1-.9-.4-1.7-1.2-2.1l-5.1-2.1c-1.3 7.4-4.5 14.1-9 19.7 2 .9 4 1.7 5.9 2.5zm-31-73l.3 1.2c6.4 1.3 12.3 4 17.3 7.8.7-1.7 1.5-3.3 2.2-5 .4-.8.1-1.8-.6-2.3-2-1.6-4.7-3.5-8.3-5.1-1.2-.5-2.3-.9-3.4-1.2l-7.5 4.6zm41.3 34c-.3-2.5-1-5.8-2.5-9.4-1.4-3.4-3.1-6-4.7-7.9-.6-.7-1.5-1-2.3-.6l-5.2 2.1c4.2 5.8 7 12.7 7.9 20.2 1.8-.8 3.7-1.5 5.5-2.2.9-.5 1.4-1.3 1.3-2.2z"/>
  <path fill="#D8D8D8" d="M159.1 57.7c-5-3.8-10.9-6.5-17.3-7.8l.6 2.1 1.5 4.8c15.2 4.6 26.2 18.7 26.2 35.4 0 20.4-16.6 37-37.2 37s-37.2-16.6-37.2-37c0-16.6 11-30.7 26.2-35.3l1.2-4 .9-3C104.3 54 89.5 71.4 89.5 92.2c0 23.9 19.4 43.2 43.4 43.2 13.6 0 25.8-6.2 33.7-16 4.6-5.6 7.7-12.3 9-19.7.4-2.4.6-4.9.6-7.5 0-1.7-.1-3.5-.3-5.1-.9-7.5-3.7-14.4-7.9-20.2-2.4-3.5-5.5-6.6-8.9-9.2z"/>
  <path fill="#DADBDA" d="M134.8 55.2L133 54l-1.8 1.2c.6 0 1.2-.1 1.8-.1.6.1 1.2.1 1.8.1z"/>
  <path fill="#DADBDA" d="M145.1 61c0 .1-.1.2-.2.3-.1.1-.2.1-.3.1h-.1c-.1 0-.1-.1-.2-.1l-9.6-6c-.6 0-1.2-.1-1.8-.1-.6 0-1.2 0-1.8.1l-9.6 6c-.1.1-.1.1-.3.1-.1 0-.2 0-.3-.1-.1-.1-.2-.2-.2-.3v-.1c0-.1 0-.1.1-.2l1.2-3.9c-15.2 4.7-26.2 18.7-26.2 35.3 0 20.4 16.6 37 37.2 37s37.2-16.6 37.2-37c0-16.6-11-30.7-26.2-35.4l1.2 3.9c-.1.2 0 .3-.1.4z"/>
  <path fill="#E5E4E3" d="M145.1 61c0 .1-.1.2-.2.3-.1.1-.2.1-.3.1h-.1c-.1 0-.1-.1-.2-.1l-9.6-6c-.6 0-1.2-.1-1.8-.1-.6 0-1.2 0-1.8.1l-9.6 6c-.1.1-.1.1-.3.1-.1 0-.2 0-.3-.1-.1-.1-.2-.2-.2-.3v-.1c0-.1 0-.1.1-.2l1.2-3.9c-15.2 4.7-26.2 18.7-26.2 35.3 0 20.4 16.6 37 37.2 37s37.2-16.6 37.2-37c0-16.6-11-30.7-26.2-35.4l1.2 3.9c-.1.2 0 .3-.1.4z"/>
  <ellipse cx="133" cy="92.1" fill="#055D9D" rx="31.5" ry="31.4"/>
  <path fill="#0D65A3" d="M103.1 102.3c-1.1-3.2-1.7-6.6-1.7-10.1 0-17.3 14.1-31.4 31.5-31.4 10.1 0 19.2 4.8 25 12.2"/>
  <path fill="none" d="M165.2 78.6c5 19.5-6.7 39.4-26.3 44.4-19.6 5.1-39.5-6.6-44.5-26.1s6.7-39.4 26.3-44.4 39.4 6.6 44.5 26.1z"/>
  <path fill="#15AE8B" d="M133 123.6c11.4 0 21.3-5.9 26.9-14.9h-53.8c5.6 8.9 15.5 14.9 26.9 14.9z"/>
  <path fill="#FAB624" d="M119.2 45.4l-1.6-1c-5.5 1.8-10.5 4.4-15 7.8.2.4.4.9.6 1.3 4.7-3.6 10.1-6.4 16-8.1z"/>
  <path fill="#FFD345" d="M119.1 45.2c-5.9 1.7-11.3 4.6-16 8.2.2.4.4.8.5 1.2 4.9-3.8 10.7-6.8 16.9-8.5l-1.4-.9z"/>
  <path fill="#FAB624" d="M120.5 46c-6.2 1.7-11.9 4.6-16.9 8.5.1.2.1.3.2.5s.2.4.2.6c5.1-4.1 11.2-7.1 17.7-8.7l-1.2-.9z"/>
  <path fill="#FFD345" d="M121.7 46.8c-6.6 1.6-12.6 4.6-17.7 8.7.2.5.3.9.4 1.2 5.4-4.3 11.8-7.5 18.7-9l-1.4-.9z"/>
  <path fill="#FAB624" d="M124.6 48.6l-1.4-.9c-7 1.5-13.4 4.7-18.7 9 .2.5.3.9.3 1.2 5.6-4.5 12.4-7.8 19.8-9.3z"/>
  <path fill="#FFD345" d="M124.2 50.1l.4-1.4c-7.4 1.4-14.2 4.7-19.8 9.3v.1c.1.4.1.8.1 1.1h.4c5.4-4.4 11.8-7.6 18.9-9.1z"/>
  <path fill="#FAB624" d="M107 59.5c4.8-3.8 10.5-6.7 16.7-8.1l.4-1.4c-7.1 1.5-13.5 4.7-18.8 9.2.5.1 1.1.2 1.7.3z"/>
  <path fill="#FFD345" d="M107.2 59.6l1.2.4c4.4-3.3 9.4-5.8 15-7.2l.4-1.4c-6.2 1.4-11.9 4.2-16.7 8.1 0 0 0 .1.1.1z"/>
  <path fill="#FAB624" d="M109.8 60.7c3.9-2.9 8.3-5 13.1-6.3l.5-1.6c-5.5 1.3-10.6 3.8-15 7.2.3.2.8.4 1.4.7zm2.1 1.4c3.1-2.1 6.6-3.7 10.3-4.9l.6-1.8c-4.5 1.3-8.7 3.2-12.4 5.8.4.3.9.6 1.5.9z"/>
  <path fill="#F6D646" d="M110 61c.3.1.5.3.8.5 3.5-2.5 7.4-4.5 11.7-5.7l.4-1.5c-4.9 1.3-9.4 3.5-13.4 6.5.3.1.4.1.5.2z"/>
  <path fill="#FFD345" d="M109.9 60.9c.3.1.5.3.8.5 3.5-2.5 7.4-4.5 11.7-5.7l.4-1.5c-4.9 1.3-9.4 3.5-13.4 6.5.2.1.4.2.5.2z"/>
  <path fill="#FFD345" d="M110 61c1.1.6 2.5 1.4 4.1 2.5-1.2.9-2.3 1.6-3.1 2.1-1.1.7-1.9 1.1-2.9 1.6-1.2.5-2.1.8-2.8.9-2.4.3-4-.4-4.8-.7-1.1-.5-2.2-1.4-2.5-1.6-.6-.5-1.1-1-1.5-1.3.3-.6.7-1.3 1.3-1.9 2.1-2.5 4.7-3.1 6-3.3.8 0 2 0 3.3.4.5.2 1.2.4 2.9 1.3z"/>
  <path fill="#FAB624" d="M104.1 68.4c-1.3 0-2.6-.3-3.7-.8-.5-.3-1.4-.8-2.6-1.7-.5-.4-1-.8-1.5-1.3l-.1-.1.1-.2c.4-.7.8-1.4 1.3-2 2-2.3 4.4-3.1 6.1-3.3 1.2-.1 2.3.1 3.4.4.7.2 1.4.5 3 1.4 1.4.8 2.8 1.6 4.1 2.5l.3.2-.3.2c-1 .7-2.1 1.4-3.1 2.1-1.1.6-1.9 1.1-3 1.6-.9.4-1.9.7-2.9.9-.3.1-.7.1-1.1.1zm-7.3-4c.4.4.8.8 1.3 1.1 1.1.9 2 1.4 2.5 1.6 1.3.6 3 .9 4.6.7.9-.2 1.9-.5 2.8-.9 1.1-.4 1.8-.9 2.9-1.6.9-.6 1.9-1.2 2.8-1.8-1.2-.8-2.5-1.6-3.8-2.3-1.7-1-2.4-1.2-2.9-1.3-1-.3-2.1-.4-3.2-.4-1.6.2-3.9 1-5.8 3.1-.5.6-.8 1.2-1.2 1.8z"/>
  <path fill="#FFD345" d="M103.6 55.1c-.5-1.1-1.1-2.6-2.1-4.4-1 1.1-1.8 2.1-2.4 2.8-.8 1-1.3 1.7-1.9 2.7-.6 1.1-1 2.1-1.2 2.7-.5 2.4-.1 4 .2 4.9.4 1.2 1.2 2.4 1.3 2.7.4.7.8 1.2 1.1 1.6.6-.3 1.3-.6 2.1-1.1 2.7-1.8 3.6-4.4 3.9-5.6.1-.8.2-2-.1-3.3 0-.5-.1-1.3-.9-3z"/>
  <path fill="#FAB624" d="M98.7 68.5l-.1-.1c-.4-.5-.8-1.1-1.1-1.6-.8-1.3-1.2-2.2-1.4-2.7-.5-1.5-.6-3.2-.2-5 .3-1 .7-1.9 1.2-2.8.6-1 1.1-1.8 1.9-2.8.8-1 1.5-1.9 2.4-2.9l.3-.3.2.3c.8 1.4 1.4 2.9 2.1 4.4.7 1.7.9 2.5 1 3.1.2 1.1.2 2.3.1 3.4-.4 1.7-1.5 4-4 5.8-.6.4-1.3.8-2.1 1.1l-.3.1zm2.8-17.3c-.7.8-1.5 1.7-2.1 2.6-.8 1-1.3 1.7-1.9 2.7-.5.9-.9 1.8-1.2 2.7-.4 1.6-.3 3.3.2 4.7.2.5.6 1.4 1.3 2.6.3.5.6 1 1 1.4.6-.3 1.3-.6 1.8-1 2.4-1.6 3.4-3.8 3.8-5.4.2-1.1.1-2.1-.1-3.2-.1-.5-.3-1.2-1-3-.5-1.5-1.1-2.8-1.8-4.1z"/>
  <path fill="#FFD345" d="M105.8 64.5c1.1.4 2.6 1.1 4.4 2-1.1 1-2.1 1.9-2.8 2.4-1 .8-1.7 1.3-2.7 1.9-1.1.6-2 1-2.7 1.3-2.3.6-4 .1-4.9-.1-1.2-.4-2.4-1.1-2.7-1.3-.7-.4-1.2-.8-1.6-1.1.3-.6.6-1.3 1-2.1 1.8-2.7 4.3-3.7 5.5-4 .8-.1 1.9-.2 3.3 0 .7.1 1.4.3 3.2 1z"/>
  <path fill="#FAB624" d="M99.7 72.6c-.9 0-1.8-.1-2.6-.4-.6-.2-1.5-.6-2.8-1.3-.6-.3-1.1-.7-1.6-1.1l-.2-.1.1-.2c.3-.8.6-1.5 1.1-2.1 1.7-2.6 4-3.6 5.6-4.1 1.2-.2 2.3-.2 3.4 0 .7.1 1.5.3 3.1 1 1.5.6 3 1.2 4.4 2l.3.2-.3.3c-.9.9-1.9 1.7-2.8 2.4-1 .8-1.7 1.3-2.7 1.9-.9.5-1.8 1-2.8 1.3-.6.2-1.4.2-2.2.2zm-6.6-3.1c.4.3.9.7 1.4 1 1.2.7 2.1 1.1 2.6 1.3 1.4.5 3 .5 4.7.1.9-.3 1.8-.7 2.6-1.2 1-.6 1.7-1.1 2.7-1.9.8-.7 1.7-1.4 2.5-2.2-1.3-.6-2.7-1.3-4-1.8-1.9-.7-2.5-.9-3-1-1.1-.2-2.2-.2-3.2 0-1.5.4-3.8 1.4-5.3 3.8-.4.6-.7 1.2-1 1.9z"/>
  <path fill="#FFD345" d="M98.9 59.4c-.6-1.1-1.4-2.5-2.5-4.1-.9 1.2-1.6 2.3-2.1 3.1-.7 1.1-1.2 1.9-1.6 2.9-.5 1.2-.8 2.1-.9 2.8-.3 2.4.3 4 .7 4.8.5 1.1 1.4 2.2 1.6 2.5.5.6.9 1.1 1.3 1.5.6-.3 1.3-.7 1.9-1.3 2.5-2.1 3.1-4.7 3.3-6 0-.8 0-2-.4-3.3-.1-.5-.4-1.2-1.3-2.9z"/>
  <path fill="#FAB624" d="M95.4 73.2l-.1-.1c-.4-.5-.9-1-1.3-1.5-.9-1.2-1.4-2.1-1.7-2.6-.7-1.4-.9-3.1-.7-4.9.2-1 .5-2 .9-2.9.5-1.1 1-1.9 1.6-3 .6-1 1.3-2.1 2.1-3.1l.2-.3.2.3c.9 1.3 1.7 2.8 2.5 4.1.9 1.6 1.2 2.4 1.4 3 .3 1.1.4 2.2.4 3.4-.3 1.7-1 4.2-3.4 6.1-.6.5-1.3.9-2 1.3l-.1.2zm1-17.5c-.6.9-1.3 1.8-1.9 2.8-.6 1-1.1 1.8-1.6 2.9-.4.9-.7 1.9-.9 2.8-.2 1.7 0 3.3.7 4.6.3.5.7 1.3 1.6 2.5.3.4.7.9 1.1 1.3.6-.3 1.2-.7 1.7-1.2 2.2-1.9 3-4.2 3.2-5.8.1-1.1-.1-2.2-.4-3.2-.1-.5-.4-1.2-1.3-2.9-.7-1.2-1.4-2.5-2.2-3.8z"/>
  <path fill="#FFD345" d="M102.4 68.3c1.2.3 2.8.8 4.6 1.4-1 1.2-1.8 2.1-2.5 2.8-.9.9-1.5 1.5-2.4 2.2-1 .8-1.9 1.2-2.6 1.6-2.2.8-4 .6-4.8.5-1.2-.3-2.5-.8-2.8-1-.7-.3-1.3-.6-1.7-.9.2-.7.4-1.4.8-2.2 1.4-2.9 3.8-4.1 5-4.6.8-.2 1.9-.5 3.3-.4.5 0 1.2.1 3.1.6z"/>
  <path fill="#FAB624" d="M96.2 77.2c-.6 0-1.1-.1-1.6-.2-.6-.1-1.5-.4-2.9-1-.6-.3-1.2-.6-1.7-.9l-.2-.1.1-.2c.2-.8.4-1.5.8-2.2 1.3-2.7 3.5-4.1 5.1-4.7 1.1-.3 2.3-.5 3.4-.4.7 0 1.5.1 3.3.6 1.5.4 3.1.9 4.6 1.4l.4.1-.3.3c-.8 1-1.7 1.9-2.5 2.8-.9.9-1.5 1.5-2.5 2.2-.8.6-1.7 1.2-2.6 1.6-1.1.5-2.3.7-3.4.7zm-5.8-2.4c.5.3 1 .6 1.5.8 1.3.6 2.2.8 2.8 1 1.5.3 3.1.1 4.7-.4.8-.4 1.7-.9 2.5-1.5.9-.7 1.5-1.3 2.4-2.2.8-.8 1.5-1.6 2.2-2.4-1.4-.5-2.8-.9-4.2-1.3-1.9-.5-2.6-.6-3.1-.6-1.1-.1-2.2.1-3.2.4-1.5.6-3.6 1.9-4.8 4.5-.4.4-.6 1-.8 1.7z"/>
  <path fill="#FFD345" d="M94.7 64.2c-.7-1-1.7-2.3-3-3.8-.7 1.3-1.3 2.5-1.7 3.3-.5 1.2-.9 2-1.2 3.1-.3 1.2-.5 2.2-.5 3 0 2.4.9 4 1.3 4.7.7 1 1.7 2 1.9 2.3.6.6 1.1 1 1.5 1.3.6-.4 1.2-.9 1.7-1.5 2.2-2.4 2.4-5.1 2.4-6.3-.1-.8-.3-1.9-.8-3.2-.1-.7-.4-1.4-1.6-2.9z"/>
  <path fill="#FAB624" d="M93.1 78.3l-.2-.1c-.5-.4-1-.8-1.5-1.3-1.1-1-1.7-1.9-2-2.3-.9-1.3-1.3-3-1.4-4.8.1-1 .3-2 .5-3 .3-1.2.7-2 1.2-3.1s1.1-2.2 1.7-3.3l.2-.3.3.3c1.1 1.2 2.1 2.5 3 3.8 1.1 1.5 1.5 2.2 1.7 2.8.4 1 .8 2.2.8 3.3 0 1.7-.5 4.3-2.5 6.5-.5.6-1.1 1.1-1.8 1.6v-.1zm-1.3-17.4l-1.5 3c-.5 1.1-.9 1.9-1.2 3.1-.3 1-.4 1.9-.5 2.9 0 1.7.5 3.2 1.3 4.5.3.5.9 1.2 1.9 2.2.4.4.8.8 1.3 1.1.6-.4 1.1-.9 1.5-1.4 1.9-2.1 2.4-4.5 2.4-6.2-.1-1.1-.4-2.1-.8-3.1-.2-.5-.5-1.1-1.7-2.7-.8-1.1-1.7-2.3-2.7-3.4z"/>
  <path fill="#FFD345" d="M99.3 72.6c1.2.1 2.8.3 4.8.6-.8 1.3-1.5 2.4-2 3.1-.8 1.1-1.3 1.8-2.1 2.6-.8.9-1.7 1.5-2.2 2-2.1 1.2-3.8 1.3-4.7 1.3-1.2-.1-2.6-.4-3-.5-.8-.2-1.4-.4-1.9-.6.1-.7.2-1.5.4-2.3.9-3.1 3.1-4.7 4.2-5.4.7-.3 1.8-.8 3.2-1 .7 0 1.4 0 3.3.2z"/>
  <path fill="#FAB624" d="M93.4 82.4h-.3c-.6 0-1.6-.1-3-.5-.6-.2-1.3-.4-1.9-.6l-.2-.1V81c.1-.8.2-1.6.4-2.3.9-2.9 2.8-4.6 4.3-5.5 1.1-.5 2.2-.8 3.3-1 .7-.1 1.5-.1 3.3.1 1.6.1 3.2.4 4.8.6l.4.1-.2.3c-.6 1.1-1.3 2.1-2 3.1s-1.2 1.8-2.1 2.6c-.7.7-1.5 1.4-2.3 2-1.4 1-3 1.4-4.5 1.4zm-4.8-1.5c.5.2 1.1.4 1.6.5 1.4.4 2.4.5 2.9.5 1.5.1 3.1-.4 4.6-1.2.8-.6 1.5-1.2 2.2-1.9.8-.8 1.3-1.6 2-2.6.6-.9 1.2-1.8 1.8-2.8-1.5-.3-2.9-.4-4.4-.6-2-.2-2.7-.1-3.2-.1-1.1.1-2.1.4-3.1.9-1.4.8-3.2 2.4-4 5.2-.2.7-.4 1.4-.4 2.1z"/>
  <path fill="#FFD345" d="M91.3 69.6c-.8-.9-2-2-3.5-3.3-.5 1.4-.9 2.6-1.2 3.5-.4 1.3-.6 2.1-.8 3.2-.2 1.2-.2 2.2-.1 3 .4 2.4 1.4 3.8 1.9 4.4.8 1 1.9 1.8 2.2 2 .6.5 1.2.8 1.6 1.1.5-.5 1-1 1.5-1.7 1.9-2.7 1.7-5.4 1.6-6.6-.2-.8-.5-1.9-1.3-3.1-.1-.5-.6-1.1-1.9-2.5z"/>
  <path fill="#FAB624" d="M91.6 83.9l-.2-.1c-.6-.3-1.1-.7-1.7-1.1-1.2-.9-1.9-1.6-2.3-2.1-1-1.2-1.7-2.8-2-4.6-.1-1 0-2.1.1-3.1.2-1.2.4-2.1.8-3.3.3-1.2.8-2.4 1.2-3.5l.1-.4.3.3c1.2 1.1 2.4 2.2 3.5 3.3 1.3 1.3 1.7 2 2.1 2.6.6 1 1 2.1 1.3 3.2.2 1.7.1 4.3-1.6 6.8-.4.6-1 1.2-1.5 1.8l-.1.2zm-3.7-17.1c-.4 1-.7 2.1-1 3.1-.3 1.2-.6 2.1-.8 3.2-.1 1-.2 2-.1 2.9.3 1.7.9 3.1 1.9 4.3.4.4 1 1.1 2.2 2 .4.3.9.6 1.4 1 .5-.5 1-1 1.3-1.6 1.6-2.4 1.7-4.8 1.5-6.4-.2-1-.6-2.1-1.2-3-.3-.4-.7-1-2.1-2.4-.9-1.1-2-2.1-3.1-3.1z"/>
  <path fill="#FFD345" d="M97.1 77.2c1.2 0 2.8 0 4.8.1-.6 1.4-1.2 2.5-1.6 3.3-.6 1.2-1 1.9-1.7 2.8-.8 1-1.5 1.7-2 2.2-1.9 1.4-3.7 1.7-4.5 1.8-1.2.1-2.6-.1-3-.2-.8-.1-1.4-.3-1.9-.4 0-.7 0-1.5.1-2.3.6-3.2 2.6-5 3.5-5.8.7-.4 1.7-1 3.1-1.3.6-.1 1.3-.2 3.2-.2z"/>
  <path fill="#FAB624" d="M91.3 87.7c-.6 0-1.3-.1-2.4-.2-.6-.1-1.3-.2-1.9-.4l-.2-.1v-.2c0-.8 0-1.6.2-2.4.5-3 2.3-4.9 3.6-6 1-.6 2.1-1.1 3.2-1.3.7-.2 1.5-.3 3.3-.3 1.6 0 3.2 0 4.8.1h.4l-.1.3c-.5 1.2-1.1 2.3-1.7 3.3-.6 1.1-1 1.9-1.7 2.9-.6.8-1.3 1.6-2.1 2.2-1.5 1.1-3.1 1.7-4.7 1.9-.1.2-.4.2-.7.2zm-3.9-1c.6.1 1.1.3 1.7.3 1.4.2 2.4.2 3 .2 1.5-.1 3-.7 4.4-1.7.7-.6 1.4-1.3 2-2.2.7-.9 1.1-1.7 1.7-2.8.5-1 1-1.9 1.5-3-1.5-.1-3-.1-4.4-.1-2 0-2.7.2-3.2.3-1.1.3-2.1.7-3 1.3-1.3 1-2.9 2.8-3.4 5.6-.3.7-.3 1.4-.3 2.1z"/>
  <path fill="#FFD345" d="M88.7 75.1c-1-.8-2.2-1.7-3.9-2.8-.4 1.5-.6 2.7-.7 3.7-.2 1.3-.3 2.2-.3 3.3 0 1.2.1 2.2.3 3 .7 2.3 1.9 3.6 2.5 4.2.9.8 2.2 1.5 2.5 1.7.7.4 1.3.6 1.7.8.4-.5.9-1.2 1.3-1.9 1.5-2.9 1-5.6.7-6.7-.3-.8-.8-1.8-1.7-2.9-.3-.6-.8-1.2-2.4-2.4z"/>
  <path fill="#FAB624" d="M90.9 89.2l-.2-.1c-.6-.3-1.2-.5-1.8-.9-1.3-.7-2.1-1.3-2.5-1.7-1.2-1.1-2.1-2.5-2.6-4.3-.2-1-.3-2-.3-3.1 0-1.2.1-2.1.3-3.3.2-1.2.4-2.4.7-3.7l.1-.4.4.3c1.3.9 2.7 1.9 3.9 2.8 1.4 1.2 2 1.7 2.4 2.2.7.9 1.3 1.9 1.7 3 .4 1.7.7 4.2-.7 7-.3.7-.8 1.3-1.3 2l-.1.2zM85 72.7c-.3 1.1-.4 2.2-.6 3.3-.2 1.2-.3 2.1-.3 3.3 0 1 .1 2 .3 2.9.5 1.6 1.3 3 2.4 4 .4.4 1.2 1 2.4 1.7.5.3 1 .5 1.5.8.4-.6.8-1.1 1.1-1.7 1.3-2.6 1.1-5 .7-6.6-.4-1-.9-1.9-1.6-2.8-.3-.4-.8-.9-2.4-2.2-1.1-.9-2.2-1.8-3.5-2.7z"/>
  <path fill="#FFD345" d="M95.4 81.9c1.2-.2 2.8-.4 4.8-.5-.4 1.5-.8 2.6-1.2 3.5-.5 1.2-.8 2-1.3 3-.6 1.1-1.2 1.9-1.7 2.4-1.7 1.7-3.4 2.2-4.2 2.4-1.2.3-2.6.3-3 .2-.8 0-1.5-.1-1.9-.1-.1-.7-.2-1.5-.1-2.3.2-3.3 1.9-5.3 2.8-6.2.6-.5 1.6-1.2 2.9-1.7.3-.2 1-.4 2.9-.7z"/>
  <path fill="#FAB624" d="M89 93.2h-.3c-.6 0-1.3-.1-2-.1h-.2v-.2c-.1-.8-.2-1.6-.2-2.4.1-3 1.6-5.1 2.8-6.4.9-.8 1.9-1.3 3-1.7.5-.2 1.2-.4 3.2-.7 1.6-.3 3.2-.4 4.8-.5h.4l-.1.4c-.4 1.2-.8 2.4-1.2 3.5-.4 1.2-.8 2-1.3 3.1-.5.9-1.1 1.7-1.7 2.5-1.3 1.3-2.8 2.1-4.4 2.4-.5 0-1.4.1-2.8.1zm-2-.6c.6.1 1.2.1 1.7.1 1.4 0 2.4-.1 3-.2 1.5-.3 2.9-1.1 4.1-2.3.6-.7 1.2-1.5 1.7-2.4.6-1 .9-1.8 1.3-3 .4-1 .8-2.1 1.1-3.1-1.5.1-3 .3-4.4.5-2 .3-2.6.5-3.1.7-1 .4-2 1-2.8 1.7-1.1 1.2-2.5 3.1-2.6 6-.1.6-.1 1.3 0 2z"/>
  <path fill="#FFD345" d="M86.9 80.9c-1-.6-2.5-1.4-4.2-2.3-.1 1.5-.2 2.8-.2 3.7 0 1.3 0 2.2.1 3.3.2 1.2.4 2.2.7 2.9 1 2.2 2.4 3.3 3.1 3.8 1 .7 2.4 1.2 2.7 1.3.7.3 1.4.5 1.9.6.4-.6.7-1.3 1-2.1 1.1-3.1.2-5.6-.2-6.8-.4-.7-1-1.7-2-2.6-.7-.4-1.3-.8-2.9-1.8z"/>
  <path fill="#FAB624" d="M90.9 94.6l-.2-.1c-.6-.2-1.3-.4-1.9-.6-1.4-.5-2.2-1-2.8-1.3-1.3-.9-2.4-2.2-3.1-3.9-.3-1-.6-2-.7-3-.2-1.2-.1-2.1-.1-3.3 0-1.2.1-2.5.2-3.7v-.4l.3.2c1.5.7 2.9 1.5 4.3 2.3 1.6.9 2.2 1.4 2.7 1.9.8.8 1.5 1.7 2.1 2.7.7 1.6 1.3 4.1.3 7-.3.7-.6 1.5-1 2.1l-.1.1zM82.8 79c-.1 1.1-.2 2.2-.2 3.3 0 1.2 0 2.1.1 3.3.1 1 .4 1.9.7 2.9.7 1.5 1.7 2.8 3 3.6.4.3 1.3.8 2.6 1.3.5.2 1.1.4 1.6.5.4-.6.6-1.2.9-1.9 1-2.7.4-5.1-.2-6.6-.5-.9-1.2-1.8-2-2.6-.4-.4-.9-.8-2.6-1.8-1.2-.6-2.5-1.3-3.9-2z"/>
  <path fill="#FFD345" d="M94.4 86.9c1.2-.3 2.7-.8 4.7-1.2-.2 1.5-.5 2.7-.7 3.7-.3 1.3-.5 2.1-.9 3.2-.4 1.2-1 2.1-1.3 2.7-1.5 1.9-3.1 2.6-3.9 2.9-1.2.4-2.6.6-2.9.6-.8.1-1.5.1-1.9.1-.2-.7-.4-1.4-.5-2.3-.3-3.2 1.1-5.5 1.9-6.5.5-.6 1.4-1.4 2.6-2.1.4-.2 1.1-.5 2.9-1.1z"/>
  <path fill="#FAB624" d="M87.2 99.2V99c-.3-.8-.4-1.5-.5-2.3-.3-3 .9-5.3 1.9-6.7.8-.9 1.7-1.6 2.7-2.1.6-.3 1.3-.6 3.1-1.2 1.5-.4 3.1-.8 4.7-1.2l.4-.1-.1.4c-.2 1.2-.4 2.5-.7 3.7-.3 1.2-.5 2.1-.9 3.2-.4 1-.8 1.9-1.4 2.7-1.1 1.4-2.5 2.5-4 3-.5.2-1.5.5-3 .7-.6.1-1.3.1-2 .1h-.2zm11.6-13.1c-1.5.3-2.9.7-4.3 1.1-1.9.6-2.5.9-3 1.1-1 .5-1.8 1.2-2.5 2-1 1.3-2.1 3.5-1.8 6.3.1.7.2 1.3.4 2 .6 0 1.2-.1 1.7-.1 1.4-.2 2.4-.4 2.9-.6 1.4-.5 2.7-1.5 3.8-2.8.5-.8 1-1.7 1.3-2.6.4-1.1.6-1.9.9-3.1l.6-3.3z"/>
  <path fill="#FFD345" d="M85.7 87.3c-1.1-.4-2.7-1-4.6-1.6.1 1.5.2 2.8.4 3.7.2 1.3.3 2.2.6 3.3.3 1.2.8 2.1 1.1 2.8 1.3 2 2.8 2.9 3.6 3.3 1.1.5 2.5.8 2.9.9.8.2 1.4.3 1.9.3.3-.6.5-1.4.7-2.2.6-3.2-.6-5.6-1.3-6.7-.5-.6-1.3-1.5-2.4-2.3-.5-.5-1.1-.8-2.9-1.5z"/>
  <path fill="#FAB624" d="M91.8 100.1h-.2c-.6-.1-1.3-.2-1.9-.3-1.5-.3-2.4-.7-2.9-.9-1.5-.7-2.7-1.8-3.7-3.3-.5-.9-.8-1.9-1.2-2.8-.3-1.2-.4-2.1-.6-3.3-.2-1.2-.3-2.5-.4-3.7v-.4l.4.1c1.6.5 3.1 1 4.6 1.6 1.9.8 2.5 1.1 3 1.5 1 .6 1.8 1.4 2.5 2.4.9 1.5 1.9 3.9 1.3 6.9-.1.8-.4 1.5-.7 2.3l-.2-.1zm-10.3-14l.3 3.3c.2 1.2.3 2.1.6 3.2.3 1 .6 1.9 1.1 2.7.9 1.4 2.1 2.5 3.5 3.1.5.2 1.4.6 2.8.9.6.1 1.1.2 1.7.3.3-.6.4-1.3.6-2 .5-2.8-.4-5.1-1.2-6.5-.6-.8-1.4-1.6-2.3-2.2-.4-.3-1-.6-2.9-1.4-1.4-.5-2.8-1-4.2-1.4z"/>
  <path fill="#FFD345" d="M94.1 91.7c1.1-.5 2.6-1.1 4.5-1.7-.1 1.5-.2 2.8-.3 3.7-.1 1.3-.3 2.2-.6 3.3-.3 1.2-.7 2.1-1 2.8-1.3 2.1-2.8 3-3.5 3.3-1.1.6-2.5.9-2.8 1-.8.2-1.4.3-1.9.3-.3-.6-.5-1.4-.7-2.2-.6-3.2.5-5.6 1.1-6.7.5-.6 1.2-1.5 2.4-2.4.4-.3 1-.7 2.8-1.4z"/>
  <path fill="#FAB624" d="M88.3 104.7l-.1-.2c-.3-.7-.6-1.5-.7-2.2-.6-3 .3-5.4 1.2-6.9.7-1 1.5-1.8 2.4-2.4.4-.3 1.1-.7 3-1.5 1.5-.6 3-1.2 4.5-1.7l.4-.1v.3c-.1 1.3-.1 2.5-.3 3.7-.1 1.3-.3 2.2-.6 3.3-.3 1-.6 1.9-1.1 2.8-1 1.5-2.2 2.8-3.7 3.5-.5.3-1.5.6-2.9 1-.6.1-1.3.3-1.9.4h-.2zm5.9-12.8c-1.8.8-2.4 1.2-2.8 1.5-.9.6-1.7 1.4-2.3 2.3-.8 1.4-1.7 3.7-1.1 6.5.1.6.3 1.3.6 2 .6-.1 1.1-.2 1.7-.3 1.4-.3 2.3-.7 2.8-1 1.3-.7 2.5-1.8 3.4-3.2.4-.8.8-1.8 1-2.7.3-1.1.4-2 .6-3.2l.3-3.3c-1.5.3-2.9.8-4.2 1.4z"/>
  <path fill="#FFD345" d="M85.5 93c-1.2-.3-2.8-.7-4.7-1.1.3 1.5.5 2.7.8 3.6.3 1.3.6 2.1 1 3.1.5 1.2 1 2 1.4 2.6 1.5 1.9 3.1 2.6 3.9 2.8 1.2.4 2.6.5 3 .6.8.1 1.5.1 1.9.1.2-.7.4-1.4.4-2.3.2-3.3-1.3-5.5-2-6.5-.6-.6-1.4-1.3-2.7-2-.5 0-1.2-.4-3-.9z"/>
  <path fill="#FAB624" d="M92.6 105.1c-.6 0-1.2 0-1.8-.1-1.5-.1-2.4-.4-3-.6-1.5-.5-2.9-1.5-4.1-2.9-.6-.8-1.1-1.7-1.5-2.7-.4-1.1-.7-2-1-3.2-.3-1.2-.6-2.4-.8-3.7l-.1-.4.4.1c1.6.3 3.2.6 4.7 1.1 1.8.5 2.5.8 3.1 1.1 1 .5 1.9 1.2 2.7 2.1 1.1 1.4 2.3 3.6 2.1 6.7-.1.8-.2 1.5-.4 2.3l-.1.2h-.2c.2 0 .1 0 0 0zM81.1 92.3c.2 1.1.4 2.2.7 3.2.3 1.2.5 2.1 1 3.1.4.9.8 1.8 1.4 2.6 1.1 1.3 2.4 2.2 3.8 2.7.5.2 1.5.4 2.9.6.6.1 1.1.1 1.7.1.2-.7.3-1.3.3-2 .2-2.9-1-5-2-6.3-.7-.8-1.6-1.4-2.6-1.9-.5-.3-1.1-.5-3-1.1-1.3-.4-2.7-.7-4.2-1z"/>
  <path fill="#FFD345" d="M94.4 96.5c1-.6 2.5-1.4 4.2-2.2.1 1.5.2 2.8.2 3.7 0 1.3 0 2.2-.1 3.3-.2 1.2-.4 2.2-.7 2.9-1 2.2-2.4 3.3-3.1 3.7-1 .7-2.4 1.2-2.7 1.3-.7.3-1.4.5-1.9.6-.4-.6-.7-1.3-1-2.1-1-3.1-.2-5.6.3-6.8.4-.7 1-1.7 2.1-2.6.5-.3 1.1-.8 2.7-1.8z"/>
  <path fill="#FAB624" d="M90.3 110.2l-.1-.2c-.4-.7-.8-1.4-1-2.1-1-2.9-.4-5.4.3-7 .6-1 1.3-1.9 2.1-2.7.5-.5 1.2-1 2.7-1.9 1.3-.8 2.8-1.5 4.3-2.2l.3-.2v.4c.1 1.3.2 2.5.2 3.7 0 1.3 0 2.2-.1 3.3-.1 1-.4 2-.7 3-.8 1.7-1.9 3-3.2 3.9-.5.3-1.3.8-2.8 1.3-.6.2-1.2.4-1.9.6l-.1.1zm8.2-15.5c-1.3.6-2.6 1.3-3.9 2.1-1.7 1-2.2 1.4-2.6 1.8-.8.7-1.5 1.6-2 2.6-.6 1.5-1.2 3.8-.3 6.6.2.6.5 1.3.9 1.9.6-.1 1.1-.3 1.6-.5 1.3-.5 2.2-1 2.6-1.3 1.3-.8 2.3-2.1 3-3.6.3-.9.5-1.9.7-2.8.2-1.1.1-2 .1-3.3 0-1.3-.1-2.4-.1-3.5z"/>
  <path fill="#FFD345" d="M86 99.1c-1.2-.1-2.8-.3-4.8-.4.5 1.4.9 2.6 1.3 3.5.5 1.2.8 2 1.5 3 .6 1.1 1.3 1.9 1.8 2.4 1.8 1.6 3.5 2.1 4.3 2.2 1.2.2 2.6.1 3 .1.8 0 1.5-.1 1.9-.2.1-.7.1-1.5.1-2.3-.3-3.3-2.1-5.3-3-6.1-.6-.5-1.6-1.1-2.9-1.6-.6-.1-1.3-.3-3.2-.6z"/>
  <path fill="#FAB624" d="M92.1 110.2c-1 0-1.7-.1-2.1-.2-1.6-.3-3.1-1.1-4.4-2.3-.7-.8-1.3-1.6-1.8-2.4-.6-1-1-1.9-1.5-3s-.9-2.3-1.3-3.5l-.1-.4h.4c1.6.1 3.3.2 4.8.4 2 .3 2.7.4 3.3.6 1.1.4 2.1.9 3 1.6 1.3 1.2 2.8 3.3 3.1 6.3.1.8 0 1.6-.1 2.4v.2h-.2c-.6.1-1.3.2-2 .2-.5.1-.8.1-1.1.1zM81.5 99.1c.4 1.1.8 2.1 1.2 3.1.5 1.2.8 2 1.4 3 .5.8 1.1 1.6 1.8 2.4 1.2 1.1 2.7 1.9 4.2 2.1.5.1 1.5.2 3 .1.6 0 1.2-.1 1.7-.2.1-.7.1-1.4.1-2.1-.2-2.9-1.7-4.8-2.9-5.9-.8-.6-1.8-1.2-2.8-1.5-.5-.2-1.2-.4-3.1-.6-1.6-.3-3.1-.4-4.6-.4z"/>
  <path fill="#FFD345" d="M95.3 101.2c1-.7 2.3-1.7 4-2.7.3 1.5.5 2.7.6 3.7.2 1.3.3 2.2.2 3.3 0 1.2-.2 2.2-.4 3-.8 2.3-2 3.5-2.6 4.1-1 .8-2.2 1.4-2.5 1.6-.7.4-1.3.6-1.8.8-.4-.6-.8-1.2-1.2-2-1.4-3-.8-5.6-.5-6.8.3-.7.8-1.8 1.7-2.8.4-.5.9-1 2.5-2.2z"/>
  <path fill="#FAB624" d="M92.7 115.2l-.1-.2c-.5-.6-.9-1.3-1.2-2-1.3-2.8-1-5.3-.5-7 .4-1.1 1-2.1 1.8-2.9.4-.5 1-1.1 2.5-2.2 1.3-1 2.6-1.9 4-2.7l.3-.2.1.4c.3 1.2.4 2.5.6 3.7.1 1.3.3 2.2.2 3.3 0 1-.1 2-.4 3-.6 1.7-1.5 3.2-2.7 4.2-.4.4-1.3 1-2.6 1.6-.6.3-1.2.6-1.8.8l-.2.2zm2.7-13.8c-1.6 1.2-2.1 1.7-2.4 2.1-.7.8-1.3 1.7-1.7 2.8-.4 1.5-.8 4 .5 6.5.3.6.6 1.2 1.1 1.8.5-.2 1.1-.4 1.6-.7 1.3-.6 2.1-1.2 2.5-1.6 1.2-1 2.1-2.3 2.6-3.9.2-.9.3-1.9.4-2.9 0-1.2-.1-2-.2-3.3-.1-1.1-.3-2.2-.5-3.3-1.5.9-2.7 1.7-3.9 2.5z"/>
  <path fill="#FFD345" d="M87.2 104.8c-1.2 0-2.8 0-4.8.1.6 1.4 1.2 2.5 1.7 3.3.6 1.2 1.1 1.9 1.7 2.8.8 1 1.5 1.7 2 2.2 1.9 1.4 3.7 1.7 4.5 1.7 1.2.1 2.6-.1 3-.2.8-.1 1.4-.3 1.9-.4 0-.7 0-1.5-.2-2.3-.6-3.2-2.6-5-3.6-5.8-.7-.4-1.7-1-3.1-1.3-.5 0-1.2-.1-3.1-.1z"/>
  <path fill="#FAB624" d="M92.9 115.3h-.6c-1.6-.1-3.2-.7-4.7-1.8-.8-.7-1.5-1.4-2.1-2.2-.7-1-1.2-1.7-1.8-2.8-.6-1.1-1.2-2.2-1.7-3.3l-.2-.3h.4c1.6-.1 3.3-.2 4.8-.1 2 0 2.8.2 3.3.3 1.1.3 2.2.7 3.1 1.3 1.4 1.1 3.1 3 3.7 5.9.1.8.2 1.5.2 2.4v.2l-.2.1c-.6.2-1.3.3-1.9.4-.9-.2-1.7-.1-2.3-.1zm-10.1-10.2l1.5 3c.6 1.1 1 1.9 1.7 2.8.6.8 1.3 1.5 2 2.2 1.3 1 2.9 1.6 4.4 1.7.6 0 1.5 0 3-.2.6-.1 1.1-.2 1.7-.3 0-.7-.1-1.4-.2-2.1-.5-2.8-2.2-4.6-3.5-5.6-.9-.6-1.9-1-3-1.2-.5-.1-1.2-.3-3.2-.3-1.5-.1-2.9-.1-4.4 0z"/>
  <path fill="#FFD345" d="M96.8 106.4c.8-.9 2-2 3.5-3.3.5 1.4.9 2.6 1.2 3.5.3 1.3.6 2.1.7 3.2.2 1.2.1 2.2.1 3-.4 2.4-1.4 3.8-2 4.4-.8.9-2 1.8-2.3 2-.6.4-1.2.8-1.6 1-.5-.5-1-1.1-1.5-1.8-1.8-2.7-1.7-5.4-1.5-6.6.2-.8.5-1.9 1.3-3.1.3-.3.8-.9 2.1-2.3z"/>
  <path fill="#FAB624" d="M96.4 120.7l-.1-.1c-.6-.6-1.1-1.2-1.5-1.8-1.7-2.5-1.8-5.1-1.5-6.8.3-1.2.7-2.2 1.3-3.2.4-.6.9-1.2 2.1-2.5 1.1-1.1 2.3-2.2 3.5-3.3l.3-.3.1.4 1.2 3.6c.3 1.2.6 2.1.7 3.3.1 1 .2 2 .1 3-.3 1.8-1 3.4-2.1 4.6-.4.4-1.1 1.1-2.3 2-.5.4-1.1.7-1.7 1.1h-.1zm3.8-17.1c-1.1 1-2.2 2-3.2 3-1.4 1.4-1.8 2-2.1 2.4-.6.9-1 1.9-1.3 3-.2 1.6-.1 4 1.5 6.4.4.6.8 1.1 1.3 1.6.5-.3 1-.6 1.4-.9 1.2-.8 1.9-1.5 2.2-1.9 1-1.1 1.7-2.6 1.9-4.3.1-1 0-1.9-.1-2.9-.1-1.2-.4-2-.7-3.2-.1-1.1-.5-2.2-.9-3.2z"/>
  <path fill="#FFD345" d="M89.4 110.8c-1.2.1-2.8.3-4.7.7.8 1.3 1.5 2.3 2 3.1.8 1.1 1.3 1.8 2.1 2.6.9.9 1.7 1.5 2.3 1.9 2.1 1.2 3.8 1.2 4.7 1.2 1.2-.1 2.6-.4 3-.5.8-.2 1.4-.4 1.9-.6-.1-.7-.2-1.5-.4-2.3-1-3.1-3.2-4.7-4.2-5.3-.7-.3-1.8-.8-3.2-.9-.9-.1-1.6-.1-3.5.1z"/>
  <path fill="#FAB624" d="M95.3 120.6c-1.5 0-3-.4-4.5-1.3-.8-.6-1.6-1.3-2.3-2-.8-.8-1.3-1.6-2.1-2.6-.7-1-1.4-2.1-2.1-3.1l-.2-.3.4-.1c1.6-.3 3.2-.5 4.8-.7 1.8-.2 2.6-.2 3.3-.1 1.1.1 2.2.4 3.3.9 1.5.9 3.5 2.6 4.4 5.5.2.7.4 1.5.4 2.3v.2l-.2.1c-.6.3-1.2.4-1.9.6-1.4.4-2.4.5-3 .5 0 .1-.1.1-.3.1zm-10.2-8.9c.6 1 1.2 1.9 1.8 2.8.7 1 1.2 1.7 2.1 2.6.7.7 1.4 1.3 2.2 1.9 1.5.8 3 1.2 4.5 1.2.6 0 1.5-.1 2.9-.5.5-.1 1.1-.3 1.6-.5-.1-.7-.2-1.4-.4-2-.8-2.8-2.7-4.3-4.1-5.2-1-.4-2-.8-3.1-.9-.5-.1-1.2-.1-3.2.1-1.4 0-2.9.2-4.3.5z"/>
  <path fill="#FFD345" d="M99.2 111.2c.7-1 1.7-2.3 3-3.8.8 1.3 1.3 2.4 1.7 3.3.5 1.2.9 2 1.2 3.1.4 1.2.5 2.2.6 2.9 0 2.4-.8 4-1.3 4.7-.7 1.1-1.7 2.1-1.9 2.3-.6.6-1.1 1-1.4 1.3-.6-.4-1.2-.9-1.8-1.5-2.2-2.4-2.5-5.1-2.5-6.3.1-.8.2-1.9.8-3.2.2-.5.5-1.2 1.6-2.8z"/>
  <path fill="#FAB624" d="M101 125.4l-.2-.1c-.7-.4-1.3-1-1.8-1.5-2.1-2.2-2.6-4.7-2.6-6.5.1-1.2.4-2.3.8-3.3.3-.6.6-1.3 1.7-2.8.9-1.3 1.9-2.6 3-3.8l.3-.3.2.3c.6 1.1 1.2 2.2 1.7 3.3.5 1.2.9 2 1.2 3.1.3 1 .5 2 .6 3 0 1.8-.4 3.5-1.3 4.9-.3.5-.9 1.3-1.9 2.4-.4.4-1 .9-1.5 1.3h-.2zm-1.6-14c-1.2 1.6-1.5 2.2-1.7 2.7-.4 1-.7 2.1-.8 3.1 0 1.6.5 4 2.5 6.1.4.5 1 .9 1.5 1.3.4-.4.9-.8 1.3-1.2 1-1 1.6-1.8 1.9-2.3.8-1.3 1.2-2.8 1.2-4.6-.1-.9-.3-1.9-.6-2.9-.3-1.1-.7-1.9-1.2-3-.4-1-1-2-1.5-3-.8 1.5-1.7 2.6-2.6 3.8z"/>
  <path fill="#FFD345" d="M92.6 116.8c-1.2.3-2.7.8-4.6 1.5 1 1.2 1.9 2.1 2.5 2.7.9.9 1.5 1.5 2.5 2.2 1 .7 1.9 1.2 2.6 1.5 2.3.8 4 .6 4.8.4 1.2-.3 2.5-.9 2.8-1 .7-.3 1.3-.7 1.7-.9-.2-.7-.4-1.4-.8-2.2-1.5-2.9-3.9-4.1-5.1-4.5-.8-.2-1.9-.4-3.3-.4-.6.1-1.3.2-3.1.7z"/>
  <path fill="#FAB624" d="M98.7 125.6c-1.1 0-2.2-.2-3.3-.6-.9-.4-1.8-1-2.6-1.6-1-.7-1.6-1.3-2.5-2.2-.9-.9-1.7-1.8-2.5-2.8l-.3-.3.4-.1c1.5-.6 3.1-1.1 4.6-1.5 2-.5 2.7-.6 3.3-.6 1.2-.1 2.3.1 3.4.4 1.6.6 3.8 2 5.2 4.7.3.7.6 1.4.8 2.2l.1.2-.2.1c-.6.3-1.2.6-1.7.9-1.3.6-2.3.9-2.9 1-.6.2-1.2.2-1.8.2zm-10.3-7.2c.7.8 1.5 1.7 2.2 2.4.9.9 1.5 1.5 2.4 2.2.8.6 1.6 1.1 2.5 1.5 1.6.6 3.2.7 4.7.4.5-.1 1.5-.4 2.8-1 .5-.2 1-.5 1.5-.8-.2-.7-.4-1.3-.7-1.9-1.3-2.6-3.4-3.8-4.9-4.4-1-.3-2.1-.4-3.2-.4-.5 0-1.2.1-3.1.6-1.4.5-2.8.9-4.2 1.4z"/>
  <path fill="#FFD345" d="M96.7 122.7c-1.1.5-2.6 1.2-4.3 2.1 1.1 1 2.1 1.8 2.9 2.3 1 .8 1.7 1.3 2.8 1.8 1.1.6 2.1 1 2.8 1.2 2.4.5 4 0 4.8-.3 1.2-.4 2.4-1.2 2.7-1.4.6-.4 1.2-.8 1.6-1.2-.3-.6-.6-1.3-1.1-2-1.9-2.7-4.4-3.5-5.6-3.8-.8-.1-2-.2-3.3.1-.8.2-1.5.4-3.3 1.2z"/>
  <path fill="#FAB624" d="M102.8 130.6c-.7 0-1.4-.1-2.1-.2-1-.3-1.9-.7-2.8-1.2-1-.6-1.8-1.1-2.8-1.9-1-.7-2-1.5-2.9-2.4l-.3-.3.3-.2c1.4-.8 2.9-1.5 4.4-2.1 1.7-.7 2.4-1 3.1-1.1 1.1-.2 2.3-.3 3.4-.1 1.7.4 4.1 1.4 5.8 3.9.4.6.8 1.3 1.1 2.1l.1.2-.1.1c-.5.4-1 .8-1.6 1.2-1.2.8-2.2 1.2-2.7 1.4-.9.4-1.9.6-2.9.6zm-9.9-5.8c.8.7 1.7 1.4 2.6 2.1 1 .7 1.7 1.3 2.7 1.8.9.5 1.8.8 2.7 1.2 1.6.3 3.3.3 4.7-.3.5-.2 1.4-.6 2.6-1.4.5-.3.9-.6 1.4-1-.3-.6-.6-1.2-1-1.8-1.7-2.4-3.9-3.3-5.5-3.7-1.1-.1-2.1-.1-3.2.1-.5.1-1.2.3-3 1.1-1.4.6-2.7 1.2-4 1.9z"/>
  <path fill="#FFD345" d="M102.5 116.1c.6-1.1 1.4-2.5 2.4-4.2.9 1.2 1.6 2.2 2.1 3.1.7 1.1 1.2 1.8 1.6 2.9.5 1.1.8 2.1 1 2.8.3 2.4-.3 4-.6 4.8-.5 1.1-1.4 2.2-1.6 2.5-.5.6-.9 1.1-1.3 1.5-.6-.3-1.3-.7-1.9-1.3-2.5-2.1-3.1-4.7-3.3-5.9-.1-.8 0-2 .4-3.3.1-.5.3-1.2 1.2-2.9z"/>
  <path fill="#FAB624" d="M106.2 129.9l-.2-.1c-.7-.4-1.4-.8-2-1.3-2.4-1.9-3.2-4.4-3.4-6.1-.1-1.2.1-2.3.4-3.4.2-.7.5-1.4 1.3-3 .7-1.4 1.6-2.8 2.4-4.2l.2-.3.2.3c.8 1 1.5 2.1 2.1 3.1.7 1.1 1.2 1.8 1.6 2.9.4.9.7 1.9 1 2.9.3 1.8 0 3.5-.7 5-.3.5-.7 1.4-1.6 2.6-.4.5-.8 1-1.3 1.5v.1zm-3.4-13.7c-.9 1.7-1.2 2.4-1.3 2.9-.3 1-.4 2.1-.3 3.2.3 1.6 1 3.9 3.2 5.7.5.4 1.1.8 1.7 1.1.4-.4.8-.9 1.1-1.3.9-1.2 1.3-2 1.6-2.5.6-1.3.8-3 .6-4.7-.2-.9-.5-1.9-.9-2.8-.5-1-1-1.8-1.6-2.9-.6-.9-1.2-1.8-1.9-2.7-.8 1.5-1.5 2.8-2.2 4z"/>
  <path fill="#E4473E" d="M142.1 102.2h16.7l-2-8.8c-.2-.8-.8-1.6-1.6-1.9-2.2-.9-5-1.8-8.1-2.5-2.1-.4-4-.7-5.7-.8l.8 4.7v.2l.3 2-.3.1-.1 7zm-5.5-3.8l2.2 3.3s-4.6.1-4.7.1c-.1 0-3.6-.4-3.6-.4l6.1-3z"/>
  <path fill="#D6463A" d="M150.8 94.2h-.4c-.1 0-.1-.1-.1-.1v-3.3c0-.1.1-.1.1-.1h.4c.1 0 .1.1.1.1v3.3c0 .1 0 .1-.1.1zm1.9.6h-.4c-.1 0-.1-.1-.1-.1v-3.3c0-.1.1-.1.1-.1h.4c.1 0 .1.1.1.1v3.3c0 .1-.1.1-.1.1zm1.7.7h-.4c-.1 0-.1-.1-.1-.1v-3.3c0-.1.1-.1.1-.1h.4c.1 0 .1.1.1.1v3.3c0 .1 0 .1-.1.1z"/>
  <path fill="#E4473E" d="M140.9 95.5l-1.2-7.4h-23.2v14.1h24.8v-6.8l-.4.1zm-4.1 5.8h-15.6v-13h15.1l.5 1.7v11.3z"/>
  <path fill="#C8483E" d="M121.1 89.7l1.6 12.9 15.5-1.9-1.4-11.3-.7-1.6"/>
  <path fill="#1E303B" d="M142.5 95.8l-.7-4.4-1.5-9.6c0-.2.1-.3.3-.4l.7-.1c.4-.1.6-.4.6-.8l-.2-1c-.1-.4-.4-.6-.8-.6l-2.2.4c-.1 0-.1 0-.1.1-.1 0-.4.1-.6.5-.3.4-.2.8-.2.8l1.7 10.6 1.2 7.6h.1v6.7h1.7v-9.8z"/>
  <path fill="#C8483E" d="M158.6 102.3h-5.1c-.3 0-.5-.2-.5-.4l-.2-.9c-.1-.3.2-.7.5-.7h5.1c.3 0 .5.2.5.4l.2.9c.1.4-.1.7-.5.7z"/>
  <path fill="#ECECEE" d="M134.6 74.2l2.2 15.8h-21.1l3.1-15.5"/>
  <path fill="#26313B" d="M136.9 90.1h-21.4l3.2-15.7 16-.4 2.2 16.1zm-21.1-.2h20.8l-2.2-15.5-15.6.3-3 15.2z"/>
  <path fill="#1E303B" d="M131.4 76.1v2.8c0 .6.5 1.2 1.2 1.2.6 0 1.2-.5 1.2-1.2v-2.8c0-.6-.5-1.2-1.2-1.2s-1.2.5-1.2 1.2z"/>
  <path fill="#E4473E" d="M118.1 73.8h17.6c.4 0 .7.7.5 1.2l-.2.5c-.1.3-.3.4-.5.4h-17.4c-.3 0-.6-.4-.6-.8v-.5c0-.4.3-.8.6-.8z"/>
  <path fill="#12181D" d="M129.8 104.3h6v2h-6zm0-2.2h6v2h-6zm0-2.3h6v2h-6z"/>
  <path fill="#828588" d="M135.9 102.1v1.9h-6.1v-1.9h-.2v2.2h6.5v-2.2m-.2 2.2v1.9h-6.1v-1.9h-.2v2.2h6.5v-2.2m-6.5-4.7v2.5h6.6v-2.5h-6.6zm6.3 2.2h-6v-2h6v2z"/>
  <ellipse cx="118.7" cy="101.8" fill="#21292F" rx="10.9" ry="10.9"/>
  <ellipse cx="118.7" cy="101.8" fill="#DEDFE0" rx="6.4" ry="6.4"/>
  <ellipse cx="118.7" cy="101.8" fill="#21292F" rx="2.5" ry="2.5"/>
  <path fill="#E4473E" d="M118.7 90.9c4 0 7.6 2.2 9.5 5.5.2.4.9.3.9-.2v-1.4c0-.1 0-.2-.1-.3-2.3-3.2-6-5.3-10.2-5.3-4.4 0-8.3 2.3-10.6 5.8-.1.2-.1.5.2.7l.7.4c.2.1.5.1.6-.1 1.8-3.2 5.1-5.1 9-5.1z"/>
  <ellipse cx="145.2" cy="103.4" fill="#21292F" rx="9" ry="9"/>
  <ellipse cx="145.2" cy="103.4" fill="#DEDFE0" rx="5.3" ry="5.3"/>
  <ellipse cx="145.2" cy="103.4" fill="#21292F" rx="2.1" ry="2.1"/>
  <path fill="#4C5861" d="M124.3 76h.3v14.1h-.3z"/>
  <path fill="#DD4C41" d="M160.7 129.5l-7.8-16.3h-2.7l7.3 16.3"/>
  <path fill="#FDE4C4" d="M133.2 113.2v16.3h24.3l-7.2-16.3-.4-.8c-6.4-1.2-11.3-2-13.2-2.3-.5-.1-1.6-.2-2.5.4-.5.3-.8.8-1 1.2v1.5z"/>
  <path fill="#DD4C41" d="M108.7 129.5l7.3-16.3h-2.7l-7.8 16.3"/>
  <path fill="#FDE4C4" d="M133 129.5v-17.8c-.2-.4-.5-.9-1-1.2-.1-.1-.3-.2-.4-.3-.8-.3-1.6-.2-2.1-.1-1.9.3-6.7 1.1-13.2 2.3l-.4.8-7.2 16.3H133z"/>
  <path fill="#F3C290" d="M133 113.4v16.3l.2.5v-18.5h-.2v.1"/>
  <path fill="#C8483E" d="M162.9 126.1l.7-1.3 8.2-16.2c-3.8 2.9-9.7 6.8-17.7 9.7v16.3h7.3c3.5-1.8 6.9-3.5 10.4-5.3m-77.4-20.8c3.8 2.9 9.7 6.8 17.7 9.7v16.3h-7.2c-3.5-1.8-6.9-3.5-10.4-5.3l8.8-3.2-8.9-17.5z"/>
  <path fill="#983939" d="M161.3 118.3H154v3c3-1.1 5.5-2.2 7.3-3zm-49.1 2.9v-3H105c1.7.9 4.2 2 7.2 3z"/>
  <path fill="#E4473E" d="M161.3 125.3v-7.1c-1.8.9-4.3 2-7.2 3-5.5 1.9-12.8 3.6-21.4 3.5-8.2-.1-15.1-1.7-20.4-3.5-3-1-5.4-2.1-7.2-3v18.5c5.1 2.5 15.2 6.5 28.4 6.5 13-.1 22.8-4 27.9-6.5v-10.5l-.1-.9z"/>
  <path fill="#FFF" d="M118.2 129.8h-3.9v6.9h-2.2v-8.5h6.1v1.6zm8 0h-2.6v6.9h-2.2v-6.9h-2.6v-1.6h7.5l-.1 1.6zm10.2 6.9h-2.2V131l-1.6 3.7h-1.5l-1.6-3.7v5.7h-2.1v-8.5h2.5l1.9 4.3 1.9-4.3h2.5l.2 8.5zm10 0h-2.2l-.6-1.7h-3.1l-.6 1.7h-2.2l3.1-8.5h2.5l3.1 8.5zm-3.4-3.3l-1-3-1 3h2zm12.1-5.2L152 135c-.2.4-.4.7-.6 1-.2.3-.5.4-.7.5s-.5.2-.7.2-.5.1-.7.1h-1.7v-1.9h.1c.1 0 .2.1.4.1h.6c.4 0 .7 0 .9-.1.2-.1.4-.2.4-.3l-3.5-6.4h2.4l2.1 4 1.7-4h2.4z"/>
  <g fill="#26313B">
    <path d="M120.8 60.7c0 .1-.1.1-.1.2v.1c0 .1.1.2.2.3.1.1.2.1.3.1.1 0 .2-.1.3-.1L133 54l11.5 7.2c.1.1.1.1.2.1h.1c.1 0 .2 0 .3-.1.1-.1.1-.2.2-.3 0-.1 0-.2-.1-.3l-2.6-8.8-1-3.2L149 44l10.7-6.7c.2-.1.3-.4.1-.6v-.1c-.1-.1-.3-.2-.4-.2h-21.6l-4.4-14.6c-.1-.2-.2-.3-.4-.3-.2-.1-.4.1-.5.3l-4.4 14.6h-21.6c-.2 0-.3 0-.4.2v.1c-.1.2-.1.4.1.6l10.3 6.5.3.2 7.6 4.8-1.2 4.1-2.4 7.8zm4.4-11.5l6.3 3.9H124l1.2-3.9zm.7-1.1l.4-.3 6.7-6 4.1 3.7 2.9 2.6.1.1h-13.7m10.1-10.8l-3.5 3.2-3.5-3.2h7zm-6.8-.9l3.2-2.2 3.2 2.2h-6.4zm-7.8 23.4l1.8-6h7.7l-9.5 6zm4.5-11h13.2l-1.7 1.1-4.8 3-6.7-4.1zm17.6 11l-9.5-6h7.7l1.8 6zm-2.5-8.2l.4 1.4h-7.4l3.8-2.4 2.5-1.5.7 2.5zm10.1-14.3h6.4l-9.3 5.8 2.9-5.6v-.2zm-1 0l-3 5.9-8.8-5.9h11.8zm-4.8 5.7l1.4 1-6 3.8-.5-1.7-2.4-8.2 7.5 5.1zm-5.8 3.8l-3.2-2.9-3.3-3 3.7-3.3 2.8 9.2zm-3.3-11l-3-2 2-1.3 1 3.3zM133 23.5l2.5 8.1-2.5 1.7-2.4-1.6 2.4-8.2zm-2.8 9l1.9 1.3-2.9 2 1-3.3zm-1.6 5.3l3.6 3.3-6.4 5.8 1.7-5.6 1.1-3.5zm-1.5-.4l-8.8 5.9-.1-.1-2.9-5.8h11.8zm-19.1 0h6.4l3 5.9-9.4-5.9zm10.7 6.7l1.7-1.1.8-.6 6.5-4.4-1 3.4-1.3 4.2-.7 2.2-6-3.7z"/>
    <path d="M106 42.9v-6.3c0-.1.1-.1.1-.1h.6c.1 0 .1.1.1.1V43c0 .1-.1.1-.1.1h-.6s-.1-.1-.1-.2z"/>
    <path d="M105.1 39.7h2.7c.1 0 .1.1.1.1v.6c0 .1-.1.1-.1.1h-2.7c-.1 0-.1-.1-.1-.1v-.6c-.1-.1 0-.1.1-.1zm0 1.2h2.7c.1 0 .1.1.1.1v.6c0 .1-.1.1-.1.1h-2.7c-.1 0-.1-.1-.1-.1V41c-.1 0 0-.1.1-.1zm0 1.3h2.7c.1 0 .1.1.1.1v.7c0 .1-.1.1-.1.1h-2.7c-.1 0-.1-.1-.1-.1v-.6c-.1-.1 0-.2.1-.2zm53.9.7v-6.3c0-.1.1-.1.1-.1h.6c.1 0 .1.1.1.1V43c0 .1-.1.1-.1.1h-.6s-.1-.1-.1-.2z"/>
    <path d="M158.1 39.7h2.7c.1 0 .1.1.1.1v.6c0 .1-.1.1-.1.1h-2.7c-.1 0-.1-.1-.1-.1v-.6c-.1-.1 0-.1.1-.1zm0 1.2h2.7c.1 0 .1.1.1.1v.6c0 .1-.1.1-.1.1h-2.7c-.1 0-.1-.1-.1-.1V41c-.1 0 0-.1.1-.1zm0 1.3h2.7c.1 0 .1.1.1.1v.7c0 .1-.1.1-.1.1h-2.7c-.1 0-.1-.1-.1-.1v-.6c-.1-.1 0-.2.1-.2z"/>
  </g>
</svg>
