<svg xmlns="http://www.w3.org/2000/svg" viewBox="0 0 31.25 46.9"><defs><style>.cls-1,.cls-2{fill:#fff;}.cls-1{opacity:0.51;}.cls-2{opacity:0.7;}.cls-3{fill:#cdcccc;}.cls-4{fill:#e5e5e4;}.cls-5{fill:#ececee;}.cls-6{fill:#e3473e;}.cls-7{fill:#ffd241;}.cls-8{fill:#0d64a1;}.cls-9{fill:#0fad8a;}</style></defs><title>Ресурс 1</title><g id="Слой_2" data-name="Слой 2"><g id="Layer_1" data-name="Layer 1"><path class="cls-1" d="M17,41.59a38.51,38.51,0,0,1,14.2,2.65h.05L16.85,10.91a1.7,1.7,0,0,0-3.17.12L2.22,44.24h.06A38.75,38.75,0,0,1,17,41.59Z"/><path class="cls-2" d="M31.22,44.24h-.05A38.51,38.51,0,0,0,17,41.59a38.75,38.75,0,0,0-14.7,2.65H2.22l0,0A39.06,39.06,0,0,0,16.48,46.9a39.3,39.3,0,0,0,14.77-2.62Z"/><path class="cls-3" d="M29.61,7.66c0,1-6.49,4.2-14.5,4.2S.61,8.71.61,7.66s6.49-4.2,14.5-4.2S29.61,6.64,29.61,7.66Z"/><path class="cls-4" d="M30.23,7.17c0,1-6.77,3.86-15.11,3.86S0,8.13,0,7.17,6.77,3.31,15.11,3.31,30.23,6.23,30.23,7.17Z"/><path class="cls-3" d="M21.08,5.07c0,2.8-2.67,3-6,3s-6-.16-6-3S11.82,0,15.11,0,21.08,2.27,21.08,5.07Z"/><path class="cls-5" d="M21.08,4.28c0,2.36-2.67,2.49-6,2.49s-6-.13-6-2.49S11.82,0,15.11,0,21.08,1.91,21.08,4.28Z"/><ellipse class="cls-6" cx="2.2" cy="7.11" rx="0.81" ry="0.35" transform="translate(-2.32 1.2) rotate(-20.21)"/><ellipse class="cls-7" cx="6.98" cy="8.93" rx="0.83" ry="0.41" transform="translate(-3.98 6.05) rotate(-37.28)"/><ellipse class="cls-8" cx="23.71" cy="8.93" rx="0.41" ry="0.83" transform="translate(2.24 22.38) rotate(-52.72)"/><ellipse class="cls-9" cx="15.11" cy="9.88" rx="0.6" ry="0.71"/><ellipse class="cls-6" cx="28.18" cy="7.11" rx="0.35" ry="0.81" transform="translate(11.77 31.1) rotate(-69.79)"/></g></g></svg>