<?xml version="1.0" encoding="utf-8"?>
<!-- Generator: Adobe Illustrator 21.0.0, SVG Export Plug-In . SVG Version: 6.00 Build 0)  -->
<svg version="1.1" baseProfile="tiny" id="Слой_1"
	 xmlns="http://www.w3.org/2000/svg" xmlns:xlink="http://www.w3.org/1999/xlink" x="0px" y="0px" viewBox="0 0 500 500"
	 overflow="scroll" xml:space="preserve">
<path display="none" fill="#FFFFFF" d="M197.2,86l-51.5,26.9l-22.1,252.6l217.3-8l46.5-57.8L395,216c0,0-56.9-75.3-59.4-76.4
	c-2.5-1-50.8-31.7-50.8-31.7L197.2,86z"/>
<polygon display="none" fill="#FFFFFF" points="249.5,10 234.3,61.5 226.8,60.2 160.9,61.5 221.5,98 222.8,100.5 211.4,142.2 
	249.5,117.4 289,142 276.6,100.5 338.8,60.8 266.5,58.7 "/>
<g id="XMLID_3_" display="none">
	<rect id="XMLID_2335_" x="3.1" y="-25.2" fill="#F9F8F7" width="483.7" height="483.9"/>
	<g id="XMLID_2326_" display="inline">
		<line id="XMLID_2333_" fill="none" x1="276.6" y1="102.4" x2="276.6" y2="102.4"/>
		<path id="XMLID_2330_" fill="#D8D8D8" d="M339.7,131.5c-17.3-12.9-37.4-22.3-59.3-26.8l2.1,7.1l5,16.6
			c52.2,15.9,90.1,64.2,90.1,121.4c0,70.1-57.1,127-127.6,127s-127.7-56.9-127.7-127c0-57.1,37.8-105.3,90-121.3l4.1-13.6l3.1-10.2
			c-67.6,14-118.4,73.7-118.4,145.1c0,81.9,66.7,148.2,149,148.2c46.8,0,88.4-21.4,115.7-55c15.6-19.2,26.5-42.3,31-67.6
			c1.4-8.3,2.2-16.9,2.2-25.7c0-6-0.4-11.9-1.1-17.6c-3.1-25.7-12.7-49.3-27.2-69.2C362,151.1,351.5,140.5,339.7,131.5z"/>
		<path id="XMLID_2329_" fill="#DADBDA" d="M256.1,123l-6.3-4l0,0l-6.3,4c2.1-0.1,4.1-0.2,6.3-0.2
			C252.1,122.9,254.1,122.9,256.1,123z"/>
		<path id="XMLID_2328_" fill="#DADBDA" d="M291.7,142.9c0,0.4-0.3,0.8-0.6,1c-0.3,0.3-0.7,0.4-1.1,0.3c-0.1,0-0.2,0-0.3-0.1
			c-0.2-0.1-0.4-0.2-0.6-0.3L256.1,123c-2-0.1-4.1-0.2-6.2-0.2c-2.1,0-4.2,0.1-6.3,0.2l-33.1,20.7c-0.2,0.2-0.5,0.4-0.9,0.4
			c-0.4,0.1-0.8-0.1-1.1-0.3c-0.4-0.2-0.6-0.6-0.6-1c0-0.1,0-0.2,0-0.3c0-0.2,0.1-0.4,0.2-0.6l4.1-13.5c-52.1,16-90,64.2-90,121.3
			c0,70.1,57.1,127,127.6,127s127.6-56.9,127.6-127c0-57.1-37.9-105.4-90.1-121.4l4.1,13.5C291.7,142.2,291.8,142.6,291.7,142.9z"/>
		<path id="XMLID_2327_" fill="#E5E4E3" d="M291.7,142.9c0,0.4-0.3,0.8-0.6,1c-0.3,0.3-0.7,0.4-1.1,0.3c-0.1,0-0.2,0-0.3-0.1
			c-0.2-0.1-0.4-0.2-0.6-0.3L256.1,123c-2-0.1-4.1-0.2-6.2-0.2c-2.1,0-4.2,0.1-6.3,0.2l-33.1,20.7c-0.2,0.2-0.5,0.4-0.9,0.4
			c-0.4,0.1-0.8-0.1-1.1-0.3c-0.4-0.2-0.6-0.6-0.6-1c0-0.1,0-0.2,0-0.3c0-0.2,0.1-0.4,0.2-0.6l4.1-13.5c-52.1,16-90,64.2-90,121.3
			c0,70.1,57.1,127,127.6,127s127.6-56.9,127.6-127c0-57.1-37.9-105.4-90.1-121.4l4.1,13.5C291.7,142.2,291.8,142.6,291.7,142.9z"/>
	</g>
	<ellipse id="XMLID_2323_" display="inline" fill="#055D9D" cx="249.9" cy="249.8" rx="108.2" ry="107.6"/>
	<path id="XMLID_2320_" display="inline" fill="#0D65A3" d="M147.5,284.6c-3.8-10.9-5.8-22.7-5.8-34.8
		c0-59.5,48.4-107.6,108.2-107.6c34.8,0,65.9,16.4,85.6,41.9"/>
	<path id="XMLID_858_" display="inline" fill="none" d="M360.6,203.3c17.3,66.8-23.1,135.1-90.4,152.5S134.6,333,117.3,266.2
		s23.1-135.1,90.4-152.5S343.2,136.5,360.6,203.3z"/>
	<g id="XMLID_2318_">
		
			<text transform="matrix(0.7845 0.6195 -0.6197 0.7849 313.997 134.3196)" display="inline" fill="#E7E6E6" font-family="'ArialMT'" font-size="12.1725px">D</text>
		
			<text transform="matrix(0.7485 0.6623 -0.6626 0.7489 320.27 139.3075)" display="inline" fill="#E7E6E6" font-family="'ArialMT'" font-size="12.173px">e</text>
		
			<text transform="matrix(0.7194 0.6938 -0.6941 0.7198 324.7664 143.2988)" display="inline" fill="#E7E6E6" font-family="'ArialMT'" font-size="12.173px">s</text>
		
			<text transform="matrix(0.698 0.7153 -0.7156 0.6985 328.18 146.6139)" display="inline" fill="#E7E6E6" font-family="'ArialMT'" font-size="12.1736px">i</text>
		
			<text transform="matrix(0.6704 0.7413 -0.7416 0.6708 330.1318 148.5558)" display="inline" fill="#E7E6E6" font-family="'ArialMT'" font-size="12.1733px">g</text>
		
			<text transform="matrix(0.6302 0.7758 -0.7761 0.6306 334.5732 153.4609)" display="inline" fill="#E7E6E6" font-family="'ArialMT'" font-size="12.1728px">n</text>
		
			<text transform="matrix(0.5897 0.8071 -0.8074 0.5901 338.7672 158.6356)" display="inline" fill="#E7E6E6" font-family="'ArialMT'" font-size="12.1726px">e</text>
		
			<text transform="matrix(0.5475 0.8363 -0.8366 0.5478 342.3014 163.4507)" display="inline" fill="#E7E6E6" font-family="'ArialMT'" font-size="12.1718px">d</text>
		
			<text transform="matrix(0.5156 0.8564 -0.8567 0.5159 345.9911 169.159)" display="inline" fill="#E7E6E6" font-family="'ArialMT'" font-size="12.1725px"> </text>
		
			<text transform="matrix(0.4828 0.8753 -0.8756 0.4831 347.3224 171.2863)" display="inline" fill="#E7E6E6" font-family="'ArialMT'" font-size="12.1723px">b</text>
		
			<text transform="matrix(0.4389 0.8981 -0.8984 0.4393 350.5526 177.166)" display="inline" fill="#E7E6E6" font-family="'ArialMT'" font-size="12.1726px">y</text>
		
			<text transform="matrix(0.409 0.9121 -0.9124 0.4093 353.024 182.2777)" display="inline" fill="#E7E6E6" font-family="'ArialMT'" font-size="12.1719px"> </text>
		
			<text transform="matrix(0.3752 0.9265 -0.9268 0.3755 354.0782 184.5327)" display="inline" fill="#E7E6E6" font-family="'ArialMT'" font-size="12.1728px">Z</text>
		
			<text transform="matrix(0.3288 0.944 -0.9443 0.3291 356.5135 190.5547)" display="inline" fill="#E7E6E6" font-family="'ArialMT'" font-size="12.172px">e</text>
		
			<text transform="matrix(0.2956 0.9549 -0.9552 0.2959 358.4631 196.2286)" display="inline" fill="#E7E6E6" font-family="'ArialMT'" font-size="12.1717px">l</text>
		
			<text transform="matrix(0.2659 0.9636 -0.9639 0.2661 359.3088 198.9032)" display="inline" fill="#E7E6E6" font-family="'ArialMT'" font-size="12.1714px">e</text>
		
			<text transform="matrix(0.2136 0.9766 -0.9769 0.2138 360.9026 204.6807)" display="inline" fill="#E7E6E6" font-family="'ArialMT'" font-size="12.1722px">n</text>
		
			<text transform="matrix(0.1692 0.9853 -0.9855 0.1694 362.3055 211.1879)" display="inline" fill="#E7E6E6" font-family="'ArialMT'" font-size="12.1714px">s</text>
		
			<text transform="matrix(0.1282 0.9914 -0.9917 0.1284 363.1169 215.8454)" display="inline" fill="#E7E6E6" font-family="'ArialMT'" font-size="12.1717px">k</text>
		
			<text transform="matrix(9.287436e-02 0.9955 -0.9957 9.307733e-02 363.8391 221.6516)" display="inline" fill="#E7E6E6" font-family="'ArialMT'" font-size="12.1712px">i</text>
		
			<text transform="matrix(5.908426e-02 0.9979 -0.9982 5.927299e-02 364.122 224.3992)" display="inline" fill="#E7E6E6" font-family="'ArialMT'" font-size="12.1714px">y</text>
		
			<text transform="matrix(2.611750e-02 0.9995 -0.9997 2.629215e-02 364.4297 230.051)" display="inline" fill="#E7E6E6" font-family="'ArialMT'" font-size="12.1713px"> </text>
		
			<text transform="matrix(-1.379304e-02 0.9996 -0.9999 -1.363567e-02 364.5453 232.5497)" display="inline" fill="#E7E6E6" font-family="'ArialMT'" font-size="12.1718px">A</text>
		
			<text transform="matrix(-5.466494e-02 0.9982 -0.9985 -5.452554e-02 364.4012 239.89)" display="inline" fill="#E7E6E6" font-family="'ArialMT'" font-size="12.1718px">l</text>
		
			<text transform="matrix(-9.023960e-02 0.9956 -0.9959 -9.011607e-02 364.2771 242.6867)" display="inline" fill="#E7E6E6" font-family="'ArialMT'" font-size="12.1715px">e</text>
		
			<text transform="matrix(-0.1362 0.9905 -0.9907 -0.1361 363.7374 248.6265)" display="inline" fill="#E7E6E6" font-family="'ArialMT'" font-size="12.1708px">x</text>
		
			<text transform="matrix(-0.1811 0.9833 -0.9835 -0.181 362.9894 254.0943)" display="inline" fill="#E7E6E6" font-family="'ArialMT'" font-size="12.1709px">a</text>
		
			<text transform="matrix(-0.23 0.973 -0.9732 -0.2299 361.9576 259.768)" display="inline" fill="#E7E6E6" font-family="'ArialMT'" font-size="12.1706px">n</text>
		
			<text transform="matrix(-0.2819 0.9593 -0.9595 -0.2818 360.4366 266.2274)" display="inline" fill="#E7E6E6" font-family="'ArialMT'" font-size="12.1711px">d</text>
		
			<text transform="matrix(-0.3303 0.9437 -0.9439 -0.3303 358.5266 272.6993)" display="inline" fill="#E7E6E6" font-family="'ArialMT'" font-size="12.1711px">e</text>
		
			<text transform="matrix(-0.3674 0.9299 -0.93 -0.3675 356.5188 278.3788)" display="inline" fill="#E7E6E6" font-family="'ArialMT'" font-size="12.1705px">r</text>
	</g>
	<g id="XMLID_2310_" display="inline">
		<path fill="#15AE8B" d="M249.9,357.6c39,0,73.1-20.3,92.3-51H157.8C176.9,337.2,211.1,357.6,249.9,357.6z"/>
	</g>
	<g id="XMLID_2272_" display="inline">
		<g id="XMLID_2273_">
			<path id="XMLID_2307_" fill="#FAB624" d="M202.6,89.3l-5.4-3.4c-18.8,6.1-36.2,15.2-51.5,26.9c0.8,1.5,1.4,3.1,2.1,4.5
				C164,104.9,182.4,95.3,202.6,89.3z"/>
			<path id="XMLID_2304_" fill="#FFD345" d="M202.3,88.6c-20.2,6-38.8,15.6-55,28.1c0.7,1.4,1.3,2.7,1.7,4c17-13.2,36.6-23.2,58-29
				L202.3,88.6z"/>
			<path id="XMLID_2301_" fill="#FAB624" d="M207,91.6c-21.4,5.8-41,15.8-58,29c0.3,0.6,0.5,1.2,0.7,1.6c0.3,0.7,0.6,1.4,0.8,1.9
				c17.6-14,38.3-24.3,60.9-29.9L207,91.6z"/>
			<path id="XMLID_2298_" fill="#FFD345" d="M211.5,94.4c-22.6,5.6-43.2,15.9-60.9,29.9c0.7,1.6,1.2,3,1.5,4.1
				c18.4-14.9,40.4-25.7,64.3-31L211.5,94.4z"/>
			<path id="XMLID_2295_" fill="#FAB624" d="M221.2,100.4L221.2,100.4l-4.7-3c-24,5.3-45.9,16.1-64.3,31c0.7,1.8,1,3.1,1.2,4.2
				c19.2-15.9,42.4-27.1,68-32L221.2,100.4z"/>
			<path id="XMLID_2292_" fill="#FFD345" d="M219.8,105.5l1.4-4.9c-25.5,4.9-48.7,16.2-68,32c0,0.1,0,0.2,0.1,0.3
				c0.3,1.4,0.4,2.6,0.5,3.9c0.5,0,1,0.1,1.4,0.1C173.5,121.6,195.5,110.6,219.8,105.5z"/>
			<path id="XMLID_2289_" fill="#FAB624" d="M160.8,138c16.6-13.2,36.1-22.9,57.5-27.7l1.4-4.8c-24.2,5.1-46.3,16.1-64.5,31.4
				C156.9,137,158.8,137.4,160.8,138z"/>
			<path id="XMLID_2286_" fill="#FFD345" d="M161.5,138c1.1,0.3,2.2,0.7,4.1,1.5c14.9-11.5,32.4-20.1,51.4-24.7l1.4-4.7
				c-21.3,4.9-40.9,14.5-57.5,27.7C161,138,161.3,138,161.5,138z"/>
			<path id="XMLID_2283_" fill="#FAB624" d="M170.4,142c13.3-9.8,28.4-17.3,44.9-21.7l1.6-5.4c-18.9,4.6-36.4,13.2-51.4,24.7
				C166.7,140.2,168.4,140.9,170.4,142z"/>
			<path id="XMLID_2280_" fill="#FAB624" d="M177.5,146.7c10.8-7.1,22.7-12.8,35.4-16.7l1.9-6.2c-15.4,4.3-29.8,11.1-42.5,19.9
				C173.9,144.6,175.7,145.7,177.5,146.7z"/>
			<path id="XMLID_2277_" fill="#F6D646" d="M171.2,143c0.9,0.5,1.8,1.1,2.9,1.6c12.1-8.7,25.6-15.3,40.2-19.6l1.5-5
				c-16.8,4.5-32.3,12.2-45.9,22.2C170.3,142.5,170.7,142.8,171.2,143z"/>
			<path id="XMLID_2274_" fill="#FFD345" d="M170.9,142.7c0.9,0.5,1.8,1.1,2.9,1.6c12.1-8.7,25.6-15.3,40.2-19.6l1.5-5
				c-16.8,4.5-32.3,12.2-45.9,22.2C169.9,142.2,170.4,142.5,170.9,142.7z"/>
		</g>
	</g>
	<g id="XMLID_2260_" display="inline">
		<path id="XMLID_2269_" fill="#FFD345" d="M171.1,143.1c3.7,2,8.5,4.8,14.1,8.6c-4.1,3.1-7.8,5.4-10.6,7.1c-3.9,2.3-6.4,3.9-10,5.4
			c-4,1.6-7.3,2.6-9.7,3.1c-8.2,1-13.9-1.3-16.5-2.5c-3.9-1.8-7.7-4.8-8.7-5.6c-2.1-1.6-3.8-3.3-5-4.4c1.1-2.1,2.5-4.3,4.4-6.6
			c7.2-8.6,16.3-10.5,20.4-11.2c2.8-0.1,6.8,0,11.4,1.4C163,139,165.3,139.9,171.1,143.1z"/>
		<path id="XMLID_2261_" fill="#FAB624" d="M150.8,168.4c-4.6,0-9.1-1-12.8-2.8c-1.8-0.9-4.8-2.6-8.8-5.7c-1.7-1.4-3.5-2.9-5.1-4.4
			l-0.5-0.5l0.3-0.6c1.3-2.5,2.8-4.7,4.5-6.8c6.8-8,15.1-10.6,21-11.5c4.1-0.2,7.9,0.3,11.8,1.4c2.3,0.7,4.8,1.7,10.3,4.7l0,0
			c4.7,2.6,9.5,5.5,14.2,8.6l1.1,0.8l-1.1,0.8c-3.5,2.5-7,4.9-10.6,7.1c-3.7,2.2-6.4,3.9-10.1,5.5c-3.2,1.4-6.6,2.4-9.9,3.2
			C153.6,168.3,152.3,168.4,150.8,168.4z M125.9,154.6c1.4,1.4,2.9,2.7,4.4,3.9c3.9,3.1,6.8,4.7,8.5,5.5c4.6,2.2,10.1,3.1,15.9,2.4
			c3.2-0.7,6.4-1.7,9.5-3c3.7-1.5,6.3-3.2,9.8-5.4c3.2-1.9,6.4-4.1,9.5-6.3c-4.2-2.8-8.6-5.4-12.9-7.8l0,0c-6-3.3-8.2-4.1-9.9-4.6
			c-3.6-1.1-7.3-1.5-11.1-1.4c-5.5,0.8-13.4,3.3-19.8,10.8C128.3,150.5,127.1,152.5,125.9,154.6z"/>
	</g>
	<g id="XMLID_2248_" display="inline">
		<path id="XMLID_2257_" fill="#FFD345" d="M149.3,122.6c-1.6-3.9-3.9-9-7-14.9c-3.5,3.9-6.2,7.1-8.2,9.7c-2.7,3.6-4.5,5.9-6.5,9.4
			c-2.1,3.8-3.4,7-4.1,9.4c-1.8,8.1-0.3,13.9,0.7,16.7c1.4,4.1,4.1,8.2,4.6,9.2c1.4,2.3,2.8,4.1,3.9,5.4c2.2-0.9,4.6-2,7-3.7
			c9.3-6.3,12.2-15,13.3-19.1c0.4-2.7,0.7-6.8-0.2-11.4C152.4,131.2,151.8,128.7,149.3,122.6z"/>
		<path id="XMLID_2249_" fill="#FAB624" d="M132.3,168.5l-0.4-0.5c-1.4-1.7-2.7-3.7-3.9-5.5c-2.7-4.3-4.1-7.5-4.7-9.4
			c-1.8-5.2-2-11.1-0.7-17.2c1.1-3.4,2.5-6.6,4.2-9.6c2-3.6,3.9-6.1,6.6-9.5c2.6-3.4,5.3-6.7,8.3-9.8l0.9-1l0.6,1.2
			c2.6,4.9,4.9,10,7,15l0,0c2.4,5.8,3.2,8.5,3.6,10.8c0.7,3.9,0.8,7.8,0.2,11.8c-1.4,5.8-5,13.9-13.7,19.8c-2.2,1.4-4.6,2.8-7.2,3.8
			L132.3,168.5z M142,109.3c-2.5,2.8-5,5.8-7.2,8.8c-2.6,3.4-4.4,5.8-6.4,9.3c-1.6,3-3,6.1-4.1,9.3c-1.3,5.6-1.1,11.2,0.7,16
			c0.7,1.8,1.9,4.8,4.5,9.1c1.1,1.6,2.1,3.3,3.4,4.8c2.2-1,4.3-2,6.3-3.3c8.2-5.5,11.6-13.1,12.9-18.6c0.6-3.7,0.5-7.3-0.2-11
			c-0.3-1.8-0.9-4.1-3.5-10.4l0,0C146.5,118.4,144.3,113.8,142,109.3z"/>
	</g>
	<g id="XMLID_2027_" display="inline">
		<path id="XMLID_2245_" fill="#FFD345" d="M156.7,155c3.9,1.5,9.1,3.8,15,6.8c-3.8,3.6-7,6.4-9.6,8.4c-3.5,2.8-5.9,4.6-9.3,6.7
			c-3.7,2.1-6.9,3.5-9.3,4.3c-8,2-13.9,0.5-16.7-0.4c-4.1-1.4-8.2-3.9-9.3-4.5c-2.3-1.4-4.1-2.7-5.5-3.8c0.9-2.2,1.9-4.6,3.6-7.1
			c6.1-9.4,14.9-12.5,18.9-13.6c2.7-0.5,6.7-0.8,11.4,0C148.1,151.9,150.6,152.5,156.7,155z"/>
		<path id="XMLID_2028_" fill="#FAB624" d="M135.7,182.9c-3.2,0-6.2-0.5-9-1.4c-1.9-0.7-5.1-1.9-9.5-4.6c-1.9-1.2-3.8-2.4-5.6-3.9
			l-0.6-0.4l0.2-0.7c1-2.6,2.2-5,3.7-7.2c5.7-8.8,13.7-12.4,19.4-14c4-0.7,7.9-0.7,11.8-0.1c2.3,0.4,5,1.1,10.8,3.4
			c5,2,10.1,4.2,15.1,6.8l1.2,0.6l-1,0.9c-3.1,3-6.4,5.8-9.6,8.4c-3.4,2.7-5.8,4.6-9.4,6.7c-3,1.7-6.2,3.3-9.5,4.3
			C141.2,182.6,138.4,182.9,135.7,182.9z M113.3,172.1c1.5,1.2,3.2,2.3,4.9,3.3c4.2,2.5,7.3,3.9,9.1,4.4c4.9,1.6,10.4,1.7,16.1,0.4
			c3.1-1.1,6.2-2.5,9.1-4.2c3.4-2,5.8-3.9,9.2-6.6c2.9-2.3,5.8-4.8,8.6-7.4c-4.5-2.2-9.3-4.3-13.8-6.2c-6.4-2.5-8.7-3-10.4-3.3
			c-3.7-0.6-7.4-0.6-11.1,0c-5.3,1.4-12.9,4.9-18.2,13.2C115.3,167.8,114.2,169.9,113.3,172.1z"/>
	</g>
	<g id="XMLID_2015_" display="inline">
		<path id="XMLID_2024_" fill="#FFD345" d="M133,137.4c-2-3.7-4.8-8.5-8.5-14.2c-3.1,4.1-5.4,7.8-7.1,10.5c-2.3,3.9-4,6.4-5.5,9.9
			c-1.6,4-2.6,7.3-3.2,9.7c-1,8.2,1.2,13.9,2.4,16.5c1.8,3.9,4.8,7.7,5.6,8.7c1.6,2.1,3.2,3.9,4.3,5c2.1-1.1,4.4-2.5,6.7-4.3
			c8.6-7.2,10.6-16.2,11.2-20.4c0.1-2.8,0-6.8-1.4-11.4C137,145.6,136.2,143.2,133,137.4z"/>
		<path id="XMLID_2016_" fill="#FAB624" d="M120.9,184.8l-0.5-0.5c-1.5-1.6-3.1-3.4-4.4-5.1c-3.2-4.1-4.8-7-5.7-8.9
			c-2.3-4.9-3.2-10.8-2.5-17c0.8-3.5,1.8-6.8,3.2-10c1.6-3.8,3.3-6.4,5.5-10.1c2.2-3.6,4.6-7.1,7.2-10.6l0.8-1.1l0.7,1.1
			c3.1,4.6,6,9.5,8.6,14.2l0,0c3,5.5,4.1,8.1,4.7,10.3c1.1,3.8,1.5,7.7,1.4,11.7c-0.9,6-3.6,14.4-11.6,21c-2,1.7-4.3,3.2-6.8,4.5
			L120.9,184.8z M124.4,124.8c-2.2,3.1-4.3,6.3-6.4,9.5c-2.2,3.6-3.9,6.3-5.4,9.8c-1.4,3.1-2.4,6.4-3.1,9.5
			c-0.7,5.7,0.1,11.3,2.3,15.9c0.9,1.7,2.4,4.6,5.5,8.5c1.2,1.5,2.5,3,3.9,4.4c2.1-1.2,4.1-2.5,5.9-4c7.5-6.4,10.1-14.3,10.9-19.9
			c0.2-3.7-0.3-7.4-1.4-11c-0.5-1.7-1.3-4.1-4.5-10l0,0C129.8,133.5,127.2,129.1,124.4,124.8z"/>
	</g>
	<g id="XMLID_2003_" display="inline">
		<path id="XMLID_2012_" fill="#FFD345" d="M145,168.1c4.1,1.1,9.5,2.6,15.7,4.9c-3.3,4-6.3,7.1-8.6,9.5c-3.2,3.2-5.2,5.3-8.4,7.7
			c-3.4,2.6-6.5,4.2-8.8,5.4c-7.7,2.9-13.7,2.2-16.6,1.6c-4.1-0.9-8.6-2.9-9.7-3.4c-2.4-1.1-4.4-2.2-5.9-3.1
			c0.6-2.3,1.4-4.9,2.7-7.4c4.9-10,13.2-14.2,17.2-15.7c2.6-0.8,6.6-1.6,11.4-1.4C136.2,166.1,138.7,166.4,145,168.1z"/>
		<path id="XMLID_2004_" fill="#FAB624" d="M123.9,198.6c-1.9,0-3.8-0.2-5.5-0.6c-1.9-0.4-5.3-1.4-9.9-3.5c-2-1-4.1-1.9-6-3.1
			l-0.6-0.4l0.2-0.7c0.7-2.7,1.5-5.3,2.7-7.6c4.6-9.4,12.2-14,17.6-16.2c3.9-1.2,7.8-1.6,11.8-1.4c2.4,0.1,5.1,0.5,11.2,2.1l0,0
			c5.2,1.4,10.6,3.1,15.8,4.9l1.3,0.5l-0.9,1c-2.8,3.3-5.7,6.6-8.6,9.5c-3,3.1-5.2,5.3-8.5,7.7c-2.8,2.1-5.8,4-8.9,5.5
			C131.6,197.8,127.7,198.6,123.9,198.6z M103.9,190.2c1.7,1,3.5,1.9,5.2,2.7c4.5,2,7.7,2.9,9.5,3.3c5,1.1,10.6,0.5,16.1-1.5
			c2.9-1.4,5.8-3.2,8.5-5.2c3.2-2.4,5.3-4.5,8.3-7.6c2.6-2.7,5.2-5.5,7.6-8.4c-4.8-1.7-9.6-3.2-14.5-4.4l0,0c-6.6-1.7-9-1.9-10.8-2
			c-3.8-0.2-7.4,0.3-11.1,1.4c-5.1,2-12.2,6.5-16.6,15.3C105.4,185.7,104.5,187.9,103.9,190.2z"/>
	</g>
	<g id="XMLID_1991_" display="inline">
		<path id="XMLID_2000_" fill="#FFD345" d="M118.8,153.9c-2.5-3.4-5.9-7.8-10.3-12.9c-2.5,4.5-4.3,8.5-5.7,11.4
			c-1.8,4.1-3,6.8-4.1,10.6c-1.2,4.1-1.6,7.6-1.8,10.1c0.1,8.3,3,13.6,4.5,16c2.3,3.6,5.8,6.9,6.7,7.8c1.9,1.9,3.7,3.4,5,4.3
			c1.9-1.4,4.1-3.1,6-5.2c7.5-8.3,8.4-17.6,8.4-21.7c-0.3-2.7-0.9-6.7-2.8-11.1C123.9,161.5,122.7,159.2,118.8,153.9z"/>
		<path id="XMLID_1992_" fill="#FAB624" d="M113.2,202.5l-0.6-0.4c-1.8-1.4-3.5-2.9-5.1-4.4c-3.7-3.6-5.7-6.4-6.8-8
			c-3-4.6-4.6-10.3-4.7-16.5c0.3-3.6,0.9-6.9,1.8-10.3c1.1-4,2.4-6.8,4.1-10.7c1.7-3.9,3.7-7.7,5.7-11.5l0.7-1.2l0.9,1
			c3.7,4.2,7.1,8.6,10.4,12.9l0,0c3.8,5.1,5.1,7.4,6,9.6c1.5,3.6,2.6,7.4,2.9,11.4c-0.1,6-1.6,14.7-8.7,22.4
			c-1.7,1.9-3.9,3.8-6.1,5.4L113.2,202.5z M108.7,142.6c-1.8,3.4-3.5,6.8-5,10.2c-1.7,3.9-3,6.7-4.1,10.5c-0.9,3.3-1.5,6.6-1.7,9.9
			c0.1,5.8,1.6,11.1,4.4,15.4c1.1,1.6,3,4.2,6.6,7.7c1.4,1.4,2.9,2.7,4.4,3.9c1.9-1.4,3.8-3,5.3-4.7c6.7-7.3,8.1-15.5,8.2-21.1
			c-0.3-3.7-1.3-7.2-2.8-10.7c-0.8-1.7-1.8-3.8-5.8-9.3l0,0C115.1,150.4,112,146.4,108.7,142.6z"/>
	</g>
	<g id="XMLID_1979_" display="inline">
		<path id="XMLID_1988_" fill="#FFD345" d="M134.5,182.6c4.1,0.4,9.7,1.1,16.4,2.2c-2.6,4.4-5,8.1-6.8,10.7c-2.6,3.7-4.3,6.1-7,9
			c-2.9,3.1-5.7,5.3-7.7,6.8c-7.1,4.1-13.2,4.4-16.1,4.3c-4.2-0.2-9-1.4-10.1-1.7c-2.6-0.7-4.7-1.4-6.4-2c0.2-2.4,0.6-5,1.4-7.8
			c3.2-10.7,10.7-16.2,14.3-18.4c2.5-1.2,6.2-2.7,11-3.3C125.4,182.1,128,182,134.5,182.6z"/>
		<path id="XMLID_1980_" fill="#FAB624" d="M114.2,216.6c-0.3,0-0.7,0-1,0c-2-0.1-5.4-0.5-10.3-1.7c-2.1-0.6-4.3-1.3-6.5-2.1
			l-0.7-0.3v-0.7c0.2-2.8,0.7-5.5,1.4-8c3-10,9.6-15.8,14.7-18.9c3.7-1.7,7.4-2.9,11.3-3.4c2.3-0.3,5.1-0.4,11.4,0.2l0,0
			c5.4,0.5,10.9,1.3,16.4,2.2l1.3,0.2l-0.7,1.2c-2.2,3.8-4.5,7.3-6.9,10.8c-2.5,3.6-4.2,6.1-7,9.1c-2.4,2.5-5,4.8-7.8,6.8
			C124.7,215,119.4,216.6,114.2,216.6z M97.7,211.1c1.8,0.7,3.8,1.3,5.6,1.7c4.8,1.3,8.1,1.6,9.9,1.6c5.1,0.2,10.5-1.3,15.6-4.1
			c2.6-1.9,5.2-4.1,7.5-6.6c2.7-2.9,4.4-5.4,6.9-8.9c2.1-3.1,4.2-6.3,6.2-9.5c-5-0.9-10-1.5-14.9-2l0,0c-6.8-0.7-9.2-0.5-11-0.2
			c-3.7,0.5-7.3,1.5-10.7,3.2c-4.7,2.9-11,8.4-13.8,17.8C98.3,206.4,97.9,208.8,97.7,211.1z"/>
	</g>
	<g id="XMLID_1967_" display="inline">
		<path id="XMLID_1976_" fill="#FFD345" d="M107,172.6c-2.9-3-6.8-6.9-12-11.4c-1.8,4.8-3.2,9-4.1,12.1c-1.3,4.3-2.1,7.1-2.6,11.1
			c-0.6,4.2-0.6,7.7-0.4,10.2c1.3,8.2,4.8,13,6.7,15.2c2.8,3.3,6.7,6.2,7.7,6.8c2.1,1.6,4.1,2.8,5.6,3.7c1.7-1.6,3.6-3.6,5.2-6
			c6.4-9.3,5.9-18.5,5.4-22.7c-0.6-2.7-1.8-6.5-4.3-10.6C113.1,179.4,111.6,177.4,107,172.6z"/>
		<path id="XMLID_1968_" fill="#FAB624" d="M108,221.6l-0.6-0.4c-1.9-1.2-3.9-2.4-5.7-3.8c-4.1-3.1-6.6-5.5-7.8-7
			c-3.6-4.1-6-9.5-6.9-15.7c-0.2-3.6-0.1-7,0.4-10.5c0.6-4.1,1.4-7,2.6-11.2c1.2-4.1,2.6-8.1,4.1-12.2l0.5-1.3l1,0.9
			c4.2,3.7,8.3,7.5,12.1,11.4c4.3,4.5,6,6.8,7.2,8.8c2,3.4,3.6,7,4.4,10.9c0.8,6,0.4,14.8-5.5,23.3c-1.5,2.2-3.3,4.2-5.3,6.2
			L108,221.6z M95.5,162.8c-1.4,3.6-2.5,7.2-3.6,10.8c-1.2,4.1-2,7-2.6,10.9c-0.5,3.4-0.6,6.8-0.4,10c0.9,5.7,3.1,10.8,6.5,14.7
			c1.3,1.4,3.6,3.8,7.5,6.8c1.5,1.2,3.2,2.2,4.9,3.3c1.7-1.6,3.3-3.5,4.6-5.4c5.6-8.1,6-16.5,5.2-22c-0.8-3.6-2.2-7-4.1-10.2
			c-1-1.5-2.3-3.6-7-8.4l0,0C102.9,169.7,99.2,166.2,95.5,162.8z"/>
	</g>
	<g id="XMLID_1955_" display="inline">
		<path id="XMLID_1964_" fill="#FFD345" d="M127,198.4c4.1-0.1,9.7-0.1,16.5,0.4c-2.1,4.7-4.1,8.6-5.6,11.5c-2.1,4-3.6,6.6-6,9.6
			c-2.6,3.4-5,5.9-6.9,7.5c-6.7,4.9-12.6,5.9-15.5,6.1c-4.2,0.3-9.1-0.4-10.3-0.6c-2.7-0.4-4.9-0.9-6.6-1.4c-0.1-2.4,0-5.1,0.5-7.9
			c2-11,8.8-17.3,12.2-19.9c2.3-1.4,5.9-3.4,10.5-4.4C117.8,198.9,120.3,198.5,127,198.4z"/>
		<path id="XMLID_1956_" fill="#FAB624" d="M107.1,234.6c-2,0-4.6-0.2-8.1-0.7c-2.2-0.3-4.4-0.8-6.7-1.4l-0.7-0.2v-0.7
			c-0.1-2.8,0.1-5.5,0.6-8.1c1.8-10.3,7.8-16.8,12.4-20.4c3.4-2.1,7-3.7,10.9-4.6c2.3-0.6,5-1,11.3-1.1l0,0c5.4-0.1,11,0,16.6,0.4
			l1.3,0.1l-0.5,1.2c-1.7,4-3.7,7.8-5.7,11.5c-2,3.8-3.6,6.6-6,9.8c-2.1,2.8-4.4,5.4-7,7.7c-5,3.8-10.5,5.9-16,6.4
			C109,234.5,108.1,234.6,107.1,234.6z M93.6,231c1.9,0.5,3.9,0.9,5.8,1.2c4.9,0.7,8.2,0.7,10.1,0.6c5.1-0.4,10.3-2.4,15-5.9
			c2.4-2.2,4.7-4.6,6.8-7.4c2.4-3.2,3.9-5.9,5.9-9.5c1.8-3.3,3.5-6.7,5-10.2c-5.1-0.3-10.1-0.4-15.1-0.3l0,0
			c-6.8,0.1-9.2,0.6-10.9,1.1c-3.7,0.9-7,2.3-10.2,4.3c-4.3,3.4-9.9,9.5-11.8,19.3C93.7,226.2,93.5,228.6,93.6,231z"/>
	</g>
	<g id="XMLID_1943_" display="inline">
		<path id="XMLID_1952_" fill="#FFD345" d="M98.2,191.5c-3.3-2.6-7.7-6-13.4-9.7c-1.3,5-1.9,9.3-2.5,12.5c-0.7,4.4-1.2,7.4-1.2,11.3
			c0,4.2,0.5,7.7,1,10.2c2.3,8,6.5,12.3,8.7,14.3c3.2,2.8,7.4,5.2,8.5,5.8c2.3,1.4,4.4,2.2,6,2.9c1.5-1.8,3.1-4.1,4.3-6.7
			c5.1-9.9,3.5-19.1,2.4-23.1c-1-2.6-2.6-6.2-5.7-9.9C105.1,197.5,103.4,195.6,98.2,191.5z"/>
		<path id="XMLID_1944_" fill="#FAB624" d="M105.6,239.9l-0.6-0.3c-2.1-0.9-4.1-1.8-6.1-3c-4.4-2.5-7.2-4.6-8.7-5.9
			c-4.1-3.7-7.2-8.7-8.9-14.7c-0.7-3.5-1-6.9-1-10.5c0-4.1,0.5-7.1,1.2-11.5c0.7-4.1,1.4-8.4,2.5-12.6l0.3-1.3l1.1,0.7
			c4.6,3.1,9.2,6.4,13.4,9.7l0,0c4.9,4,6.8,5.9,8.4,7.7c2.5,3.1,4.4,6.5,5.8,10.2c1.5,5.8,2.3,14.6-2.4,23.9
			c-1.2,2.3-2.7,4.6-4.5,6.8L105.6,239.9z M85.4,183.3c-0.9,3.8-1.5,7.5-2.1,11.2c-0.7,4.2-1.1,7.2-1.2,11.2c0,3.4,0.3,6.8,0.9,10
			c1.6,5.5,4.5,10.3,8.4,13.7c1.4,1.3,4.1,3.3,8.4,5.7c1.7,1,3.5,1.8,5.3,2.6c1.5-1.9,2.8-3.9,3.9-5.9c4.5-8.8,3.8-17.1,2.3-22.6
			c-1.3-3.5-3.1-6.7-5.5-9.5c-1.2-1.4-2.8-3.2-8.1-7.4l0,0C93.7,189.2,89.7,186.2,85.4,183.3z"/>
	</g>
	<g id="XMLID_1931_" display="inline">
		<path id="XMLID_1940_" fill="#FFD345" d="M121.2,214.7c4.1-0.7,9.6-1.4,16.4-1.8c-1.4,5-2.9,9.1-4.1,12.1
			c-1.6,4.1-2.7,6.9-4.6,10.4c-2.1,3.8-4.2,6.6-5.9,8.4c-6,5.8-11.8,7.5-14.6,8.1c-4.1,0.9-9.1,0.9-10.3,0.8c-2.7,0-5-0.3-6.7-0.5
			c-0.4-2.3-0.7-5-0.5-7.9c0.6-11.2,6.5-18.3,9.5-21.3c2.1-1.7,5.4-4.1,9.8-5.8C112.2,216.5,114.6,215.7,121.2,214.7z"/>
		<path id="XMLID_1932_" fill="#FAB624" d="M99.1,253.6c-0.3,0-0.6,0-0.9,0c-2.2,0-4.5-0.2-6.8-0.5l-0.7-0.1l-0.1-0.7
			c-0.5-2.7-0.7-5.5-0.6-8.1c0.5-10.4,5.5-17.6,9.6-21.9c3.1-2.6,6.5-4.6,10.1-6c1.8-0.7,4.1-1.4,11.1-2.5l0,0
			c5.4-0.9,10.9-1.4,16.5-1.8l1.3-0.1l-0.4,1.3c-1.3,4.1-2.6,8.2-4.1,12.2c-1.5,4.1-2.7,6.9-4.6,10.5c-1.7,3.1-3.8,6-6,8.6
			c-4.5,4.3-9.6,7.2-15,8.4C106.8,253.1,103.7,253.6,99.1,253.6z M92.4,251.4c1.9,0.2,4,0.4,5.9,0.4c4.9,0.1,8.2-0.4,10.1-0.8
			c5-1.1,9.9-3.8,14.1-7.8c2.1-2.5,4.1-5.2,5.7-8.2c1.9-3.5,3-6.3,4.5-10.2c1.4-3.5,2.6-7.1,3.7-10.8c-5.1,0.4-10.1,1-15,1.6l0,0
			c-6.8,1.1-9,1.7-10.7,2.4c-3.5,1.4-6.8,3.3-9.5,5.7c-3.9,4-8.6,10.8-9.1,20.6C91.9,246.6,92,249,92.4,251.4z"/>
	</g>
	<g id="XMLID_1919_" display="inline">
		<path id="XMLID_1928_" fill="#FFD345" d="M91.7,211.2c-3.6-2.1-8.5-4.8-14.6-7.8c-0.5,5.1-0.7,9.5-0.8,12.7
			c-0.1,4.4-0.1,7.4,0.4,11.4c0.6,4.2,1.5,7.6,2.3,10c3.4,7.6,8.1,11.3,10.5,12.9c3.6,2.4,8.1,4.1,9.3,4.5c2.5,1,4.7,1.6,6.4,2
			c1.3-2,2.5-4.4,3.5-7.1c3.7-10.6,0.8-19.4-0.8-23.2c-1.3-2.4-3.5-5.8-6.9-9.1C99.3,216.2,97.4,214.6,91.7,211.2z"/>
		<path id="XMLID_1920_" fill="#FAB624" d="M105.6,258.1l-0.7-0.2c-2.2-0.6-4.3-1.3-6.5-2.1c-4.7-1.8-7.7-3.6-9.5-4.6
			c-4.5-3.1-8.3-7.6-10.8-13.3c-1.2-3.4-1.9-6.8-2.4-10.2c-0.6-4.1-0.5-7.1-0.4-11.5c0.1-4.2,0.3-8.5,0.8-12.8l0.1-1.3l1.2,0.6
			c5,2.4,9.9,5,14.7,7.8l0,0c5.4,3.2,7.6,4.8,9.4,6.5c2.9,2.7,5.3,5.8,7.1,9.3c2.3,5.5,4.3,14.2,0.9,24c-0.9,2.5-2,5-3.6,7.3
			L105.6,258.1z M77.9,204.9c-0.4,3.8-0.6,7.6-0.6,11.4c-0.1,4.2-0.1,7.3,0.4,11.2c0.5,3.4,1.3,6.7,2.3,9.8
			c2.3,5.2,5.9,9.5,10.1,12.4c1.5,1.1,4.4,2.7,9.1,4.5c1.8,0.7,3.7,1.4,5.6,1.8c1.3-2,2.2-4.2,3-6.4c3.3-9.4,1.4-17.5-0.8-22.7
			c-1.7-3.2-4.1-6.2-6.8-8.8c-1.4-1.3-3.2-2.8-9-6.3l0,0C87,209.5,82.4,207.1,77.9,204.9z"/>
	</g>
	<g id="XMLID_1907_" display="inline">
		<path id="XMLID_1916_" fill="#FFD345" d="M117.7,232c4-1.2,9.4-2.7,16-4.1c-0.8,5.1-1.6,9.4-2.3,12.5c-1,4.3-1.7,7.2-3.1,10.9
			c-1.5,4-3.3,7-4.6,9.2c-5.1,6.6-10.6,9.1-13.3,10c-4.1,1.4-8.9,2-10,2.2c-2.7,0.4-5,0.5-6.7,0.5c-0.8-2.3-1.4-4.9-1.6-7.8
			c-1.1-11.1,3.9-19,6.4-22.4c1.8-2,4.7-4.8,9-7.1C109.1,235,111.4,233.9,117.7,232z"/>
		<path id="XMLID_1908_" fill="#FAB624" d="M92.9,274.1l-0.2-0.7c-0.9-2.6-1.4-5.3-1.6-8c-1-10.4,3-18.2,6.6-23
			c2.7-3,5.8-5.5,9.3-7.3c2.1-1.2,4.5-2.2,10.6-4.1c5.2-1.5,10.6-2.9,16.1-4.1l1.3-0.3l-0.2,1.3c-0.6,4.2-1.4,8.5-2.4,12.6
			c-1,4.2-1.6,7.2-3.2,11.1c-1.3,3.3-2.9,6.4-4.7,9.3c-3.9,4.9-8.6,8.5-13.8,10.4c-1.8,0.7-5.2,1.6-10.2,2.3
			c-2.2,0.3-4.5,0.5-6.8,0.5L92.9,274.1z M132.6,229.1c-5,1.1-9.9,2.3-14.7,3.8l0,0c-6.6,1.9-8.7,3-10.2,3.9
			c-3.3,1.8-6.2,4.1-8.7,6.9c-3.3,4.4-7,11.9-6.2,21.7c0.2,2.3,0.7,4.6,1.4,6.9c1.9-0.1,4-0.2,5.9-0.5c4.9-0.7,8.1-1.5,9.8-2.2
			c4.8-1.7,9.3-5.1,12.9-9.7c1.7-2.7,3.3-5.8,4.5-8.9c1.4-3.7,2.1-6.7,3.1-10.8C131.3,236.6,132,232.8,132.6,229.1z"/>
	</g>
	<g id="XMLID_1895_" display="inline">
		<path id="XMLID_1904_" fill="#FFD345" d="M87.7,233.1c-3.9-1.5-9.2-3.5-15.6-5.4c0.3,5.2,0.8,9.5,1.3,12.7
			c0.6,4.4,1.1,7.4,2.1,11.2c1.2,4.1,2.7,7.3,3.9,9.5c4.5,6.9,9.7,9.9,12.3,11.2c3.9,1.8,8.6,2.8,9.8,3.1c2.6,0.6,4.9,0.9,6.6,1.1
			c1-2.2,1.7-4.7,2.3-7.6c2-11-2.2-19.3-4.3-22.9c-1.6-2.2-4.3-5.2-8.3-7.9C96,236.8,93.9,235.5,87.7,233.1z"/>
		<path id="XMLID_1896_" fill="#FAB624" d="M108.8,277.3l-0.7-0.1c-2.2-0.2-4.5-0.6-6.7-1.1c-5-1.1-8.2-2.3-10-3.2
			c-5-2.3-9.4-6.3-12.7-11.5c-1.6-3.1-2.9-6.4-4-9.7c-1.2-4-1.5-7-2.2-11.3c-0.6-4.1-1-8.5-1.3-12.7l-0.1-1.4l1.3,0.4
			c5.4,1.6,10.6,3.5,15.6,5.5l0,0c6.5,2.6,8.6,3.9,10.2,5c3.3,2.2,6.1,4.9,8.5,8.1c3.2,5.1,6.5,13.3,4.5,23.6
			c-0.5,2.6-1.3,5.2-2.3,7.8L108.8,277.3z M73.2,229c0.3,3.9,0.7,7.6,1.2,11.3c0.6,4.2,1.1,7.2,2.1,11c1,3.3,2.2,6.4,3.8,9.4
			c3.1,4.8,7.2,8.6,12,10.7c1.7,0.8,4.8,2,9.6,3c1.9,0.4,3.9,0.8,5.8,1c0.9-2.2,1.5-4.5,1.9-6.8c1.7-9.7-1.4-17.5-4.2-22.3
			c-2.2-2.9-4.9-5.5-8-7.6c-1.5-1.1-3.6-2.2-9.8-4.8C82.8,232.2,78,230.4,73.2,229z"/>
	</g>
	<g id="XMLID_1883_" display="inline">
		<path id="XMLID_1892_" fill="#FFD345" d="M116.7,248.2c3.9-1.6,9.1-3.7,15.4-5.8c-0.2,5.2-0.6,9.5-1,12.7
			c-0.5,4.4-0.9,7.4-1.9,11.2c-1.2,4.1-2.5,7.3-3.6,9.6c-4.3,7-9.5,10.1-12.2,11.4c-3.9,1.9-8.6,3-9.7,3.3c-2.6,0.7-4.9,1-6.6,1.2
			c-1-2.2-1.8-4.7-2.5-7.5c-2.2-11,1.7-19.3,3.9-23c1.6-2.2,4.1-5.3,8.1-8.1C108.4,252,110.5,250.8,116.7,248.2z"/>
		<path id="XMLID_1884_" fill="#FAB624" d="M96.6,292.8l-0.3-0.6c-1.2-2.5-2-5.1-2.5-7.7c-2.1-10.2,1-18.5,4-23.6
			c2.3-3.3,5.1-6.1,8.4-8.4c1.5-1.2,3.7-2.5,10.1-5.2l0,0c5-2.1,10.2-4.1,15.5-5.8l1.3-0.4v1.4c-0.2,4.3-0.5,8.6-1,12.8
			c-0.5,4.3-0.9,7.4-1.9,11.3c-0.9,3.4-2.1,6.7-3.7,9.7c-3.3,5.3-7.6,9.5-12.5,11.9c-1.8,0.9-5,2.2-9.9,3.4c-2.1,0.5-4.4,1-6.7,1.3
			L96.6,292.8z M117,249c-6.3,2.7-8.3,4-9.7,5c-3.1,2.1-5.7,4.8-7.9,7.8c-2.8,4.7-5.7,12.5-3.8,22.3c0.5,2.2,1.2,4.5,2.1,6.8
			c1.9-0.3,3.9-0.7,5.8-1.1c4.8-1.2,7.9-2.4,9.5-3.3c4.6-2.3,8.7-6.1,11.8-11.1c1.4-2.9,2.6-6.1,3.5-9.4c1.1-3.8,1.4-6.8,1.9-11.1
			c0.5-3.7,0.8-7.5,0.9-11.3C126.3,245.3,121.5,247,117,249L117,249z"/>
	</g>
	<g id="XMLID_1871_" display="inline">
		<path id="XMLID_1880_" fill="#FFD345" d="M87,252.9c-4.1-1.1-9.5-2.4-16.1-3.7c0.9,5.1,1.8,9.4,2.7,12.4c1.2,4.3,1.9,7.2,3.4,10.8
			c1.6,4,3.5,6.9,4.9,9.1c5.2,6.4,10.8,8.8,13.5,9.6c4.1,1.4,8.9,1.8,10.1,1.9c2.7,0.3,5,0.3,6.7,0.3c0.7-2.3,1.3-4.9,1.4-7.8
			c0.8-11.2-4.3-18.9-6.9-22.3c-1.9-2-4.8-4.6-9.2-6.8C95.6,255.7,93.3,254.6,87,252.9z"/>
		<path id="XMLID_1872_" fill="#FAB624" d="M111.6,294.5c-2,0-4.1-0.1-6.2-0.3c-5.1-0.5-8.4-1.4-10.3-2c-5.2-1.7-10-5.2-14-9.9
			c-1.9-2.9-3.7-6-5-9.3c-1.5-3.8-2.4-6.8-3.5-11c-1.1-4.1-1.9-8.3-2.7-12.5l-0.2-1.3l1.3,0.2c5.5,1,11,2.2,16.2,3.7l0,0
			c6.1,1.6,8.6,2.7,10.7,3.8c3.5,1.8,6.7,4.2,9.4,7c3.7,4.7,7.9,12.4,7.2,23c-0.2,2.6-0.7,5.3-1.4,8l-0.2,0.7h-0.7
			C111.9,294.5,111.8,294.5,111.6,294.5z M72,250.4c0.7,3.8,1.4,7.5,2.4,11.1c1.1,4.1,1.8,7,3.4,10.7c1.4,3.1,2.9,6.1,4.8,8.9
			c3.7,4.4,8.2,7.7,13.1,9.4c1.8,0.6,5,1.4,9.9,1.9c1.9,0.2,3.9,0.3,5.9,0.3c0.7-2.3,1.1-4.6,1.2-6.9c0.7-9.8-3.3-17.2-6.8-21.6
			c-2.5-2.6-5.5-4.9-8.8-6.7c-1.6-0.9-3.8-1.8-10.3-3.7C82,252.5,77,251.4,72,250.4z"/>
	</g>
	<g id="XMLID_1859_" display="inline">
		<path id="XMLID_1868_" fill="#FFD345" d="M117.7,265c3.6-2.1,8.5-4.8,14.6-7.7c0.5,5.1,0.7,9.5,0.7,12.7c0,4.4,0.1,7.4-0.5,11.4
			c-0.6,4.2-1.5,7.6-2.3,9.9c-3.4,7.5-8.1,11.3-10.6,12.8c-3.6,2.3-8.1,4.1-9.3,4.5c-2.5,1-4.7,1.6-6.4,2c-1.3-2-2.5-4.4-3.4-7.1
			c-3.6-10.6-0.7-19.4,1-23.2c1.4-2.4,3.5-5.8,7-9.1C110,269.9,112,268.2,117.7,265z"/>
		<path id="XMLID_1860_" fill="#FAB624" d="M103.6,311.7l-0.4-0.6c-1.4-2.4-2.6-4.8-3.5-7.3c-3.4-9.9-1.4-18.5,1-23.9
			c1.9-3.6,4.3-6.7,7.2-9.4c1.7-1.6,4-3.3,9.4-6.5c4.6-2.7,9.6-5.3,14.7-7.7l1.2-0.6l0.1,1.3c0.4,4.3,0.6,8.6,0.7,12.8
			c0,4.3,0.1,7.4-0.5,11.5c-0.5,3.5-1.3,6.8-2.4,10.1c-2.6,5.7-6.4,10.3-10.9,13.3c-1.6,1.1-4.6,2.8-9.5,4.6c-2.1,0.8-4.2,1.4-6.5,2
			L103.6,311.7z M131.5,258.6c-4.6,2.2-9.1,4.6-13.3,7.1l0,0c-5.9,3.5-7.7,4.9-9.1,6.2c-2.7,2.5-5,5.5-6.8,8.8
			c-2.1,5.1-4.1,13.2-0.9,22.6c0.8,2.2,1.7,4.3,3,6.4c1.9-0.5,3.8-1.2,5.6-1.8c4.6-1.7,7.5-3.4,9.1-4.4c4.3-2.8,7.8-7.1,10.2-12.4
			c1.1-3.1,1.8-6.4,2.3-9.7c0.6-3.9,0.5-6.9,0.5-11.2C132,266.2,131.8,262.5,131.5,258.6z"/>
	</g>
	<g id="XMLID_1847_" display="inline">
		<path id="XMLID_1856_" fill="#FFD345" d="M88.6,273.8c-4.1-0.5-9.7-1-16.5-1.3c1.6,4.9,3.2,9,4.4,12c1.7,4.1,2.9,6.8,5,10.2
			c2.2,3.7,4.4,6.4,6.2,8.2c6.2,5.6,12,7,14.9,7.5c4.2,0.8,9.1,0.5,10.3,0.5c2.7-0.1,5-0.4,6.7-0.7c0.3-2.3,0.5-5,0.3-7.9
			c-0.9-11.2-7.1-18-10.1-20.9c-2.2-1.7-5.5-3.9-10-5.5C97.6,275.3,95.2,274.6,88.6,273.8z"/>
		<path id="XMLID_1848_" fill="#FAB624" d="M109.7,311.9c-3.4,0-5.8-0.3-7.3-0.6c-5.4-1-10.7-3.7-15.2-7.8c-2.4-2.6-4.5-5.4-6.3-8.4
			c-2.1-3.5-3.4-6.4-5-10.3c-1.6-3.9-3.2-7.9-4.5-12.1l-0.4-1.3h1.4c5.6,0.2,11.2,0.6,16.6,1.3l0,0c6.9,0.9,9.4,1.5,11.2,2.1
			c3.8,1.3,7.1,3.2,10.3,5.6c4.3,4.1,9.6,11.2,10.5,21.6c0.2,2.6,0.1,5.4-0.3,8.1l-0.1,0.7l-0.7,0.1c-2.2,0.4-4.5,0.6-6.8,0.7
			C111.8,311.9,110.7,311.9,109.7,311.9z M73.5,273.5c1.3,3.7,2.6,7.2,4.1,10.6c1.6,4,2.9,6.8,4.9,10.1c1.7,2.9,3.8,5.6,6.1,8.1
			c4.2,3.9,9.3,6.4,14.3,7.3c1.8,0.3,5.1,0.7,10.1,0.5c1.9-0.1,4-0.3,5.9-0.6c0.3-2.4,0.4-4.7,0.2-7c-0.8-9.8-5.8-16.5-9.8-20.3
			c-2.9-2.2-6.2-4.1-9.7-5.3c-1.7-0.6-4.1-1.3-10.8-2C83.6,274.1,78.5,273.7,73.5,273.5z"/>
	</g>
	<g id="XMLID_1835_" display="inline">
		<path id="XMLID_1844_" fill="#FFD345" d="M120.6,281c3.4-2.5,7.9-5.7,13.7-9.3c1.1,5.1,1.6,9.4,2,12.6c0.6,4.4,0.9,7.4,0.8,11.4
			c-0.1,4.2-0.7,7.7-1.3,10.2c-2.6,7.9-6.8,12.1-9.1,14c-3.3,2.7-7.6,4.9-8.7,5.5c-2.4,1.3-4.5,2.1-6.1,2.7
			c-1.4-1.9-2.9-4.1-4.1-6.8c-4.7-10.1-2.8-19.2-1.6-23.2c1.1-2.5,2.8-6.1,6-9.7C113.5,286.8,115.3,284.9,120.6,281z"/>
		<path id="XMLID_1836_" fill="#FAB624" d="M111.7,329.1l-0.4-0.6c-1.7-2.2-3.2-4.5-4.2-6.9c-4.4-9.5-3.4-18.2-1.6-23.9
			c1.5-3.8,3.6-7.1,6.2-10c1.5-1.8,3.6-3.7,8.6-7.4l0,0c4.3-3.3,9-6.4,13.7-9.3l1.2-0.7l0.3,1.3c0.9,4.2,1.5,8.5,2,12.6
			c0.5,4.3,0.9,7.4,0.8,11.5c-0.1,3.5-0.5,6.9-1.3,10.3c-1.9,6-5.2,10.9-9.4,14.5c-1.5,1.3-4.3,3.3-8.9,5.6c-2,1.1-4.1,1.9-6.2,2.7
			L111.7,329.1z M121.1,281.7c-5.5,4.1-7.1,5.8-8.3,7.1c-2.4,2.8-4.4,6-5.8,9.5c-1.5,5.3-2.6,13.6,1.6,22.5c1,2.1,2.2,4.1,3.7,6.1
			c1.8-0.7,3.7-1.5,5.4-2.4c4.4-2.2,7-4.1,8.6-5.4c4-3.3,7-8,8.8-13.5c0.7-3.2,1.2-6.6,1.3-9.9c0.1-4-0.3-6.9-0.8-11.2
			c-0.5-3.7-1.1-7.4-1.7-11.2C129.3,276,125.2,278.8,121.1,281.7L121.1,281.7z"/>
	</g>
	<g id="XMLID_1823_" display="inline">
		<path id="XMLID_1832_" fill="#FFD345" d="M92.9,293.1c-4.1-0.1-9.7,0-16.5,0.5c2.1,4.7,4.1,8.6,5.7,11.4c2.2,4,3.7,6.6,6,9.6
			c2.6,3.4,5.1,5.9,6.9,7.5c6.7,4.9,12.6,5.8,15.5,6c4.2,0.3,9.1-0.5,10.3-0.7c2.7-0.4,4.9-1,6.6-1.4c0.1-2.4,0-5.1-0.6-7.9
			c-2.1-11-9-17.3-12.2-19.8c-2.3-1.4-5.9-3.3-10.5-4.4C101.9,293.6,99.4,293.2,92.9,293.1z"/>
		<path id="XMLID_1824_" fill="#FAB624" d="M112.6,329.2c-0.9,0-1.5,0-2.1-0.1c-5.5-0.4-11-2.5-16-6.2c-2.6-2.3-5-4.9-7.1-7.7
			c-2.5-3.3-4-6-6.1-9.7c-2-3.7-4-7.5-5.8-11.5l-0.6-1.2l1.3-0.1c5.6-0.4,11.2-0.6,16.6-0.5l0,0c6.9,0.1,9.5,0.6,11.3,1
			c3.9,0.9,7.4,2.4,10.8,4.5c4.7,3.7,10.8,10.1,12.7,20.3c0.5,2.6,0.7,5.3,0.6,8.1v0.7l-0.7,0.2c-2.2,0.6-4.4,1.1-6.7,1.4
			C117.3,329,114.6,329.2,112.6,329.2z M77.7,294.5c1.6,3.5,3.3,6.8,5.1,10.1c2,3.8,3.6,6.4,6,9.5c2,2.7,4.3,5.2,6.8,7.4
			c4.6,3.4,9.8,5.4,14.9,5.8c1.9,0.1,5.2,0.1,10.1-0.6c1.9-0.3,3.9-0.7,5.8-1.2c0-2.4-0.2-4.8-0.6-7c-1.8-9.7-7.5-15.8-12-19.2
			c-3.1-1.9-6.6-3.4-10.2-4.2c-1.8-0.4-4.1-0.9-10.9-1C87.8,294,82.8,294.1,77.7,294.5z"/>
	</g>
	<g id="XMLID_1810_" display="inline">
		<path id="XMLID_1819_" fill="#FFD345" d="M125.9,298.7c2.9-3,6.9-6.8,12.2-11.2c1.8,4.8,3.1,9,4,12.2c1.2,4.3,2,7.2,2.5,11.1
			c0.6,4.2,0.5,7.7,0.3,10.2c-1.4,8.2-4.9,13-6.8,15.1c-2.8,3.2-6.8,6.1-7.8,6.8c-2.2,1.5-4.1,2.8-5.6,3.6c-1.7-1.6-3.6-3.7-5.1-6.1
			c-6.3-9.3-5.7-18.5-5.1-22.8c0.7-2.7,1.8-6.5,4.4-10.5C119.8,305.5,121.3,303.4,125.9,298.7z"/>
		<path id="XMLID_1811_" fill="#FAB624" d="M124.4,347.7l-0.5-0.5c-2-1.9-3.8-4-5.3-6.2c-5.8-8.7-6.1-17.5-5.3-23.3
			c1-4,2.5-7.5,4.5-10.9c1.3-2,3-4.1,7.3-8.7l0,0c3.8-3.9,7.9-7.6,12.2-11.3l1-0.9l0.5,1.3c1.5,4.1,2.8,8.2,4,12.2
			c1.2,4.1,2,7.1,2.5,11.2c0.5,3.5,0.6,6.9,0.3,10.4c-1,6.2-3.5,11.6-7.1,15.7c-1.4,1.4-3.8,3.9-7.9,6.9c-1.8,1.4-3.8,2.5-5.7,3.7
			L124.4,347.7z M137.6,289.1c-3.9,3.4-7.6,6.8-11.1,10.3l0,0c-4.8,4.8-6.2,6.8-7.1,8.3c-2,3.2-3.5,6.7-4.3,10.2
			c-0.8,5.5-0.5,13.8,5,22c1.3,1.9,2.8,3.8,4.5,5.4c1.7-1,3.4-2,4.9-3.2c4.1-2.9,6.4-5.2,7.6-6.7c3.4-3.9,5.7-9,6.7-14.8
			c0.2-3.3,0.1-6.7-0.3-10c-0.5-4-1.4-6.8-2.4-11C140.1,296.3,138.9,292.6,137.6,289.1z"/>
	</g>
	<g id="XMLID_1798_" display="inline">
		<path id="XMLID_1807_" fill="#FFD345" d="M100.4,313.9c-4.1,0.4-9.7,1.2-16.3,2.4c2.6,4.4,5.1,8,6.9,10.7c2.6,3.7,4.3,6.1,7,8.9
			c3,3.1,5.8,5.2,7.8,6.7c7.2,4.1,13.2,4.2,16.1,4.1c4.2-0.2,9-1.4,10.1-1.8c2.6-0.7,4.7-1.5,6.4-2.1c-0.2-2.4-0.6-5-1.4-7.8
			c-3.3-10.7-10.9-16.1-14.5-18.2c-2.5-1.2-6.2-2.6-11-3.2C109.5,313.3,107,313.2,100.4,313.9z"/>
		<path id="XMLID_1799_" fill="#FAB624" d="M120.8,347.6c-5.1,0-10.4-1.4-15.3-4.3c-2.9-2-5.6-4.3-8-6.8c-2.8-2.9-4.6-5.5-7.1-9
			c-2.4-3.4-4.8-7-7-10.7l-0.7-1.2l1.3-0.3c5.5-1.1,11-1.8,16.4-2.4c6.3-0.7,9-0.6,11.4-0.3c3.9,0.5,7.7,1.5,11.3,3.2
			c5.1,3.1,11.9,8.8,14.9,18.8c0.8,2.5,1.3,5.2,1.5,8l0.1,0.7l-0.7,0.3c-2.1,0.9-4.2,1.5-6.4,2.1c-4.9,1.4-8.4,1.7-10.3,1.8
			C121.7,347.6,121.3,347.6,120.8,347.6z M85.5,316.9c2,3.3,4.1,6.5,6.3,9.5c2.5,3.5,4.2,6,7,8.8c2.3,2.4,4.9,4.6,7.6,6.6
			c5,2.8,10.4,4.2,15.5,4c1.9-0.1,5.2-0.5,9.9-1.7c1.8-0.5,3.8-1.2,5.6-1.8c-0.2-2.4-0.7-4.7-1.4-6.9c-2.9-9.5-9.3-14.9-14.1-17.7
			c-3.3-1.5-6.9-2.6-10.6-3c-1.8-0.2-4.1-0.4-11,0.3l0,0C95.6,315.3,90.5,316,85.5,316.9z"/>
	</g>
	<g id="XMLID_1786_" display="inline">
		<path id="XMLID_1795_" fill="#FFD345" d="M134,315.4c2.4-3.4,5.8-7.9,10.1-13c2.6,4.5,4.4,8.4,5.8,11.4c1.8,4.1,3.1,6.8,4.2,10.5
			c1.3,4.1,1.7,7.6,1.9,10c0,8.3-2.8,13.6-4.3,16.1c-2.3,3.7-5.7,7-6.6,7.9c-1.9,1.9-3.7,3.4-4.9,4.4c-1.9-1.4-4.1-3-6.1-5.1
			c-7.6-8.2-8.6-17.4-8.7-21.6c0.2-2.7,0.8-6.7,2.7-11.1C129.1,323.1,130.3,320.8,134,315.4z"/>
		<path id="XMLID_1787_" fill="#FAB624" d="M140.4,364l-0.6-0.4c-2.3-1.5-4.3-3.4-6.2-5.3c-7.1-7.6-8.8-16.3-9-22.2
			c0.3-4.1,1.3-7.9,2.8-11.5c1-2.2,2.2-4.5,5.9-9.7l0,0c3.2-4.4,6.6-8.9,10.2-13.1l0.9-1l0.7,1.2c2.1,3.8,4.1,7.6,5.9,11.4
			c1.8,4,3.1,6.8,4.2,10.7c1,3.4,1.6,6.8,2,10.2c0,6.3-1.5,12-4.4,16.7c-1.1,1.6-3.1,4.4-6.7,8.1c-1.5,1.5-3.3,3.1-5,4.5L140.4,364z
			 M134.8,316c-4,5.5-5,7.7-5.7,9.4c-1.4,3.5-2.3,7-2.6,10.8c0.1,5.5,1.7,13.7,8.5,20.9c1.5,1.6,3.4,3.2,5.3,4.6
			c1.5-1.3,3-2.6,4.3-4c3.5-3.5,5.4-6.2,6.5-7.8c2.8-4.3,4.2-9.7,4.2-15.6c-0.3-3.2-1-6.6-1.9-9.8c-1.2-3.8-2.4-6.6-4.1-10.4
			c-1.5-3.4-3.3-6.8-5.1-10.1C140.8,307.9,137.7,311.9,134.8,316L134.8,316z"/>
	</g>
	<g id="XMLID_1774_" display="inline">
		<path id="XMLID_1783_" fill="#FFD345" d="M111.3,334.6c-4.1,1.2-9.4,2.7-15.7,5.1c3.4,4,6.4,7,8.7,9.4c3.2,3.2,5.3,5.2,8.5,7.6
			c3.5,2.5,6.6,4.2,8.8,5.3c7.8,2.8,13.8,2,16.6,1.4c4.1-0.9,8.6-3,9.7-3.5c2.4-1.2,4.4-2.3,5.9-3.2c-0.6-2.3-1.4-4.8-2.8-7.4
			c-5-9.9-13.4-14.1-17.4-15.5c-2.6-0.8-6.6-1.5-11.4-1.3C120.1,332.5,117.6,332.8,111.3,334.6z"/>
		<path id="XMLID_1775_" fill="#FAB624" d="M132.4,364.8c-3.7,0-7.4-0.7-11.2-2c-3.2-1.5-6.2-3.3-9.1-5.4c-3.3-2.4-5.5-4.6-8.6-7.6
			c-3-3-5.9-6.2-8.7-9.5l-0.9-1l1.3-0.5c5.2-1.9,10.5-3.7,15.8-5.1c6.8-1.8,9.2-2.1,11.2-2.2c4-0.2,7.8,0.2,11.7,1.4
			c5.6,2.2,13.1,6.8,17.8,16c1.2,2.3,2.1,4.9,2.8,7.6l0.2,0.7l-0.6,0.4c-1.9,1.2-4,2.2-6,3.2c-4.6,2.1-7.9,3.1-9.9,3.6
			C136.3,364.6,134.4,364.8,132.4,364.8z M97.1,340.1c2.5,2.9,5.1,5.7,7.7,8.3c3,3,5.2,5.1,8.4,7.5c2.7,2,5.6,3.8,8.7,5.2
			c5.4,1.9,11,2.4,16,1.4c1.8-0.4,5-1.4,9.5-3.4c1.7-0.8,3.5-1.7,5.2-2.7c-0.7-2.3-1.4-4.5-2.5-6.6c-4.4-8.8-11.7-13.1-16.9-15.1
			c-3.6-1-7.2-1.4-11-1.3c-1.8,0.1-4.2,0.4-10.7,2.1l0,0C106.7,336.7,101.9,338.4,97.1,340.1z"/>
	</g>
	<g id="XMLID_1762_" display="inline">
		<path id="XMLID_1771_" fill="#FFD345" d="M125.5,354.6c-3.9,1.6-8.9,4.1-14.9,7.2c3.9,3.5,7.2,6.1,9.9,8c3.6,2.7,6,4.4,9.5,6.3
			c3.8,2,7,3.3,9.5,4c8.1,1.7,13.9,0.1,16.6-1c4.1-1.4,8.1-4.1,9.2-4.8c2.2-1.4,4.1-2.9,5.4-4c-0.9-2.2-2.1-4.6-3.8-6.9
			c-6.4-9.2-15.2-12.1-19.3-13c-2.7-0.4-6.8-0.6-11.4,0.4C134.1,351.3,131.6,351.9,125.5,354.6z"/>
		<path id="XMLID_1763_" fill="#FAB624" d="M146.5,381.7c-2.3,0-4.7-0.3-7.1-0.8c-3.4-1.1-6.6-2.4-9.6-4.1c-3.6-1.9-6.1-3.8-9.5-6.4
			c-3.4-2.5-6.8-5.2-9.9-8.1l-1-0.9l1.2-0.6c4.9-2.7,9.9-5.1,14.9-7.3c5.8-2.5,8.4-3.3,10.7-3.8c3.9-0.8,7.8-0.9,11.7-0.4
			c5.9,1.4,14,4.8,20,13.4c1.5,2.2,2.8,4.5,3.9,7.1l0.3,0.6l-0.5,0.4c-1.7,1.4-3.6,2.8-5.5,4c-4.2,2.8-7.4,4.2-9.3,4.9
			C153.3,381.2,149.9,381.7,146.5,381.7z M112.3,362c2.9,2.5,5.9,4.9,8.9,7.1c3.4,2.5,5.9,4.3,9.4,6.3c3,1.6,6.1,2.9,9.3,4
			c5.6,1.2,11.2,0.9,16-1c1.8-0.7,4.8-2,9-4.7c1.6-1.1,3.2-2.2,4.7-3.5c-1-2.2-2.1-4.2-3.4-6.2c-5.7-8.1-13.3-11.3-18.8-12.6
			c-3.7-0.5-7.3-0.4-11,0.4c-1.8,0.4-4.1,1-10.3,3.7l0,0C121.4,357.3,116.9,359.6,112.3,362z"/>
	</g>
	<g id="XMLID_1750_" display="inline">
		<path id="XMLID_1759_" fill="#FFD345" d="M145.5,332.2c1.9-3.7,4.7-8.6,8.4-14.3c3.1,4.1,5.5,7.7,7.2,10.5c2.4,3.8,4,6.3,5.6,9.9
			c1.7,3.9,2.7,7.3,3.3,9.7c1.1,8.2-1,13.9-2.2,16.5c-1.8,3.9-4.7,7.7-5.5,8.7c-1.6,2.1-3.2,3.9-4.3,5c-2.1-1.1-4.4-2.5-6.7-4.3
			c-8.7-7.1-10.8-16.1-11.5-20.3c-0.2-2.8-0.1-6.8,1.3-11.4C141.6,340.4,142.4,338.1,145.5,332.2z"/>
		<path id="XMLID_1751_" fill="#FAB624" d="M158.1,379.4l-0.6-0.3c-2.5-1.3-4.8-2.7-6.8-4.4c-8.1-6.7-10.9-15-11.8-20.8
			c-0.2-4.1,0.2-8,1.3-11.8c0.7-2.3,1.6-4.8,4.5-10.4l0,0c2.5-4.8,5.4-9.6,8.4-14.3l0.7-1.1l0.8,1.1c2.6,3.5,5,7,7.3,10.5
			c2.3,3.7,4,6.3,5.6,10c1.4,3.2,2.5,6.6,3.3,9.9c0.9,6.2,0,12.1-2.3,17.1c-0.9,1.8-2.5,4.8-5.6,8.9c-1.4,1.7-2.8,3.5-4.4,5.1
			L158.1,379.4z M146.4,332.6c-3.2,6-4,8.3-4.4,10c-1,3.6-1.4,7.3-1.2,11.1c0.9,5.4,3.5,13.3,11.1,19.7c1.7,1.4,3.8,2.8,5.9,3.9
			c1.4-1.4,2.6-3,3.8-4.5c3-4,4.6-6.8,5.4-8.6c2.1-4.6,2.9-10.2,2.1-16c-0.8-3.2-1.8-6.4-3.2-9.5c-1.6-3.6-3.3-6.2-5.5-9.8
			c-2-3.2-4.1-6.3-6.5-9.4C151.2,323.9,148.7,328.2,146.4,332.6L146.4,332.6z"/>
	</g>
	<g id="XMLID_1607_" display="inline">
		<path id="XMLID_1738_" fill="#E4473E" d="M281.3,284.3h57.5l-6.9-30.3c-0.7-2.9-2.7-5.4-5.5-6.5c-7.7-3.2-17.2-6.3-28-8.5
			c-7-1.4-13.6-2.3-19.7-2.8l2.6,16h0.1v0.8l1.1,6.8l-1.1,0.2L281.3,284.3L281.3,284.3z"/>
		<path id="XMLID_1735_" fill="#E4473E" d="M262.5,271.4l7.5,11.4c0,0-15.8,0.4-16,0.4s-12.4-1.5-12.4-1.5L262.5,271.4z"/>
		<g id="XMLID_1731_">
			<path id="XMLID_1734_" fill="#D6463A" d="M311.2,257.1h-1.5c-0.2,0-0.4-0.2-0.4-0.4v-11.2c0-0.2,0.2-0.4,0.4-0.4h1.5
				c0.2,0,0.4,0.2,0.4,0.4v11.2C311.6,257,311.5,257.1,311.2,257.1z"/>
			<path id="XMLID_1733_" fill="#D6463A" d="M317.6,259h-1.5c-0.2,0-0.4-0.2-0.4-0.4v-11.2c0-0.2,0.2-0.4,0.4-0.4h1.5
				c0.2,0,0.4,0.2,0.4,0.4v11.2C318,258.8,317.8,259,317.6,259z"/>
			<path id="XMLID_1732_" fill="#D6463A" d="M323.6,261.5h-1.5c-0.2,0-0.4-0.2-0.4-0.4v-11.2c0-0.2,0.2-0.4,0.4-0.4h1.5
				c0.2,0,0.4,0.2,0.4,0.4v11.2C324,261.3,323.8,261.5,323.6,261.5z"/>
		</g>
		<g id="XMLID_1713_">
			<g id="XMLID_108_">
				<path fill="#E4473E" d="M277.1,261.2l-4.1-25.4c-3.9-0.1-7.4-0.1-10.6,0c-23,0-46,0-69,0v48.4h85.2c0-5,0-15.5,0-23.3
					L277.1,261.2z M263.1,281.3h-53.6v-44.5h52l1.6,5.7V281.3z"/>
			</g>
			<polygon id="XMLID_104_" fill="#C8483E" points="209.3,241.4 214.7,285.6 268,279 263.3,240.6 260.8,235.1 			"/>
		</g>
		<path id="XMLID_1710_" fill="#1E303B" d="M282.7,262.3l-2.4-14.9l-5.3-33.1c-0.1-0.6,0.3-1.2,1-1.3l2.4-0.4
			c1.3-0.2,2.1-1.4,1.9-2.7l-0.6-3.6c-0.2-1.3-1.4-2.1-2.7-1.9l-7.6,1.3c-0.2,0-0.3,0.1-0.5,0.2c-0.4,0.1-1.4,0.5-2.2,1.6
			c-0.9,1.3-0.8,2.6-0.7,2.9l5.9,36.6l4.1,25.9l0.4-0.1l0,0c0,7.2,0,15.5,0,19.8c0,1.8,0,3,0,3h5.8v-3v-24.9v-4.3
			C282.5,263.2,282.8,262.7,282.7,262.3z"/>
		<path id="XMLID_1707_" fill="#C8483E" d="M337.9,284.7h-17.5c-0.9,0-1.6-0.6-1.8-1.4l-0.8-3.2c-0.3-1.2,0.6-2.3,1.8-2.3h17.6
			c0.9,0,1.6,0.6,1.8,1.4l0.8,3.2C340,283.6,339.2,284.7,337.9,284.7z"/>
		<g id="XMLID_1700_">
			<polygon id="XMLID_1704_" fill="#ECECEE" points="255.4,188.3 263.1,242.5 190.5,242.5 201.3,189.5 			"/>
			<path id="XMLID_1701_" fill="#26313B" d="M263.5,242.9H190l10.9-53.9l55-1.3L263.5,242.9z M191.1,242h71.5l-7.4-53.2l-53.4,1.2
				L191.1,242z"/>
		</g>
		<path id="XMLID_1697_" fill="#1E303B" d="M244.6,194.7v9.5c0,2.2,1.8,4.1,4.1,4.1l0,0c2.2,0,4.1-1.8,4.1-4.1v-9.5
			c0-2.2-1.8-4.1-4.1-4.1l0,0C246.5,190.5,244.6,192.3,244.6,194.7z"/>
		<path id="XMLID_1694_" fill="#E4473E" d="M198.9,186.8h60.3c1.5,0,2.5,2.3,1.8,4.2l-0.7,1.7c-0.4,1-1.1,1.5-1.8,1.5h-59.7
			c-1.2,0-2-1.3-2-2.9v-1.7C196.9,188.1,197.9,186.8,198.9,186.8z"/>
		<g id="XMLID_1669_">
			<g id="XMLID_1685_">
				<rect id="XMLID_96_" x="239.2" y="291.5" fill="#12181D" width="20.7" height="6.8"/>
				<rect id="XMLID_88_" x="239.2" y="283.9" fill="#12181D" width="20.7" height="6.8"/>
				<rect id="XMLID_83_" x="239.2" y="276.1" fill="#12181D" width="20.7" height="6.8"/>
			</g>
			<g id="XMLID_1670_">
				<polygon id="XMLID_81_" fill="#828588" points="260,283.9 260,290.6 239.2,290.6 239.2,283.9 238.3,283.9 238.3,290.6 
					238.3,291.5 239.2,291.5 260,291.5 260.8,291.5 260.8,290.6 260.8,283.9 				"/>
				<g id="XMLID_1_">
					<polygon id="XMLID_80_" fill="#828588" points="260,291.5 260,298.2 239.2,298.2 239.2,291.5 238.3,291.5 238.3,299.2 
						260.8,299.2 260.8,291.5 					"/>
					<path id="XMLID_77_" fill="#828588" d="M238.3,275.3v7.6v0.9h0.9h20.7h0.9v-0.9v-7.6H238.3z M260,282.9h-20.7v-6.8H260V282.9z"
						/>
				</g>
			</g>
		</g>
		<g id="XMLID_1656_">
			<ellipse id="XMLID_1666_" fill="#21292F" cx="200.9" cy="282.9" rx="37.4" ry="37.4"/>
			<ellipse id="XMLID_1663_" fill="#DEDFE0" cx="200.9" cy="282.9" rx="21.9" ry="21.9"/>
			<ellipse id="XMLID_1660_" fill="#21292F" cx="200.9" cy="282.9" rx="8.6" ry="8.6"/>
			<path id="XMLID_1657_" fill="#E4473E" d="M200.9,245.5c13.9,0,26,7.6,32.5,18.8c0.8,1.4,3,0.9,3-0.8v-4.8c0-0.3-0.1-0.7-0.3-1
				c-7.8-10.9-20.6-18-35.1-18c-15.2,0-28.6,7.9-36.4,19.9c-0.5,0.8-0.3,1.8,0.6,2.3l2.3,1.3c0.7,0.4,1.6,0.2,2-0.5
				C176.2,252.2,187.7,245.5,200.9,245.5z"/>
		</g>
		<g id="XMLID_1646_">
			<ellipse id="XMLID_1653_" fill="#21292F" cx="291.9" cy="288.5" rx="31.1" ry="31.1"/>
			<ellipse id="XMLID_1650_" fill="#DEDFE0" cx="291.9" cy="288.5" rx="18.1" ry="18.1"/>
			<ellipse id="XMLID_1647_" fill="#21292F" cx="291.9" cy="288.5" rx="7.1" ry="7.1"/>
		</g>
		<rect id="XMLID_1608_" x="220.1" y="194.3" fill="#4C5861" width="1" height="48.5"/>
	</g>
	<g id="XMLID_1582_" display="inline">
		<polygon id="XMLID_1600_" fill="#DD4C41" points="345.1,378.1 318.5,322.1 309.2,322.1 334,378.1 		"/>
		<path id="XMLID_1597_" fill="#FDE4C4" d="M250.7,322.1v55.9H334l-24.9-55.9l-1.3-2.9c-22.1-4.2-38.7-6.9-45.1-7.9
			c-1.8-0.3-5.5-0.8-8.7,1.4c-1.7,1.2-2.8,2.9-3.4,4.1v0.9L250.7,322.1L250.7,322.1z"/>
		<polygon id="XMLID_1592_" fill="#DD4C41" points="166.7,378.1 191.7,322.1 182.9,322.1 182.3,322.1 155.7,378.1 		"/>
		<path id="XMLID_1589_" fill="#FDE4C4" d="M250,378.1v-55.9v-5.3c-0.6-1.4-1.6-3-3.4-4.1c-0.5-0.4-1.1-0.6-1.5-0.9
			c-2.7-1.2-5.5-0.8-7-0.5c-6.5,1-23,3.7-45.1,7.9l-1.3,2.9l-24.9,55.9L250,378.1L250,378.1z"/>
		<polygon id="XMLID_1584_" fill="#F3C290" points="250,322.7 250,378.7 250.7,380.6 250.7,324.7 250.7,318.3 250.7,317.4 
			250.7,316.9 250,316.9 250,316.9 250,317.4 		"/>
	</g>
	<g id="XMLID_661_" display="inline">
		<g id="XMLID_664_">
			<path id="XMLID_1579_" fill="#C8483E" d="M348,368.5c-1.8-2.7-1.8-6.4,2.7-7.3C346.2,362.2,346.2,365.8,348,368.5
				c1.9,3.9,6.6,2.3,8.5-0.9l-3.9-1.4l2.3-4.6c-1.5-0.6-3.7-0.9-5.2-0.4c1.5-0.5,3.6-0.2,5.2,0.4l28.1-55.5
				c-13,10-33.4,23.4-60.9,33.3l0,0l0,0v55.8h25c12-6.1,23.8-12.1,35.8-18.1l-26.3-9.6C354.6,370.9,350,372.4,348,368.5z"/>
			<path id="XMLID_1570_" fill="#C8483E" d="M117.7,306.1c13,10,33.4,23.4,60.9,33.3l0,0l0,0v55.8h-24.9
				c-12-6.1-23.8-12.1-35.8-18.1l30.2-11L117.7,306.1z"/>
			<path id="XMLID_671_" fill="#983939" d="M347.2,339.5h-24.9l0,0v10.2C332.5,346.3,340.9,342.5,347.2,339.5z"/>
			<path id="XMLID_668_" fill="#983939" d="M178.6,349.7v-10.2l0,0h-24.9C160,342.5,168.4,346.3,178.6,349.7z"/>
			<path id="XMLID_665_" fill="#E4473E" d="M347.2,363.7c0-8.1,0-16.1,0-24.2c-6.3,3-14.7,6.8-24.9,10.2
				c-18.8,6.5-43.8,12.2-73.5,12c-28.2-0.2-52-5.8-70.1-12c-10.2-3.5-18.6-7.2-24.9-10.2c0,18.6,0,37.2,0,55.8c0,2.5,0,4.9,0,7.4
				c17.6,8.5,52.2,22.4,97.6,22.2c44.5-0.2,78.3-13.7,95.9-22.2c0-2.5,0-4.9,0-7.4c0-9.5,0-19,0-28.5l0,0L347.2,363.7L347.2,363.7z"
				/>
		</g>
		<g id="XMLID_662_">
			<path fill="#FFFFFF" d="M199.3,379.1h-13.5v23.5h-7.4v-29.1h21L199.3,379.1L199.3,379.1z"/>
			<path fill="#FFFFFF" d="M226.7,379.1h-9.1v23.5h-7.5v-23.5h-9.1v-5.6h25.7L226.7,379.1L226.7,379.1z"/>
			<path fill="#FFFFFF" d="M261.7,402.7h-7.5v-19.5l-5.4,12.6h-5.2l-5.4-12.6v19.5h-7v-29.1h8.7l6.6,14.7l6.6-14.7h8.7L261.7,402.7
				L261.7,402.7z"/>
			<path fill="#FFFFFF" d="M296.1,402.7h-7.7l-2-5.9h-10.8l-2,5.9H266l10.8-29.1h8.7L296.1,402.7z M284.5,391.4l-3.6-10.4l-3.6,10.4
				H284.5z"/>
			<path fill="#FFFFFF" d="M325.9,373.5l-10.6,23.3c-0.6,1.4-1.4,2.4-2.1,3.3c-0.8,0.9-1.6,1.4-2.5,1.8c-0.9,0.4-1.6,0.7-2.5,0.8
				c-0.9,0.1-1.6,0.2-2.5,0.2c-0.9,0-2,0-3.3-0.1c-1.3,0-2.1-0.1-2.5-0.1v-6.4h0.5c0.3,0.1,0.8,0.2,1.4,0.3c0.7,0.1,1.4,0.1,2,0.1
				c1.3,0,2.3-0.1,3.2-0.4c0.8-0.3,1.3-0.6,1.4-1l-11.9-21.8h8.2l7.2,13.8l6-13.8L325.9,373.5L325.9,373.5z"/>
		</g>
	</g>
	<g id="XMLID_6_" display="inline">
		<path id="XMLID_204_" fill="#26313B" d="M208.3,142c-0.1,0.2-0.2,0.4-0.2,0.6c0,0.1,0,0.2,0,0.3c0,0.4,0.3,0.8,0.6,1
			c0.3,0.3,0.7,0.4,1.1,0.3c0.3,0,0.6-0.2,0.9-0.4l39.3-24.7l0,0l39.3,24.7c0.2,0.2,0.4,0.2,0.6,0.3c0.1,0,0.2,0.1,0.3,0.1
			c0.4,0.1,0.8-0.1,1.1-0.3c0.3-0.2,0.5-0.6,0.6-1c0.1-0.3,0-0.7-0.2-1l-9.1-30.1l-3.4-11.1l0,0l25.7-16.2l36.8-23
			c0.7-0.4,0.9-1.3,0.5-1.9l-0.1-0.2c-0.3-0.5-0.9-0.8-1.4-0.7h-74.2l0,0l-15-50.1c-0.2-0.6-0.7-1-1.3-1l0,0c-0.8-0.2-1.5,0.2-1.7,1
			l-15.1,50.2l0,0h-74.2c-0.6-0.1-1.2,0.1-1.4,0.7l-0.1,0.2c-0.4,0.7-0.2,1.5,0.5,1.9l35.5,22.3l0.9,0.6l26.2,16.4l0,0l-4.2,14.2
			L208.3,142z M223.2,102.4l21.5,13.5l0,0h-25.6l0,0L223.2,102.4L223.2,102.4z M225.5,98.5l1.3-1.1l23-20.7l0,0l14.1,12.6l9.9,9
			l0.2,0.2h-0.2h-8.7h-9.5H234h-6.8 M262,61.9l-12.2,11l0,0l-12.2-11l0,0H262L262,61.9z M238.8,58.9l11-7.4l0,0l11,7.4l0,0H238.8
			L238.8,58.9z M212.1,139.3l6.2-20.4l0,0h26.4l0,0L212.1,139.3L212.1,139.3z M227.4,101.5L227.4,101.5h38.3h6.8l0,0l-6,3.8
			L250,115.6l0,0L227.4,101.5z M287.8,139.3l-32.6-20.4l0,0h26.4l0,0L287.8,139.3L287.8,139.3z M279.2,111.1l1.4,4.7l0,0h-25.6l0,0
			l13-8.1l8.5-5.3l0,0L279.2,111.1z M313.8,61.9h21.9l0,0l-31.8,20l0,0l9.8-19.4C313.8,62.2,313.8,62.1,313.8,61.9z M310.6,61.9
			l-10.2,20.3l0,0l-30.2-20.3l0,0H310.6L310.6,61.9z M294,81.5l4.9,3.4l0,0l-20.7,13l0,0l-1.7-5.7L268.1,64l0,0L294,81.5z
			 M274.3,94.7L274.3,94.7l-10.9-9.8l-11.3-10.1l0.1-0.1l12.6-11.4l0,0L274.3,94.7z M262.8,56.7l-10.3-6.9l0,0l6.8-4.6l0,0
			L262.8,56.7L262.8,56.7z M249.9,14.1l8.5,28l0,0l-8.6,5.8l0,0l-8.3-5.6l0,0L249.9,14.1L249.9,14.1z M240.5,45.2l6.6,4.4l0,0
			l-9.9,6.8l0,0L240.5,45.2L240.5,45.2z M235,63.4L235,63.4l12.4,11.2l0.1,0.1l-21.9,19.8l0,0l5.8-19.1L235,63.4z M229.8,61.9
			L229.8,61.9l-30.2,20.3l-0.2-0.4l-10-20l0,0C189.4,61.9,229.8,61.9,229.8,61.9z M164.1,61.9h22l0,0L196.2,82l0,0L164.1,61.9
			L164.1,61.9z M200.9,84.9L200.9,84.9l5.8-3.9l2.9-1.9l22.2-14.9l0,0l-3.6,11.8l-4.3,14.5l-2.3,7.6l0,0L200.9,84.9z"/>
		<path id="XMLID_203_" fill="#26313B" d="M157.5,81V59.4c0-0.3,0.2-0.5,0.5-0.5h2c0.3,0,0.5,0.2,0.5,0.5v21.7
			c0,0.3-0.2,0.5-0.5,0.5h-2C157.7,81.5,157.5,81.2,157.5,81z"/>
		<path id="XMLID_201_" fill="#26313B" d="M154.3,69.8h9.4c0.3,0,0.5,0.2,0.5,0.5v2c0,0.3-0.2,0.5-0.5,0.5h-9.4
			c-0.3,0-0.5-0.2-0.5-0.5v-2C153.8,70,154,69.8,154.3,69.8z"/>
		<path id="XMLID_22_" fill="#26313B" d="M154.3,74.1h9.4c0.3,0,0.5,0.2,0.5,0.5v2c0,0.3-0.2,0.5-0.5,0.5h-9.4
			c-0.3,0-0.5-0.2-0.5-0.5v-2C153.8,74.3,154,74.1,154.3,74.1z"/>
		<path id="XMLID_17_" fill="#26313B" d="M154.3,78.5h9.4c0.3,0,0.5,0.2,0.5,0.5v2c0,0.3-0.2,0.5-0.5,0.5h-9.4
			c-0.3,0-0.5-0.2-0.5-0.5v-2C153.8,78.7,154,78.5,154.3,78.5z"/>
		<path id="XMLID_13_" fill="#26313B" d="M339.4,81V59.4c0-0.3,0.2-0.5,0.5-0.5h2c0.3,0,0.5,0.2,0.5,0.5v21.7c0,0.3-0.2,0.5-0.5,0.5
			h-2C339.6,81.5,339.4,81.2,339.4,81z"/>
		<path id="XMLID_9_" fill="#26313B" d="M336.3,69.8h9.4c0.3,0,0.5,0.2,0.5,0.5v2c0,0.3-0.2,0.5-0.5,0.5h-9.4
			c-0.3,0-0.5-0.2-0.5-0.5v-2C335.7,70,336,69.8,336.3,69.8z"/>
		<path id="XMLID_8_" fill="#26313B" d="M336.3,74.1h9.4c0.3,0,0.5,0.2,0.5,0.5v2c0,0.3-0.2,0.5-0.5,0.5h-9.4
			c-0.3,0-0.5-0.2-0.5-0.5v-2C335.7,74.3,336,74.1,336.3,74.1z"/>
		<path id="XMLID_7_" fill="#26313B" d="M336.3,78.5h9.4c0.3,0,0.5,0.2,0.5,0.5v2c0,0.3-0.2,0.5-0.5,0.5h-9.4
			c-0.3,0-0.5-0.2-0.5-0.5v-2C335.7,78.7,336,78.5,336.3,78.5z"/>
	</g>
</g>
<g>
	<path fill="#CECCCC" d="M208.9,92.6L208.9,92.6c-0.3-0.5-0.6-1.1-0.8-1.6c-1.4-2.6-4.4-4.1-7.4-3.4c-8.4,1.7-19.4,5-31,11.2
		c-10.9,5.8-19.2,12.4-25.2,18.1c-2.2,2.1-2.8,5.3-1.4,7.9l0.9,1.6l0,0l8.3,15.8c18.1-16.4,40.3-28.4,64.9-34.1L208.9,92.6z"/>
	<path fill="#CECCCC" d="M331.2,115.5L331.2,115.5c0.8-2.5,1.5-5,2.3-7.4c0.9-2.8-0.2-6-2.8-7.6c-7.2-4.7-17.3-10.1-29.9-14
		c-11.8-3.6-22.4-4.7-30.7-5c-3-0.1-5.7,1.8-6.6,4.7l-2.3,7.4l0,0l-3.5,11.3c25.6,1.3,49.5,9.3,69.9,22.2L331.2,115.5z"/>
	<path fill="#CECCCC" d="M403.2,212.4L403.2,212.4c2.3-1.2,4.6-2.4,6.9-3.6c2.6-1.4,4.1-4.4,3.4-7.4c-1.7-8.4-5-19.4-11.3-31
		c-5.8-10.9-12.5-19.2-18.2-25.2c-2.1-2.2-5.3-2.8-7.9-1.4l-6.9,3.6l0,0l-10.9,5.7c16.3,18.2,28,40.5,33.5,65.2L403.2,212.4z"/>
	<path fill="#CECCCC" d="M109.1,168.2L109.1,168.2c-0.6-0.2-1.2-0.4-1.7-0.5c-2.8-0.9-6,0.2-7.6,2.8c-4.7,7.2-10.2,17.3-14,29.9
		c-3.6,11.8-4.8,22.4-5,30.7c-0.1,3,1.8,5.7,4.7,6.6l1.8,0.6l0,0l17.6,5.5c1.1-25.6,8.8-49.6,21.5-70.1L109.1,168.2z"/>
	<path fill="#CECCCC" d="M91.9,292.2L91.9,292.2c-0.5,0.3-1.1,0.6-1.6,0.8c-2.6,1.4-4.1,4.4-3.4,7.4c1.7,8.4,5,19.4,11.2,31
		c5.8,10.9,12.4,19.2,18.1,25.2c2.1,2.2,5.3,2.8,7.9,1.4l1.6-0.9l0,0l17.1-8.9c-16.5-18-28.6-40.2-34.4-64.8L91.9,292.2z"/>
	<path fill="#CECCCC" d="M288.7,404L288.7,404c1.2,2.3,2.4,4.6,3.6,6.9c1.4,2.6,4.4,4.1,7.4,3.4c8.4-1.7,19.4-5,31-11.3
		c10.9-5.8,19.2-12.5,25.2-18.2c2.2-2.1,2.8-5.3,1.4-7.9l-3.6-6.9l0,0l-6.3-12.1c-18.1,16.4-40.4,28.2-65,33.8L288.7,404z"/>
	<path fill="#CECCCC" d="M415,264.3l-7.4-2.3l0,0l-12.4-3.9c-1.4,25.6-9.4,49.4-22.4,69.8l12.8,4l0,0c2.5,0.8,5,1.6,7.4,2.4
		c2.8,0.9,6-0.2,7.6-2.8c4.7-7.2,10.1-17.3,14-29.9c3.6-11.8,4.7-22.4,5-30.7C419.7,267.9,417.8,265.2,415,264.3z"/>
	<path fill="#CECCCC" d="M167.4,392.1L167.4,392.1c-0.2,0.6-0.4,1.2-0.5,1.7c-0.9,2.8,0.2,6,2.8,7.6c7.2,4.7,17.3,10.2,29.9,14
		c11.8,3.6,22.4,4.8,30.7,5c3,0.1,5.7-1.8,6.6-4.7l0.6-1.8l0,0l5.9-18.8c-25.6-1.2-49.5-9-70-21.7L167.4,392.1z"/>
</g>
</svg>
